<svg width="503" height="880" viewBox="0 0 503 880" fill="none" xmlns="http://www.w3.org/2000/svg">
<rect x="140" width="362.667" height="880" fill="#9A9A9A"/>
<rect x="168.667" y="28.6667" width="132" height="40" fill="white" stroke="white" stroke-width="1.33333"/>
<rect x="148.667" y="43.3346" width="32" height="10.6667" fill="white" stroke="white" stroke-width="1.33333"/>
<rect x="288.667" y="43.3346" width="32" height="10.6667" fill="white" stroke="white" stroke-width="1.33333"/>
<rect x="168.667" y="80.6667" width="132" height="40" fill="white" stroke="white" stroke-width="1.33333"/>
<rect x="148.667" y="95.3346" width="32" height="10.6667" fill="white" stroke="white" stroke-width="1.33333"/>
<rect x="288.667" y="95.3346" width="32" height="10.6667" fill="white" stroke="white" stroke-width="1.33333"/>
<rect x="168.667" y="132.667" width="132" height="40" fill="white" stroke="white" stroke-width="1.33333"/>
<rect x="148.667" y="147.335" width="32" height="10.6667" fill="white" stroke="white" stroke-width="1.33333"/>
<rect x="288.667" y="147.335" width="32" height="10.6667" fill="white" stroke="white" stroke-width="1.33333"/>
<rect x="168.667" y="184.667" width="132" height="40" fill="white" stroke="white" stroke-width="1.33333"/>
<rect x="148.667" y="199.335" width="32" height="10.6667" fill="white" stroke="white" stroke-width="1.33333"/>
<rect x="288.667" y="199.335" width="32" height="10.6667" fill="white" stroke="white" stroke-width="1.33333"/>
<rect x="168.667" y="236.667" width="132" height="40" fill="white" stroke="white" stroke-width="1.33333"/>
<rect x="148.667" y="251.335" width="32" height="10.6667" fill="white" stroke="white" stroke-width="1.33333"/>
<rect x="288.667" y="251.335" width="32" height="10.6667" fill="white" stroke="white" stroke-width="1.33333"/>
<rect x="168.667" y="288.667" width="132" height="40" fill="white" stroke="white" stroke-width="1.33333"/>
<rect x="148.667" y="303.335" width="32" height="10.6667" fill="white" stroke="white" stroke-width="1.33333"/>
<rect x="288.667" y="303.335" width="32" height="10.6667" fill="white" stroke="white" stroke-width="1.33333"/>
<rect x="168.667" y="340.667" width="132" height="40" fill="white" stroke="white" stroke-width="1.33333"/>
<rect x="148.667" y="355.335" width="32" height="10.6667" fill="white" stroke="white" stroke-width="1.33333"/>
<rect x="288.667" y="355.335" width="32" height="10.6667" fill="white" stroke="white" stroke-width="1.33333"/>
<rect x="168.667" y="392.667" width="132" height="40" fill="white" stroke="white" stroke-width="1.33333"/>
<rect x="148.667" y="407.335" width="32" height="10.6667" fill="white" stroke="white" stroke-width="1.33333"/>
<rect x="288.667" y="407.335" width="32" height="10.6667" fill="white" stroke="white" stroke-width="1.33333"/>
<rect x="222.36" y="591.335" width="196.615" height="72.6116" fill="white" stroke="white" stroke-width="1.33333"/>
<rect x="192.667" y="617.573" width="48.1538" height="20.1346" fill="white" stroke="white" stroke-width="1.33333"/>
<rect x="400.513" y="617.573" width="48.1538" height="20.1346" fill="white" stroke="white" stroke-width="1.33333"/>
<rect x="222.36" y="684.362" width="196.615" height="72.6116" fill="white" stroke="white" stroke-width="1.33333"/>
<rect x="192.667" y="710.6" width="48.1538" height="20.1346" fill="white" stroke="white" stroke-width="1.33333"/>
<rect x="400.513" y="710.6" width="48.1538" height="20.1346" fill="white" stroke="white" stroke-width="1.33333"/>
<rect x="222.36" y="777.389" width="196.615" height="72.6116" fill="white" stroke="white" stroke-width="1.33333"/>
<rect x="192.667" y="803.628" width="48.1538" height="20.1346" fill="white" stroke="white" stroke-width="1.33333"/>
<rect x="400.513" y="803.628" width="48.1538" height="20.1346" fill="white" stroke="white" stroke-width="1.33333"/>
<line x1="362.667" y1="42.0013" x2="448.167" y2="42.0013" stroke="white" stroke-width="1.33333"/>
<circle cx="362.667" cy="42.6667" r="6" fill="black" stroke="white" stroke-width="1.33333"/>
<line x1="447.333" y1="126.834" x2="447.333" y2="41.3341" stroke="white" stroke-width="1.33333"/>
<circle cx="448.001" cy="126.833" r="6" transform="rotate(-90 448.001 126.833)" fill="black" stroke="white" stroke-width="1.33333"/>
<line x1="386" y1="329.334" x2="386" y2="80.0007" stroke="white" stroke-width="1.33333"/>
<line x1="394.667" y1="446.001" x2="480.167" y2="446.001" stroke="white" stroke-width="1.33333"/>
<circle cx="394.667" cy="446.667" r="6" fill="black" stroke="white" stroke-width="1.33333"/>
<line x1="479.333" y1="530.834" x2="479.333" y2="445.334" stroke="white" stroke-width="1.33333"/>
<circle cx="480.001" cy="530.833" r="6" transform="rotate(-90 480.001 530.833)" fill="black" stroke="white" stroke-width="1.33333"/>
<line x1="479.333" y1="786.668" x2="479.333" y2="537.335" stroke="white" stroke-width="1.33333"/>
<circle cx="386.667" cy="333.333" r="6" transform="rotate(-90 386.667 333.333)" fill="black" stroke="white" stroke-width="1.33333"/>
<path d="M352 484.668H222.667" stroke="white" stroke-width="1.33333"/>
<circle cx="356.001" cy="485.333" r="6" transform="rotate(-90 356.001 485.333)" fill="black" stroke="white" stroke-width="1.33333"/>
<path d="M202.667 554H332" stroke="white" stroke-width="1.33333"/>
<circle cx="6.66667" cy="6.66667" r="6" transform="matrix(0 -1 -1 0 205.334 561.334)" fill="black" stroke="white" stroke-width="1.33333"/>
<path d="M458 396.001V266.668" stroke="white" stroke-width="1.33333"/>
<path d="M384 400H450.667" stroke="white" stroke-width="1.33333"/>
<circle cx="457.334" cy="400.001" r="6" fill="black" stroke="white" stroke-width="1.33333"/>
<path d="M170 466.667L170 596" stroke="white" stroke-width="1.33333"/>
<path d="M244.001 462.668H177.334" stroke="white" stroke-width="1.33333"/>
<circle cx="170.667" cy="462.667" r="6" transform="rotate(180 170.667 462.667)" fill="black" stroke="white" stroke-width="1.33333"/>
<line x1="234" y1="410.691" x2="234" y2="61.3352" stroke="white" stroke-width="1.33333"/>
<line x1="320.667" y1="824" x2="320.667" y2="408" stroke="white" stroke-width="1.33333"/>
<rect y="222.668" width="140" height="72" fill="#D9D9D9"/>
<rect y="560" width="140" height="72" fill="#D9D9D9"/>
</svg>
