<svg width="2500" height="1420" viewBox="0 0 2500 1420" fill="none" xmlns="http://www.w3.org/2000/svg">
<path d="M94.6665 108.666V57.333H127.333V61.333H132V70.9997V77.9997V90.6663V99.333H127.333V104H118V108.666H94.6665ZM104 99.333H118.667V93.6663H124.333H127.333V77.9997V65.9997H122.667V61.333H99.3332V70.9997H104V84.6663V99.333Z" fill="black"/>
<path d="M788 330V274H806.667V278.667H820.667V288H825.333V295.333V308V316.667H820.667V325.333H811.333V330H788ZM792.667 320.667H816V311H820.667V292.667H816V288H811.333V283.333H792.667V288.333V296.667V320.667Z" fill="black"/>
<path d="M985.333 330.666V278.666H1000.67H1018.67V287.999H1023.33V320.666H1018.67V325.999H1014V330.666H1008.67H985.333ZM990 321.333H994.667V325.333H1009.33V321.333H1013.33V311.666H1018L1018.67 287.999H1009.33V283.333H995.333V288.999H990V297.333V321.333Z" fill="black"/>
<path d="M613.333 104V52H646V56H650.667V65.6667V71.3333H655.333V85.3333H650.667V99.3333H646H641.333V104H613.333ZM622.667 99.3333H641.333V94.6667H646V88.3333V66H641.333V61.3333H636.667V56H622.667V65.6667V79.3333V99.3333Z" fill="black"/>
<path d="M1970.67 401.333V349.333H1994.67V354H1999.33V358.666H2004V392H1999.33V401.333H1989.93V406H1975.33V401.333H1970.67ZM1980.67 396H1994.67V392H1999.33V363.333H1994.67V358.666H1976V363.333H1980.67V396Z" fill="black"/>
<path d="M1914.67 717.333V665.333H1942.67V669.333H1947.33V674.666H1952V684.666H1956.67V698.666H1952V712.666H1942.67V708V717.333H1914.67ZM1918.67 708H1942.67V693.333H1947.33V684H1942.67V674.666H1928.67V669.333H1918.67V708Z" fill="black"/>
<path d="M56.7212 104.666V94.6663H40.0001L40 75.9521H45.5737V69.5235H51.1475V63.0949H56.7212V57.333H67.0163L66.5573 90.6663H71.6829V94.6663H66.5573V104.666H56.7212ZM51.1475 82.3806H56.7212H62.295V69.5235H56.7212V75.9521H51.1475V82.3806Z" fill="black"/>
<path d="M0 101V94.5714H11.3333V68.8571H5.66667V62.4286H11.3333V56H22.6667V94.5714H34V101H0Z" fill="black"/>
<path d="M156 104V96.3333V90.6667V66.6667H151.333V62.3333H156V56.6667H160.667V52H166V90.6667V93.3333V97.3333V104H156Z" fill="black"/>
<path d="M2013.33 179.333V128H2046V132H2050.67V146.667H2056V161.333H2050.67V170H2046V174.667H2041.33V179.333H2013.33ZM2022.67 174.667H2036.67V170H2042V164.333H2046V141.667H2041.33V136.667H2036.67V132H2022.67V146.667H2018V151.333H2022.67V174.667Z" fill="black"/>
<path d="M2074 180V172.333V166.667V142.667H2069.33V132.667H2074V128H2078.67H2084V166.667V169.333V173.333V180H2074Z" fill="black"/>
<path d="M1325.33 707.999V650.666H1348.67V655.999H1353.33V665.575H1358V693.333H1353.33V702.666H1344V707.999H1325.33ZM1330 697.999H1348.67V687.999H1353.33V669.333H1348.67V660.121H1330V665.575V697.999Z" fill="black"/>
<path d="M1626.67 702.666V650.666H1645.33V655.333H1650H1655.33V697.999H1650.67V702.666H1626.67ZM1631.33 697.999H1645.33V693.333H1650.67V660.121H1645.33V655.333H1631.33V697.999Z" fill="black"/>
<path d="M1428.67 707.333V669.999H1424V665.333H1419.33V660.999H1424V655.333H1428.67V650.666H1434V707.333H1428.67Z" fill="black"/>
<path d="M2158.67 858V820.666H2154V816H2149.33V811.666H2154V806H2158.67V801.333H2164V858H2158.67Z" fill="black"/>
<path d="M2366.67 1187.33V1150H2362V1145.33H2357.33V1141H2362V1135.33H2366.67V1130.67H2372V1187.33H2366.67Z" fill="black"/>
<path d="M1768 1354V1316.67H1763.33V1310.67H1758.67V1306H1763.33V1302H1773.33V1354H1768Z" fill="black"/>
<path d="M1674 697.999V669.999V665.333H1669.33V660.999H1674V655.333H1678.67V650.666H1684L1683.33 702.666H1678.67V697.999H1674Z" fill="black"/>
<path d="M1843.33 1348.67V1329.33H1848.67V1324.67H1843.33V1311.33H1834V1306H1843.33V1301.33H1853.33V1339.33H1848V1348.67H1843.33Z" fill="black"/>
<path d="M205.333 79.3327H215.333V75.3327H224.667V70.6661H229.333V65.9994H238.667V61.3327H243.333V79.9994H300V75.3327H304.667V79.9994H328V75.3327H332.667V79.9994H394V75.3327H408V79.9994H436.667V69.9994H441.333V65.3327H446V60.6661H460V65.3327H469.333V70.6661H474V79.9994H484V75.3327H549.333V28.6661H555.333V23.3327H719.333V27.9994H724V23.3327L757.333 23.3327V18.666H762V74.666H752.667V32.6661H719.333V37.3327H714.667V27.9994H710V37.3327H705.333V32.6661H691.333V37.3327H686.667V32.6661H653.333V37.3327H648.667V32.6661H592V37.3327H587.333V32.6661H582.667V37.3327H560V127.333L625.333 126.666V121.999H630V126.666H662.667V121.999H668V126.666H676.667V121.999H686.667V126.666H696V121.999H700.667V126.666H714.667V121.999H719.333V126.666H743.333V121.999H752.667V74.666H762H884.667V79.9993H932V75.3327H936.667V79.9993H946V75.3327H950.667V79.9993H955.333V75.3327H974V79.9993H983.333V75.3327H992.667V79.9993H1026V75.3327H1030.67V79.9993H1040V75.3327H1049.33V79.9993H1054.67V75.3327H1068V79.9993H1082.67V75.3327H1087.33V70.666H1092V65.9993H1096.67V61.3327H1115.33V65.9993H1120V70.666H1124.67V75.3327H1191.33V70.666H1186V65.9993H1182V61.3327H1191.33V65.3327H1196V70.666H1200.67V75.3327H1205.33V70.666H1210V65.9993H1214.67V61.3327H1219.33V56.666H1224V65.3327H1219.33V70.666H1214.67V75.3327H2388.67H2502.67V84.666H2492V79.9993H2482.67V84.666H2468.67V79.9993H2464V84.666H2417.33V79.9993H2402.67V84.666H2393.33V79.9993H2388.67V84.666H2162.67V79.9993H2157.33V84.666H2115.33V79.9993H2110.67H2105.33V84.666H2100.67V79.9993H2058.67V84.666H2054V79.9993H2044V84.666H2030.67V79.9993H2016.67V84.666H2011.33V79.9993H2002V84.666H1992.67V79.9993H1988V84.666H1978.67V79.9993H1973.33V84.666H1940.67V79.9993H1936V84.666H1926.67V79.9993H1921.33V84.666H1912V79.9993H1902.67V84.666H1898V79.9993H1893.33V84.666H1884V79.9993H1879.33V84.666H1874.67V79.9993H1860.67V84.666H1856V79.9993H1851.33V84.666H1846V79.9993H1828V84.666H1818V79.9993H1813.33V84.666H1799.33V79.9993H1738V84.666H1728.67V79.9993H1724V84.666H1718.67V79.9993H1709.33V84.666H1700V79.9993H1695.33V84.666H1690.67V79.9993H1365.33V84.666H1360.67V79.9993H1356V84.666H1351.33V79.9993H1322.67V84.666H1318V79.9993H1290V84.666H1276V79.9993H1271.33V84.666H1266.67V79.9993H1262V84.666H1257.33V79.9993H1252.67V84.666H1248V79.9993H1242.67V84.666H1219.33V93.9993H1224V98.666H1219.33V93.9993H1214.67V89.3327H1210V84.666H1200.67V89.3327H1196V93.9993H1191.33V98.666H1181.33V93.9993H1186V89.3327H1191.33V84.666H1124.67H1120V93.9993H1110.67V98.666H1106V390.666H1110.67V395.999H1106V419.333H1110.67V423.999H1106V438.666H1110.67V452.666H1106V461.999H1110.67V499.333H1106V504.666H1110.67V612.666H1120V617.333H1124.67V640.666H1120V645.333H1115.33V649.999H1110.67V763.333H1162.67V772.666H1054.67V763.333H1106V649.999H1101.33V645.333H1092V635.999H1087.33H1063.33H1059.33V640.666H1054.67V645.333H1050V649.999H1045.33V654.666H1040.67V659.999H1035.33V664.666H1030.67V669.333H1026.67V674.666H1021.33V678.666H1016.67V683.333H1012V687.999H1007.33V692.666H1002.67V697.333H998V701.999H993.333V706.666H988.667V711.999H983.333V716.666H978.667V720.666H974V725.333H969.333V730.666H964.667V735.333H960V739.999H955.333V744.666H950.667V749.333H946V753.999H941.333V758.666H936.667V763.333H932V767.999H927.333V772.666H922.667V777.333H917.333V781.999H912.667V787.333H908H903.333V781.999H898.667V777.333H894V772.666H889.333V767.999H884.667V763.333H880V758.666H875.333V753.999H870.667V749.333H866V739.999H860.667V735.333H851.333V725.999H842V721.333H837.333V711.333H828V701.999H818.667V697.333H814V692.666H809.333V687.999H804.667V678.666H800V673.999H795.333H790V669.333H785.333V664.666H780.667V659.333H776V654.666H771.333V649.999H766.667V645.333H762V635.999H752.667V631.333H714.667V664.666H710V668.666H705.333H700.667V593.999H705.333V589.333H710V593.999H714.667L715.333 626.666H752.667V621.999H757.333V617.333H762V612.666H766.667V607.999H776V598.666H785.333V589.333H790V583.999H795.333V579.999H800V575.333H804.667V569.999H814V560.666H818.667V555.999H823.333V551.333H828V546.666H832.667V541.999H837.333V537.333H842V532.666H846.667V527.999H851.333V523.333H856V518.666H860.667V513.999H865.333V508.666H870.667V503.999H884.667V494.666H889.333V485.333H898.667H903.333V480.666H898.667V475.999H903.333V471.333V433.999L870.667 433.333V423.999H865.333H828H809.333H797.333H743.333H681.333H611.088V428.666H606.667V508.666H601.333V551.333H592V555.999H587.333V560.666V565.333H582.667V583.999H587.333V588.666H592V593.333H587.333V598.666H582.667V603.333V621.999H587.333V626.666H592V631.333H587.333V635.999H582.667V659.999H587.333V664.435H592V669.333H587.333V673.999V678.666H582.667V697.333H587.333V701.999H592V706.666H596.667V711.333H606V833.999H912.667V829.333V787.333H908V829.333H616V824.666H611.088V711.333H616V701.999H611.088V697.333H596.667V678.666H601.333V673.999H616V669.333V664.435H611.088V659.999H596.667V649.999H592V645.333H596.667V640.666H601.333V635.999H611.088V631.333H616V626.666H606V621.999H596.667V617.333H592V607.999H596.667V603.333H601.333V598.666H611.088V583.999H596.667V574.666H592V569.999H596.667V565.333H601.333V560.666H611.088V508.666V433.333H696V428.666H700.667V433.333H710V428.666H714.667V433.333H724V428.666H729.333V433.333H742.667V428.666H748V433.333H772V428.666H797.333H809.333V433.333H814V428.666H828V433.333H832.667V428.666H851.333V433.333H856V428.666H870.667H908L908.667 471.333H912.667V475.999H917.333V480.666H922V485.333H926.667V489.999H932V494.666H936.667V503.999H946V509.333H950.667V518.666H955.333V523.333H960V527.999H964.667V532.666H969.333V537.333H974V541.999H978.667V546.666H983.333V551.333H988V555.999H992.667V560.666H997.333V565.333H1002V569.999H1006.67V574.666H1012V579.333H1016.67V583.999H1021.33V589.333H1026V593.999H1030.67V598.666H1035.33V602.666H1040V607.999H1044.67V612.666H1049.33V617.333H1054V621.999H1063.33V626.666H1045.33V621.999H1040V617.333H1030.67V612.666H1026V607.999H1021.33V598.666H1016.67V593.999H1012V589.333H1007.33V583.999H1002.67V579.333H998V574.666H993.333V569.999H988V565.333H983.333V560.666H978.667V555.999H974V551.333H969.333V546.666H964.667V541.999H960V537.333H955.333V532.666H950.667V527.999H941.333V523.333H936.667V518.666H932V509.333H926.667V503.999H922V499.333H917.333V494.666H912.667V489.999H903.333V494.666H898.667V499.333H894V503.999H889.333V508.666H884.667V513.333H880V517.999H875.333V523.333H865.333V532.666H861.333V537.333H856V541.999H846.667V546.666H842V555.999H837.333V560.666H832.667V565.333H828V569.999H823.333V574.666H818.667V579.333H814V583.999H809.333V589.333H804.667V593.999H800V597.999H795.333V603.333H790V607.999H785.333V612.666H780.667V617.333H776V621.999H771.333V626.666H766.667V631.333H771.333V635.999H776V640.666H780.667V645.333H785.333V650.666H790V655.333H794.667V659.999H799.333V664.666H804.667V669.333H809.333V673.999H814V678.666H818.667V683.333H823.333V687.999H828V692.666H832.667V697.333H837.333V701.999H842V706.666H846.667V711.333H851.333V715.999H856V721.333H860.667V725.999H866V730.666H870.667V735.333H875.333V739.999H880V744.666H884.667V749.333H889.333V753.999H894V758.666H898.667V763.333H903.333V768.666H908V772.666H913.333V768.666H918V763.333H922.667V758.666H927.333V748.666H936.667V739.333H941.333V735.333H946V730.666H950.667V725.333H955.333V720.666H960V715.999H964.667V711.333H969.333V706.666H974V701.999H978.667V697.333H983.333V692.666H988.667V687.999H993.333V683.333H998V678.666H1002.67V673.999H1007.33V669.333H1012V664.666H1016.67V659.999H1021.33V654.666H1026V649.999H1030.67V645.333H1035.33V640.666H1040.67V635.999H1045.33V626.666H1063.33H1087.33V621.999H1092.32V617.333H1096.67V612.666H1101.33V603.333H1106V598.666H1101.33V584.666H1106V579.999H1101.33V98.666H1096.67V93.9993H1092V89.3327H1087.33V84.666H931.659H870.667V79.9993H762V131.999H757.333V136.666H748V131.999H743.333V136.666H710V131.999H705.333V136.666H668V131.999H662.667V136.666L658 136.666V141.333V273.333H620.667V282.666H625.333V287.333H634.667V282.666H639.333V287.333H658V282.666H667.333V287.333H677.333V282.666H682V287.333H691.333V282.666H696V277.999H691.333V273.333H653.333V136.666H649.333V131.333H644V136.666H606.667H560H549.333V84.6661H474V89.3327H469.333V93.9994H464.667V98.6661H460.667V159.999H512V173.999H399.333V159.999H450.667V98.6661H446V93.9994H441.333V84.6661H243.333V98.6661H238.667V93.9994H229.333V89.3327H220V84.6661H205.333V79.3327Z" fill="black"/>
<path d="M205.333 79.3327H215.333V75.3327H224.667V70.6661H229.333V65.9994H238.667V61.3327H243.333V79.9994H300V75.3327H304.667V79.9994H328V75.3327H332.667V79.9994H394V75.3327H408V79.9994H436.667V69.9994H441.333V65.3327H446V60.6661H460V65.3327H469.333V70.6661H474V79.9994H484V75.3327H549.333V28.6661H555.333V23.3327H719.333V27.9994H724V23.3327L757.333 23.3327V18.666H762V74.666H752.667V32.6661H719.333V37.3327H714.667V27.9994H710V37.3327H705.333V32.6661H691.333V37.3327H686.667V32.6661H653.333V37.3327H648.667V32.6661H592V37.3327H587.333V32.6661H582.667V37.3327H560V127.333L625.333 126.666V121.999H630V126.666H662.667V121.999H668V126.666H676.667V121.999H686.667V126.666H696V121.999H700.667V126.666H714.667V121.999H719.333V126.666H743.333V121.999H752.667V74.666H762H884.667V79.9993H932V75.3327H936.667V79.9993H946V75.3327H950.667V79.9993H955.333V75.3327H974V79.9993H983.333V75.3327H992.667V79.9993H1026V75.3327H1030.67V79.9993H1040V75.3327H1049.33V79.9993H1054.67V75.3327H1068V79.9993H1082.67V75.3327H1087.33V70.666H1092V65.9993H1096.67V61.3327H1115.33V65.9993H1120V70.666H1124.67V75.3327H1191.33V70.666H1186V65.9993H1182V61.3327H1191.33V65.3327H1196V70.666H1200.67V75.3327H1205.33V70.666H1210V65.9993H1214.67V61.3327H1219.33V56.666H1224V65.3327H1219.33V70.666H1214.67V75.3327H2388.67H2502.67V84.666H2492V79.9993H2482.67V84.666H2468.67V79.9993H2464V84.666H2417.33V79.9993H2402.67V84.666H2393.33V79.9993H2388.67V84.666H2162.67V79.9993H2157.33V84.666H2115.33V79.9993H2110.67H2105.33V84.666H2100.67V79.9993H2058.67V84.666H2054V79.9993H2044V84.666H2030.67V79.9993H2016.67V84.666H2011.33V79.9993H2002V84.666H1992.67V79.9993H1988V84.666H1978.67V79.9993H1973.33V84.666H1940.67V79.9993H1936V84.666H1926.67V79.9993H1921.33V84.666H1912V79.9993H1902.67V84.666H1898V79.9993H1893.33V84.666H1884V79.9993H1879.33V84.666H1874.67V79.9993H1860.67V84.666H1856V79.9993H1851.33V84.666H1846V79.9993H1828V84.666H1818V79.9993H1813.33V84.666H1799.33V79.9993H1738V84.666H1728.67V79.9993H1724V84.666H1718.67V79.9993H1709.33V84.666H1700V79.9993H1695.33V84.666H1690.67V79.9993H1365.33V84.666H1360.67V79.9993H1356V84.666H1351.33V79.9993H1322.67V84.666H1318V79.9993H1290V84.666H1276V79.9993H1271.33V84.666H1266.67V79.9993H1262V84.666H1257.33V79.9993H1252.67V84.666H1248V79.9993H1242.67V84.666H1219.33V93.9993H1224V98.666H1219.33V93.9993H1214.67V89.3327H1210V84.666H1200.67V89.3327H1196V93.9993H1191.33V98.666H1181.33V93.9993H1186V89.3327H1191.33V84.666H1124.67H1120V93.9993H1110.67V98.666H1106V390.666H1110.67V395.999H1106V419.333H1110.67V423.999H1106V438.666H1110.67V452.666H1106V461.999H1110.67V499.333H1106V504.666H1110.67V612.666H1120V617.333H1124.67V640.666H1120V645.333H1115.33V649.999H1110.67V763.333H1162.67V772.666H1054.67V763.333H1106V649.999H1101.33V645.333H1092V635.999H1087.33H1063.33H1059.33V640.666H1054.67V645.333H1050V649.999H1045.33V654.666H1040.67V659.999H1035.33V664.666H1030.67V669.333H1026.67V674.666H1021.33V678.666H1016.67V683.333H1012V687.999H1007.33V692.666H1002.67V697.333H998V701.999H993.333V706.666H988.667V711.999H983.333V716.666H978.667V720.666H974V725.333H969.333V730.666H964.667V735.333H960V739.999H955.333V744.666H950.667V749.333H946V753.999H941.333V758.666H936.667V763.333H932V767.999H927.333V772.666H922.667V777.333H917.333V781.999H912.667V787.333H908H903.333V781.999H898.667V777.333H894V772.666H889.333V767.999H884.667V763.333H880V758.666H875.333V753.999H870.667V749.333H866V739.999H860.667V735.333H851.333V725.999H842V721.333H837.333V711.333H828V701.999H818.667V697.333H814V692.666H809.333V687.999H804.667V678.666H800V673.999H795.333H790V669.333H785.333V664.666H780.667V659.333H776V654.666H771.333V649.999H766.667V645.333H762V635.999H752.667V631.333H714.667V664.666H710V668.666H705.333H700.667V593.999H705.333V589.333H710V593.999H714.667L715.333 626.666H752.667V621.999H757.333V617.333H762V612.666H766.667V607.999H776V598.666H785.333V589.333H790V583.999H795.333V579.999H800V575.333H804.667V569.999H814V560.666H818.667V555.999H823.333V551.333H828V546.666H832.667V541.999H837.333V537.333H842V532.666H846.667V527.999H851.333V523.333H856V518.666H860.667V513.999H865.333V508.666H870.667V503.999H884.667V494.666H889.333V485.333H898.667H903.333V480.666H898.667V475.999H903.333V471.333V433.999L870.667 433.333V423.999H865.333H828H809.333H797.333H743.333H681.333H611.088V428.666H606.667V508.666H601.333V551.333H592V555.999H587.333V560.666V565.333H582.667V583.999H587.333V588.666H592V593.333H587.333V598.666H582.667V603.333V621.999H587.333V626.666H592V631.333H587.333V635.999H582.667V659.999H587.333V664.435H592V669.333H587.333V673.999V678.666H582.667V697.333H587.333V701.999H592V706.666H596.667V711.333H606V833.999H912.667V829.333V787.333H908V829.333H616V824.666H611.088V711.333H616V701.999H611.088V697.333H596.667V678.666H601.333V673.999H616V669.333V664.435H611.088V659.999H596.667V649.999H592V645.333H596.667V640.666H601.333V635.999H611.088V631.333H616V626.666H606V621.999H596.667V617.333H592V607.999H596.667V603.333H601.333V598.666H611.088V583.999H596.667V574.666H592V569.999H596.667V565.333H601.333V560.666H611.088V508.666V433.333H696V428.666H700.667V433.333H710V428.666H714.667V433.333H724V428.666H729.333V433.333H742.667V428.666H748V433.333H772V428.666H797.333H809.333V433.333H814V428.666H828V433.333H832.667V428.666H851.333V433.333H856V428.666H870.667H908L908.667 471.333H912.667V475.999H917.333V480.666H922V485.333H926.667V489.999H932V494.666H936.667V503.999H946V509.333H950.667V518.666H955.333V523.333H960V527.999H964.667V532.666H969.333V537.333H974V541.999H978.667V546.666H983.333V551.333H988V555.999H992.667V560.666H997.333V565.333H1002V569.999H1006.67V574.666H1012V579.333H1016.67V583.999H1021.33V589.333H1026V593.999H1030.67V598.666H1035.33V602.666H1040V607.999H1044.67V612.666H1049.33V617.333H1054V621.999H1063.33V626.666H1045.33V621.999H1040V617.333H1030.67V612.666H1026V607.999H1021.33V598.666H1016.67V593.999H1012V589.333H1007.33V583.999H1002.67V579.333H998V574.666H993.333V569.999H988V565.333H983.333V560.666H978.667V555.999H974V551.333H969.333V546.666H964.667V541.999H960V537.333H955.333V532.666H950.667V527.999H941.333V523.333H936.667V518.666H932V509.333H926.667V503.999H922V499.333H917.333V494.666H912.667V489.999H903.333V494.666H898.667V499.333H894V503.999H889.333V508.666H884.667V513.333H880V517.999H875.333V523.333H865.333V532.666H861.333V537.333H856V541.999H846.667V546.666H842V555.999H837.333V560.666H832.667V565.333H828V569.999H823.333V574.666H818.667V579.333H814V583.999H809.333V589.333H804.667V593.999H800V597.999H795.333V603.333H790V607.999H785.333V612.666H780.667V617.333H776V621.999H771.333V626.666H766.667V631.333H771.333V635.999H776V640.666H780.667V645.333H785.333V650.666H790V655.333H794.667V659.999H799.333V664.666H804.667V669.333H809.333V673.999H814V678.666H818.667V683.333H823.333V687.999H828V692.666H832.667V697.333H837.333V701.999H842V706.666H846.667V711.333H851.333V715.999H856V721.333H860.667V725.999H866V730.666H870.667V735.333H875.333V739.999H880V744.666H884.667V749.333H889.333V753.999H894V758.666H898.667V763.333H903.333V768.666H908V772.666H913.333V768.666H918V763.333H922.667V758.666H927.333V748.666H936.667V739.333H941.333V735.333H946V730.666H950.667V725.333H955.333V720.666H960V715.999H964.667V711.333H969.333V706.666H974V701.999H978.667V697.333H983.333V692.666H988.667V687.999H993.333V683.333H998V678.666H1002.67V673.999H1007.33V669.333H1012V664.666H1016.67V659.999H1021.33V654.666H1026V649.999H1030.67V645.333H1035.33V640.666H1040.67V635.999H1045.33V626.666H1063.33H1087.33V621.999H1092.32V617.333H1096.67V612.666H1101.33V603.333H1106V598.666H1101.33V584.666H1106V579.999H1101.33V98.666H1096.67V93.9993H1092V89.3327H1087.33V84.666H931.659H870.667V79.9993H762V131.999H757.333V136.666H748V131.999H743.333V136.666H710V131.999H705.333V136.666H668V131.999H662.667V136.666L658 136.666V141.333V273.333H620.667V282.666H625.333V287.333H634.667V282.666H639.333V287.333H658V282.666H667.333V287.333H677.333V282.666H682V287.333H691.333V282.666H696V277.999H691.333V273.333H653.333V136.666H649.333V131.333H644V136.666H606.667H560H549.333V84.6661H474V89.3327H469.333V93.9994H464.667V98.6661H460.667V159.999H512V173.999H399.333V159.999H450.667V98.6661H446V93.9994H441.333V84.6661H243.333V98.6661H238.667V93.9994H229.333V89.3327H220V84.6661H205.333V79.3327Z" fill="black"/>
<path d="M636.667 599.333H641.333V655.333H636.667V599.333Z" fill="black"/>
<path d="M1339.33 325.333V334.666H1268.67V330H1264V325.333H1339.33Z" fill="black"/>
<path d="M1145.33 184H1150.67V174.666H1636V123.333H1645.33V174.666L1646 208H1650.67V212.666H1646V226.666H1650.67V231.333H1646V236H1636V184H1631.33V179.333H1556V184H1551.33V179.333H1528V184H1523.33V179.333H1514V184H1509.33V179.333H1504V184H1480.67V180H1476V184H1155.33V311.333H1160V316H1169.33V326H1235.33V297.333H1244.67V311.333V326V335.333V344.666H1249.33V349.333H1244.67H1282.67H1334V344.666H1339.33V349.333H1362.67V344.666H1358V340H1362.67V330H1358V320.666H1362.67V311.333H1244.67V297.333H1362.67H1372V326H1377.33H1382H1508.67V349.333V457.729H1514V462.388H1518.67V467.333H1523.33V472H1528V476.666H1537.33V472H1542V476.666H1546.67V472H1551.33V476.666H1579.33V472H1584.67V476.666H1598.67V472H1603.33V481.333H1584.67H1546.67H1542H1537.33H1528H1523.33V490.666H1518.67V495.333H1508.67V575.333H1598.67V570.666H1603.33V462.388H1598.67V453.333H1603.33V448H1598.67V443.333H1603.33V434H1598.67V424.666H1603.33V420H1608V424.666H1612.67V420H1688V424.666H1763.33V457.333H1768V462.666H1773.33V467.333H1778V472H1782.67V476.666H1834V472H1838.67V462.666H1848.67V457.333H1852.67V189.333H1848V184H1688V179.333H1674V184H1669.33V188.666H1674V193.333H1669.33V198.666H1674V212.666H1669.33V217.333H1674V236H1664.67V231.333H1660V184V170V123.333H1669.33V146.666H1674V151.333H1669.33V170H1674V174.666H1858V457.333H1862.67V462.666H1867.33V467.333H1872V472V481.333V490.666H1867.33V495.333H1862.67V504.666H1858V575.561H1867.33H1876.67H1890.67H1947.33V514H1952V486H1947.33V481.333H1876.67H1872V472H1876.67V476.666H1947.33V472H1952V467.333H1947.33V458H1952V452.666H1947.33V434H1952V424.666H1961.33H2108V434V457.333H2117.33V462.666H2122V467.333V472H2126.67V476.666H2197.33H2230V486H2234.67V509.333H2277.33V495.333H2272.67V500H2249.33V495.333H2244.67V486V462.485H2357.33V500H2348V495.333H2343.33V500H2329.33H2277.33V509.333H2296V514H2301.33V509.333H2329.33V514H2334V509.333H2343.33H2357.33L2371.33 510V481.333H2385.33V486H2395.33V481.333H2409.33V490.666H2414V504.666H2418.67V518.666H2423.33V524H2428.67V528.666H2433.33V533.333H2438H2442.67V538H2447.33H2452V542.666H2461.33H2466V547.333H2489.33V542.666H2500V538V533.333H2494.67V538H2489.33H2461.33V533.333H2447.33V528.666H2442.67V524H2438V518.666H2433.33V514H2428.67V509.333H2423.33V500H2418.67V490.666V486H2428.67V481.333H2433.33V486H2447.33V490.666H2442.67V495.333H2447.33V518.666H2456.67V504.666H2461.33H2466V509.333H2470.67V514H2475.33V518.666H2470.67V523.333H2475.33H2480L2480.13 528.666H2498.98V533.333H2500V528.666V523.333H2498.98V518.666H2494.67V509.333H2490V500H2484.67V509.333H2480V504.666H2475.33V500H2466V495.333H2461.33V490.666H2456.67V486V467.333H2461.33V462.666H2470.67V457.666H2475.33V452.833H2480.13L2480.07 448.083H2489.33V443.333H2494V438.666H2499.33V434H2500V429.333H2494V434H2489.33V438.666H2480V443.333H2475.33V448H2470.67V452.666H2461.33H2456.67V438.666H2447.33V476.666H2418.67V462V457.333H2423.33V452.666V448H2428V443.333H2432.67V438.666H2438V434H2442.67V429.333H2452V424.666H2466V420H2494V424.666H2498.67V429.333H2500V415.333H2475.33V410.666H2470.67V415.333H2466H2456.67V420H2452H2447.33V424.666H2442.67H2438V429.333H2432.67V434H2428V438.666H2423.33V443.333H2418.67V452.666H2414V462H2409.33V476.666H2371.33V462.485V448H2244.67H2234.67V472H2230V481.333H2225.33V486H2220.67V481.333H2216V486H2211.33V481.333H2197.33V486H2192.67V481.333H2188V486H2183.33V481.333H2178.67V486H2174V481.333H2160V486H2150V481.333H2126.67V486H2122V495.333H2117.33V500H2112.67V514H2108V636.666H1952V632H1947.33V627.333H1952V622.666H1947.33V580.666H1961.33V622.666H2098V500H2093.33V495.333H2088.67V490.666H2084V467.333H2088.67V486H2093.33V490.666H2098V495.333H2112.67V486H2117.33V467.333H2112V462.666H2108H2098V467.333H2088.67V457.333H2098V434H1961.33V514V575.561V580.666H1947.33H1938V585.333H1900V580.666H1890.67V585.333H1876.67V580.666H1867.33V585.333H1858V580.666H1853.33V495.333H1844V490.666H1838.67V486H1834V481.333H1820V486H1815.33V481.333H1782.67H1778V486H1772.67V495.333H1768.25V500H1763.33H1749.33H1744.67V495.333H1740V490.666H1735.33V467.333H1740V457.333H1749.33V467.333H1744.67V472H1740V486H1744.67V490.666H1749.33V495.333H1763.33V490.666H1768.25V486V481.333H1773.33V476.666H1768V467.333H1763.33V462.666H1749.33V457.333V434H1612.67V584.666V622.666H1622H1749.33V500H1763.33V518.666H1759.33V528H1763.33V542.666H1758.67V552H1763.33V575.333H1758.67V580H1763.33V632H1758.67V636.666H1688V632H1650.67V636.666H1646V632H1640.67V636.666H1636V632H1622V636.666H1612.67H1603.33V584.666H1598.67V580.666H1508.67H1504V495.333H1494.67V490.666H1490V481.333H1428.67V486H1424V495.333H1419.33V500H1414.67H1400.67H1396V495.333H1390.67V490.666H1386V486V481.263H1381.33V476.527H1386V462.666H1390.67H1395.64V467.333H1390.67V476.527V486H1395.64V490.666H1400.67V495.333H1414.67V490.666H1419.33V467.333H1414.67V462.666H1400.67H1395.64V458H1400.67V434L1259.33 434.666V500H1264V504.666H1259.33V514H1264V519.333H1259.33V524H1264V528.666H1259.33V538H1264V542.666H1259.33V552H1264V557.333H1259.33V575.333H1264V622.666H1400.67V613.333V500H1410V613.333H1414.67V632H1410V636.666H1264H1249.33V585.333H1174H1164.67H1155.33V580.333H1150.67V575.333V556.666V538V500H1146V495.333H1141.33V490.666H1136.67V482V467.333H1146V462.666H1150.67V457.333V349.333H1155.33V457.333H1160V462.666H1169.33V472H1174V476.666H1244.67V472H1249.33V481.333H1240V486H1216.67H1212V481.333H1207.33V486H1174H1169.33V495.333H1160V500H1155.33V509.333H1160V514H1155.33V538H1160V552H1155.33V556.666H1160V575.333H1164.67V580.333H1174V575.333H1249.33V540V500V481.333V472V434.666V424.666H1400.67H1410V458H1414.67H1419.33V462.666H1424V472H1428.67V476.527H1490V462.388H1499.57V457.729H1504V358.666H1499.33V349.333H1504V344.666H1499.33V340H1504V335.333H1499.33V330H1405.33V335.333H1396V330H1386.67V335.333H1382V330H1377.33V335.333H1372V358.666H1301.33V363.333H1296.67V358.666H1282.67V363.333H1278V358.666H1244.67H1235.33V335.333H1169.33L1169.33 344.666H1160V349.333H1146V344.666H1141.07V340H1136V316H1141.07V311.333H1150.67V278.666H1146V274H1150.67V269.333H1146L1145.33 184Z" fill="black"/>
<path d="M420 377.333H410.667V382H400.667V386.666H391.333V392H382V396.666H372.667V401.333H358.667V406H349.333V410.666H340V415.333H330V420H320.667V424.666H311.333V429.333H231.333V424.666H226.667V420H222V419.333H217.333V424.666H222V434H217.333V443.333H207.333V448H198V443.333H193.333V438.666H188.667V424.666H193.333V419.333H198.667V415.333H212.667V419.333H217.333H222V415.333H217.333V410.666H193.333V415.333H188.667V420H184V438.666V443.333H188.667V448H193.333V453.333H207.333H217.333V448H222V443.333H226.667V434H316V429.333H330V424.666H340V420H349.333V415.333H358.667V410.666H368V406H377.333V401.333H386.667V396.666H396V392H405.333V386.666H415.333V382.666H420V377.333Z" fill="black"/>
<path d="M452.667 184H457.333V188.667H481.333V184H490.667V188.667H495.333V184H504.667V188.667H509.333V198.667L458 198L457.333 274H414.667V283.333H420V288H490.667L490.486 274H452.667V254.667H448V231.333H452.667V226.667H448V222H452.667V212H448V198.667H396V188.667H448H452.667V184Z" fill="black"/>
<path d="M466.667 608.666H476.667V613.333H472V617.999H476.667V632.666V655.333H466.667V608.666Z" fill="black"/>
<path d="M552 552H556.667V556.667H561.333V707.333H556.667V702.667H547.333V556.667H552V552Z" fill="black"/>
<path d="M656 604H660V655.333H656V604Z" fill="black"/>
<path d="M2394.67 1230.67L2395.33 1240H2329.33V1244.67H2320V1230.67H2394.67Z" fill="black"/>
<path d="M1316 457.333H1320V452.666H1339.33V457.333H1325.33V466.666V471.999H1330V467.333H1334.67V457.333H1339.33V471.999H1334.67V481.333H1330H1320V485.999H1315.33V495.333H1320.67V499.999H1334.67V495.333H1339.33V490.666H1334.67V485.999H1330V481.333H1334.67H1339.33V485.999H1344V481.333H1348.67V499.999H1353.33V504.666H1348.67V499.999H1339.33V504.666H1315.33V499.999H1310.67V481.333H1315.33V476.666H1320.67V466.666H1316V457.333Z" fill="black"/>
<path d="M2014.67 456.667H2018.67V452H2038V456.667H2024V466V471.333H2028.67V466.667H2033.33V456.667H2038V471.333H2033.33V480.667H2028.67H2018.67V485.333H2014V494.667H2019.33V499.333H2033.33V494.667H2038V490H2033.33V485.333H2028.67V480.667H2033.33H2038V485.333H2042.67V480.667H2047.33V499.333H2052V504H2047.33V499.333H2038V504H2014V499.333H2009.33V480.667H2014V476H2019.33V466H2014.67V456.667Z" fill="black"/>
<path d="M1669.33 452.667H1673.33V448H1692.67V452.667H1678.67V462V467.333H1683.33V462.667H1688V452.667H1692.67V467.333H1688V476.667H1683.33H1673.33V481.333H1668.67V490.667H1674V495.333H1688V490.667H1692.67V486H1688V481.333H1683.33V476.667H1688H1692.67V481.333H1697.33V476.667H1702V495.333H1706.67V500H1702V495.333H1692.67V500H1668.67V495.333H1664V476.667H1668.67V472H1674V462H1669.33V452.667Z" fill="black"/>
<path d="M920 306.666V315.999H914.667V311.333H900.667V315.999H891.333V311.333H886.667V306.666H920Z" fill="black"/>
<path d="M844 1098.67H848.667V1118H844V1098.67Z" fill="black"/>
<path d="M1692.67 1070.67H1702.67V1075.33H1707.33V1084.67H1711.33V1075.33H1716V1070.67H1726V1084.67H1716V1098.67H1702.67V1089.33H1697.67V1080H1692.67V1070.67Z" fill="black"/>
<path d="M1692.67 1226H1706.67V1230.67H1707.33V1235.33H1711.33H1716V1230.67V1226H1726V1236H1721.33V1245.33H1716.67V1250H1706.67V1245.33H1702V1235.33H1697.67V1230.86H1692.67V1226Z" fill="black"/>
<path d="M1669.33 924H1683.33V929.333H1688V924H1740V929.333H1744.67V938.667H1688V934H1683.33V938.667H1669.33V924Z" fill="black"/>
<path d="M2390.67 674.666H2400V683.999H2409.33V688.666H2400V702.666H2395.33V697.999H2390.67V688.666H2381.33V683.999H2390.67V674.666Z" fill="black"/>
<path d="M938.667 580H948V627.333H980.667V632H976V636.667H948V680H938.667V636.667H929.333V641.333H924V646H915.333L910 627.333H914.667V622.667H910V618H900.667V613.333H891.333V608.667H882V604H872.667V627.333H910V636.667H872.667V660.667H877.333V655.333H886.667V650.667H896V646H905.333V641.333H910V627.333L915.333 646V651H905.333V656H900.667V660.667H891.333V665.333H882V670H877.333V674.667H868V679.333H862.667V632H858H853.333H830V627.333H853.333V622.667H858V627.333H862.667V580H868V584.667H872.667V590H882V594.667H886.667V599.333H891.333H896V604H900.667H905.333V608.667H910V613.333H919.333V618H924V622.667H934V627.333H938.667V580Z" fill="black"/>
<path d="M1061.33 726.666H1066V735.999H1075.33V740.666H1066V749.999H1061.33V745.333H1056.67V740.666H1052V735.999H1056V731.333H1061.33V726.666Z" fill="black"/>
<path d="M1942.67 844H1933.33V834.666H1938V820.666H1942.67V811.333H1947.33V825.333H1952V834.666H1956.67V839.333H1952V844H1947.33V863.333H1942.67V844Z" fill="black"/>
<path d="M1904.67 844.667H1895.33V834.667H1900.67V825.333H1905.33V821.333V812H1910V820.667H1914.67V826V834.667H1919.33V840V844.667H1910V863.333H1904.67V844.667Z" fill="black"/>
<path d="M2296 736H2409.33V750H2357.33V877.333H2315.33V886.667H2390.67V877.333H2348V750H2302.67H2296V736Z" fill="black"/>
<path d="M1485.33 914H1494.67V919.333H1499.33V928.667H1513.33H1542V918.667H1546.67V914.667H1556V910H1565.33V914.667H1570V918.667H1574.67V923.333H1579.33V928.667H1640.94V900H1650.67H1777.33V928H1782.67H1862.43V947.333H1867.33V961.333H1872V971.333H1876.67V976H1881.33V980.667H1886V985.333H1890.67V990H1895.33H1900V994.667H1928.67V990H1933.33H1952V984.667H1961.33V980H1966.67V975.333H1971V970.805H1975.33V966H1980H1985.33V961.333H1990V947.333H1994.67V933.333H2050.67V938H2055.67V942.667H2050.67V947.333H2055.67V961.333H2050.67V966H2055.67V970.805H2050.67V975.333H2055.67V1065.33H2046.67V1070H2042V1074.67H2037.33V1079.33H1876.67V1074.67H1872V1070H1867.33V1065.33H1843.33V1079.33V1088.67V1098H1848V1103.33H1857.67V1230H1791.77V1234.82H1782.29V1230H1777.33L1768 1254H1655.33V1216H1768V1254L1777.33 1230V1216V1202H1692.67V1206.67H1688V1202H1641.33V1216H1646V1220.67H1641.33V1225.33H1646V1230H1641.33V1234.67H1636V1230H1631.33V1234.67H1566V1230V1164.67H1560.67V1160H1566V1141.33H1560.67V1132H1566V1127.08H1560.67V1113.01H1566V1108.27H1560.67V1103.52H1570V1098.67H1574.67V1089.33H1579.33H1640.67V1118H1655.33H1664.67V1112.67H1674V1118H1678.67V1112.67H1683.33V1118H1734.67V1112.67H1740V1118H1778V1089.33H1843.33V1080H1778V1051.33H1763.33V1075.33H1768V1103.33H1664.67H1655.33V1066H1763.33V1051.33H1655.33H1640.67V1080H1579.33V1075.33H1574.67V1070.67H1570V1066H1560.67V952H1556V1066H1551.33V1070.67H1546.67V1075.33H1542V1094H1546.67V1098.67H1551.33V1103.52H1556V1164.67V1230H1561V1234.67H1556V1239.33H1641.33H1646V1258.67H1640.67V1268H1778V1244.67H1782.29V1239.64H1791.77H1857.67H1862.5V1230H1867.33V1225.33H1862.5V1103.33H1867.33V1098H1876.67V1088.67H2037.33H2042V1098H2051.33V1102.67H2056V1179V1193.33H2046.67V1202.67H2051.33V1207.33H2056V1193.33V1179H2060.67H2159.33V1193.33H2131.33V1202.67H2140.67V1216.67H2145.33V1221.33H2150V1230.67H2154.67V1235.33H2211.33V1230.67H2216V1235.33H2248.67V1230.67H2254V1235.33H2258.67V1230.67H2268V1235.33H2272.67V1230.67H2277.33V1235.33H2282V1230.67H2286.67V1202.67H2300.67H2423.33V1230.67H2500V1240.67H2423.33V1268.67H2300.67V1254H2409.33V1216.67H2300.67V1254V1268.67H2286.67V1240H2150V1245.33H2121.67V1250H2126.67V1259.33H2122V1264H2126.67V1268.67H2122V1278H2126.67V1283.33H2121.67V1287.68H2126.67V1296.67H2121.67V1301.33H2126.67V1339.33H2121.67V1362.67H2126.67V1372H2131.33V1377.33H2136V1382H2140.67V1386.67H2315.33H2500V1391.33H2498.67V1396H2494V1391.33H2489.53V1396H2484.67V1391.33H2480V1396H2475.33V1391.33H2461.33V1396H2452V1391.33H2438V1396H2395.33V1391.33H2390.67V1396H2324.67V1391.33H2315.33V1396H2136V1405.33H2131.33V1410H2112.67V1405.33H2108V1400.67H2102.67V1396H2098V1391.33H2027.7V1396H2022.67V1391.33H2004V1396H1999.33V1391.33H1872V1396H1867.33V1391.33H1697.33V1396H1692.67V1391.33H1631.33V1396H1622V1391.33H1617.33V1396H1608V1391.33H1594V1396H1570V1391.33H1565.33V1396H1532.67V1391.33H1528V1396H1499.33V1410H1494.67V1405.33H1485.33V1400.67H1480.67V1396H1462V1386.67H1471.33V1382H1480.67V1377.33H1490V1372.67H1499.33V1386.67H1692.67H2102.67V1377.33H2107.33V1372H2117.33V1245.33H2093.33V1230.67H2136V1221.33H2131.33V1216.67H2126.67V1212H2122V1216.67V1230.67H2117.33V1216.67H2112.67V1226H2108V1230.67H2093.33V1226H2098V1216.67H2103.33V1202.67H2112V1193.33H2088.67H2060.67V1207.33H2065.33V1202.67H2070V1198H2074.67V1193.33H2088.67V1198H2084V1202.67H2079.33V1212H2074.67V1221.33H2070V1226H2065.33V1230.67H2093.33V1240.67H2027.33V1245.33H2022.67V1230.67H2051.33V1226H2046.67V1216.67H2041.33V1207.33H2036.67V1202.67H2032V1193.33H2027.33V1184H2032V1179H2060.67V1102.67H2065.33V1098H2070V1093.33H2074.67V1074.67H2070V1065.33H2060.67V933.333V928H1994.67V919.333H1990V900H1985.33V890.667H1980.67V886H1975.33V881.333H1970.67V876.667H1966H1961.33V872H1956.67H1952V867.333H1947.33H1938V862H1919.17V867.333H1904.9V872H1895.33V876.667H1890.67V881.333H1886V886H1895.33V881.333H1900V876.667H1910V872H1947.33V876.667H1956.67V881.333H1966V890.667H1975.33V900H1980.67V904.667H1985.33V919.333V933V956.667H1980V975.333H1975.33V980H1971V985H1966.67V990H1956.67V994.667H1933.33V999.333H1928.67V990H1909.33V985.25H1895.33V980.5H1890.67V975.667H1886V970.667H1881.33V966H1876.67V956.667H1872V933.333H1886V938H1890.67V961.333H1895.33V966H1900.67V961.333H1909.33V956.667H1919.33V952H1928.67V947.333H1938V942.667H1942.67V938H1952V970.805H1961.33V938H1966V933H1985.33V928H1966H1961.33V890.667H1956.67V895.333H1952V924H1942.67V918.667H1933.33V914H1924V909.333H1914.67V904.667H1909.33V900H1890.67V914V919.333H1886V928H1900V914H1909.33V918.667H1914V923.333H1924V928V933.333V938H1919.33V942.667H1909.33V947.333H1900V937.667H1905.11V933.333H1924V928H1900H1872H1867.33V924H1872V909.333H1876.67V900H1881.33V895.333H1886V886H1881.33V890.667H1876.67V895.333H1872V904.667H1867.33V914H1862.43V933H1782.67V938H1777.33V952H1763.33V909.333H1758.67V914.278H1754V909.333H1749.33V914.278H1744.67V909.333H1735.33V914.278H1726V909.333H1716.67V914.278H1712V909.333H1706.67V914.278H1697.33V909.333H1692.67V914.278H1688V909.333H1650.67H1654.99V914.278H1650.67V947.333H1655.33V952H1650.67H1664.39V947.333H1669.33V952H1777.33V961.573H1650.67H1640.94V933.333H1579.33V938H1574.67V942.667H1570V947.333H1565.33V952H1551.33V947.333H1546.67V942.667H1542V938H1532.67V933.333H1528V938H1518.67V933.333H1513.33V938H1499.33H1494.67V947.333H1488H1480.67V942.667H1476V938H1462V933.333H1457.33V928.667H1471.33V924H1480.67V919.333H1485.33V914Z" fill="black"/>
<path d="M401.333 410.666H410.667V424.666H415.333V429.333H438.667V424.666H448V429.333H490.667V424.666H495.333V429.333H509.333V438.666V495.333V504.666V551.999H518.667V556.666H523.333V561.333H528V589.999H523.333V599.333H528V603.999V608.666V617.999V622.666H523.333V636.666H528V645.999H532.667V650.666H528V655.333V660.666V665.333H523.333V674.666H528V679.333V693.333V702.666H523.333V707.333H518.667V711.999H509.333V731.333V735.999V740.666V749.999V754.666V759.333V839.333H500V834.666H495.333V839.333H452.667V834.666H288V839.333H278.667V834.666H231.333V839.333H226.667V849.333H222V853.333H217.333H193.643V848.833H188.667V844.39H184.087L184 825.333H188.822V815.999H193.643H198V811.333H202.667H217.333V815.999H222V820.666H226.667V825.333H224H222H217.333V820.666H212.667V815.999H203.333V820.666H198H193.643V825.333V844.39H198V848.833H217.333V844.333H222V839.333L222 825.333H226.667L226.667 829.999H500H504.667V759.333H500V754.666H504.667V749.999H500V740.666H504.667V735.999H500V731.333V726.666H504.667V721.999H500V717.333V702.666H509.333V697.999H514V693.333H518.667V679.333H514V674.666H500V665.333H509.333V660.666H514V655.333H518.667V645.999H514V641.333H509.333V636.666H500V627.333H509.333V622.666H514V617.999H518.667V608.666H514V603.999H509.333V599.333H500V589.999H509.333V584.666H514V561.333H500V513.999H504.667V504.666H500V495.333H504.667V481.333H500V462.666H504.667V457.333H500V443.333H504.667V438.666H500V433.999H415.333H406V429.333H401.333V410.666Z" fill="black"/>
<path d="M1103.33 788H1160V796.667V802H1155.33L1155.33 796.667H1150.67V802H1108V915H1117.78V920H1122V948H1112.67V952.667H1108V976H1136.41H1141.33V980.667H1146V990.667H1070.67V976H1103.33V952.667H1098.67V948H1094V943.333H1089.33V938.667H1076H967.333V934H962V938.667H523.333H514H490.667H476.667H245.585V952.667H236V948H226.667V943.333H217.333V938.667H208V934H212.667V929.333H222V924.667H236V920H240.667V915.333H245.585V929.333H448H452.667V934H472V929.333H476.667V934H490.667V929.333H509.333V934H514V929.333H528.667V934H533.333V929.333H538V934H547.333V929.333H1089.33V924.667H1094V920H1098.67V915H1103.33L1103.33 802H1052V788H1103.33Z" fill="black"/>
<path d="M490.667 128H500V137.333H509.333V142H500V151.333H490.667V146.667H495.333V142H490.667H481.333V137.333H490.667V128Z" fill="black"/>
<path d="M1268 10H1278V24H1287.33V33.3333H1282.67V28.6667H1278V33.3333H1273.33V38H1278V42.6667H1273.33V47.3333H1268V37.3333V33.3333H1258.67V28.6667H1254.67V24H1268V10Z" fill="black"/>
<path d="M2296 711.999H2315.33H2348V683.999V575.333H2484.67V565.999H2494V561.333H2498.67V542.666H2500V561.333V599.333H2494.67V594.666H2490V589.999H2484.67V584.666H2470.67V579.999H2466V584.666H2404.67V579.999H2400V584.666H2395.33V579.999H2390.67V584.666H2352.67V599.333H2357.33V613.999H2352.67V641.333H2357.33V645.999H2352.67V650.666H2357.33V655.333H2352.67V659.999H2357.33V669.999H2352.67V683.999H2357.33V697.999H2352.67V702.666H2357.33V711.999H2409.33V726.666H2390.67V721.333H2386V726.666H2376.67V721.333H2372V726.666H2362V721.333H2352.67V726.666H2348V721.333H2344V726.666H2334V721.333H2315.33V726.666H2296V711.999Z" fill="black"/>
<path d="M2470.67 711.999V660.666H2485.33H2500V674.666H2485.33V711.999V787.595H2500V801.999H2470.67V711.999Z" fill="black"/>
<path d="M2286.67 476.667H2305.33V472H2310.67V476.667H2320V472H2324.67V476.667H2334V472H2338.67V481.333V486.667H2268V481.333H2263.33V476.667H2282V472H2286.67V476.667Z" fill="black"/>
<path d="M670 1032.67V1018.67H674.667V1014H679.333V1009.33H688.667V1004.67V999.999H693.333V995.333H688.667V990.666H684V985.999H679.333V990.666H674.667V995.333H669.333V985.333H674.667V980.666H693.333V985.333H698V990.666V1004.67H696H693.333V1009.33H688.667V1014H684V1018.67H679.333V1023.33H674.667V1028H693.333V1032.67H698V1037.33H674.667V1032.67H670Z" fill="black"/>
<path d="M1339.33 53.333V37.9997H1344V33.333H1348.67H1353.33V28.6663H1358V20.6663H1362.67V9.33301H1352H1344V19.333H1334.67V14.6663H1338.67V5.99967H1344V1.33301H1362.67V5.99967H1367.33V11.333V25.333H1365.33H1362.67V29.9997V33.333H1353.33V39.333H1348.67V43.9997H1344V47.333H1367.33V53.333V57.9997H1344H1339.33V53.333Z" fill="black"/>
<path d="M622.667 1037.33V1023.33H618V1018.67H622.667V990.666H618V985.999H622.667V980.666H646V985.666H651V990.666H656V999.999H660.667V1004V1008.67V1018.67H655.333V1028H651V1032.67H636.667V1037.33H622.667ZM627.333 1028H646V1023.33H651V1009.33H655.333V1004.67H651V995.333H646V990.666H627.333V1028Z" fill="black"/>
<path d="M103.333 962H98.666V948V943.333V915.333V910.666V905.333H103.333H122.666V910.333H131.999V915.333H136.666V924.666V929.333H141.999V938.666H137.333V943.333V952.666H132.666V957.333H122.666V962H117.333H103.333ZM103.999 952.666H126.666V948V943.333H131.666V920H126.666V915.333H108.666V920H103.999V952.666Z" fill="black"/>
<path d="M798.667 1109.67V1081.33H804.333V1075.67H808.667V1067.33H813.333V1058H818V1062.67H822.667V1076.67H824H827.333V1082.67V1086H832V1104.67H836.667V1109.67L832 1109.44V1104.67H827.333V1100H818H808.667V1104.67H803.333V1109.67H798.667ZM808.667 1090.67H822.667V1088.67V1086V1076.67H818V1072H813.333V1086H808.667V1090.67Z" fill="black"/>
<path d="M780 1090.67H770.667H766V1104.67H770.667V1109.67H780V1104.67H784.667V1090.67H789.667L789.499 1109.67H784.667V1114.67H766V1110H761.333V1086H766V1081.33H761.333V1073.67V1062.33H766V1058H784.667V1062.33H789.667V1081.33H784.667V1082.67V1086H789.667V1090.67H780ZM770.667 1076.67V1081.33H780V1076.67H784.667V1067.33H780V1062.33H784.667H770.667V1072H766V1076.67H770.667ZM770.667 1090.67H789.667H784.667H780V1086H770.667V1090.67Z" fill="black"/>
<path d="M996.667 383.333H987.333H982.667V397.333H987.333V402.333H996.667V397.333H1001.33V383.333H1006.33L1006.17 402.333H1001.33V407.333H982.667V402.667H978V397.333H973.333V383.333H978V378.667H982.667V374H978V366.333V355H982.667H996.667H1001.33V360H1006.33L1006.17 364.667H1001.33V374V375.333V378.667H1006.33V383.333H996.667ZM987.333 369.333V374H996.667V369.333V360V355H1001.33L996.667 360H982.667V364.667V369.333H987.333ZM987.333 383.333H1006.33H1001.33H996.667H987.333Z" fill="black"/>
<path d="M1920.68 430.999H1911.67H1907V449.333H1916.33V444.999H1920.68V430.999H1925.83H1930.67L1930.5 449.999H1925.67V454.666H1916.33V459.333H1911V454.666H1901.67V449.333H1897L1897.2 430.999H1901.67V421.666H1897V407.333H1902.33V402.666H1907H1921H1925.67V407.666V421.666V422.999V426.333H1930.67V430.999H1925.83H1920.68ZM1916.33 425.999V421.333H1921V416.999V407.666V402.666H1925.67L1921 407.666H1907V412.333V420.666H1911V425.999H1916.33ZM1920.68 430.999H1930.67H1925.83H1920.68Z" fill="black"/>
<path d="M714 1114.67V1057.33H718.667V1081.33H742.333V1074.33V1057.33H752V1110H742.333V1100H747.333V1095.33H742.333V1086H718.667V1114.67H714Z" fill="black"/>
<path d="M658 1189.33V1184.87H652.667V1180.41H658V1138.67H662.748V1156.67H686V1153.33V1138H690.667V1156.67V1177.33V1189.33H686V1180V1172.25V1166H662.748V1189.33H658Z" fill="black"/>
<path d="M671.667 1109.61V1057.33H704.667V1067.33H676.667V1081.33H700V1090.67H681.333V1095.33H676.667V1104.67H681.333V1109.53L704.667 1109.61V1114.39H681.333H676.377V1109.61H671.667Z" fill="black"/>
<path d="M615.333 1189.61V1138H643.667V1142.67H620.044V1156.67H629.333V1161.33H634.667V1156.67H643.667V1166H620.044V1184.67H648V1189.61H620.044H615.333Z" fill="black"/>
<path d="M634 1105V1095.33H638.667V1090.67H648V1086H652.667V1081.33H657.333V1072H652.667V1067.33H638.667V1076.67H634V1071V1062.67H638.667V1058H652.667V1062.67H662.333V1076.67V1086H657.333V1090.67H648V1095.33H643.333V1100H638.667V1105L643.333 1104.67V1109.33H662V1114.67H634V1105Z" fill="black"/>
<path d="M572.667 1180.33V1175.6H577.333V1170.67L582 1170.67V1166L586.999 1166.17L596 1170.67L586.667 1166V1161.33H591.333V1156.67H596V1147.33V1142.67H591.333H582V1147.33H577.333V1152H572.667V1146.33V1142.67H577.333V1138L591.333 1138L601 1138V1142.67H606V1156.67H601V1161.33V1166H596V1170.67H586.667V1175.6H582V1180V1184.67L606 1184.67V1190L572.667 1190V1180.33Z" fill="black"/>
<path d="M610.667 1114.67V1100.33H591.333V1086H596V1081.33H600.667V1072H605.333V1067.33H610.667V1062.67H620V1095.33H624.667V1100.33H620V1109.33H615.333V1114.67H610.667ZM596 1090.67V1095.33H610.667V1084V1076.67H605.333V1081.33H600.667V1090.67H596Z" fill="black"/>
<path d="M1690.67 1034.67V1024.67H1671.33V1020H1666.67V1015.33H1671.33V1006H1676V1001.33H1680.67V991.999H1685.33V987.333H1690.67V982.666H1700V1015.33H1704.67V1024.67H1700V1029.33V1034.67H1690.67ZM1676 1010.67V1015.33H1690.67V1004V996.666H1685.33V1001.33V1006H1680.67V1010.67H1676Z" fill="black"/>
<path d="M1744.67 1184V1174H1720.67V1169.33H1725.33V1160H1730V1150.67H1734.67V1141.33H1739.33V1136H1744.67V1132H1749.33V1155.33H1754V1170H1758.67V1174H1749.33V1184H1744.67ZM1735.33 1164.67H1744.67V1146H1740V1155.33H1735.33V1164.67Z" fill="black"/>
<path d="M2264 707.333V692.666H2240V684.666H2244.67V673.999H2249.33V669.333H2254V659.999H2258.67V654.666H2264V650.666H2268.67V673.999H2273.33V688.666H2278V692.666H2268.67V707.333H2264ZM2254 679.333H2249.33V688.666H2258.67V683.333H2264V669.333H2254V679.333Z" fill="black"/>
<path d="M554 1189.33V1180.33H534.667V1175.33H530V1166H534.667V1161.33H539.333V1152H544V1147.33H549.333V1142.67H554V1138H558.667V1142.67V1170.67H563.333H568V1175.33H563.333V1180.33H558.667V1189.33H554ZM539.333 1170.67H549.333H554V1152H549.333V1156.67H544V1161.33H539.333V1170.67Z" fill="black"/>
<path d="M1054 331.333V322.333H1034.67V317.333H1030V308H1034.67V303.333H1039.33V294H1044V289.333H1049.33V284.667H1054V280H1058.67V284.667V312.667H1063.33H1068V317.333H1063.33V322.333H1058.67V331.333H1054ZM1039.33 312.667H1049.33H1054V294H1049.33V298.667H1044V303.333H1039.33V312.667Z" fill="black"/>
<path d="M1808.67 453.999V444.999H1789.33V439.999H1784.67V430.666H1789.33V421.333H1794V416.666H1798.67V407.333H1804V402.666H1813.33V407.333V435.333H1818H1822.67V439.999H1818V444.999H1813.33V453.999H1808.67ZM1794 435.333H1804H1808.67V416.666H1804V421.333H1798.67V425.999H1794V435.333Z" fill="black"/>
<path d="M568 1100V1072H563.333V1076.67H558.333V1067.33H568V1062.67H577.333V1067.33H572.667V1076.67L577.333 1076.67V1099.33V1109.33H572.667V1114H568V1100Z" fill="black"/>
<path d="M511.667 1180V1152H507H502V1147.33H506.667V1142.67H511.667V1138H516V1143.33V1149.33V1154.67V1157.33V1184V1190H511.667V1180Z" fill="black"/>
<path d="M577.667 397.334V369.334H573H568V364.668H572.667V360.001V355.333H577.667H582V360.666V366.666V372V374.666V401.333V407.333H577.667V397.334Z" fill="black"/>
<path d="M799.667 44.6669V16.6669H795H790V11.3327H795H799.333V6.66602H804V7.99935V13.9993V19.3327V21.9993V48.666V54.666H799.667V44.6669Z" fill="black"/>
<path d="M1379.67 695.334V667.334H1375H1370V661.999H1375H1379.33V652.666H1384V658.666V664.666V669.999V672.666V699.333V709.333H1379.67V695.334Z" fill="black"/>
<path d="M2121.67 782.667V740.234H2112V735.568H2121.33V730.234H2126V750H2131.33V754.667H2126V776.901V782.667H2121.67Z" fill="black"/>
<path d="M1976.33 782.668V754.668H1971.67H1966.67V745.333H1976V740H1980.67V764H1985.33V768.667H1980.67V778H1985.33V783.333H1980.67V792.367H1976.33V782.668Z" fill="black"/>
<path d="M1252.13 719.154L1252.13 694.667H1247.24H1242V685.506H1247.24H1251.78L1251.78 680H1256.67V685.506V691.012V695.906V698.353V722.824V732H1252.13V719.154Z" fill="black"/>
<path d="M1318.33 270.001V242.001H1313.67H1308.67V236.667H1312.67V232H1318H1322.67V233.333V239.333V244.667V247.333V274V280H1318.33V270.001Z" fill="black"/>
<path d="M2053 246V218H2048.33H2043.33V212.666H2047.33V204.666H2057.33V209.333V215.333V220.666V223.333V249.999V255.999H2053V246Z" fill="black"/>
<path d="M1313.67 57.9993V16.6669H1303.33V11.3327H1313.67H1318V6.66602H1322.67V7.99935V13.9993V19.3327V21.9993V48.666V54.666V57.9993H1313.67Z" fill="black"/>
<path d="M1459.33 57.9993V43.9993H1454.67V34.666H1459.33V20.666H1455V16.6669H1444.67V11.3327H1454.67V6.66602H1464V57.9993H1459.33Z" fill="black"/>
<path d="M911.667 392.667V364.667V369.333H902.667V364.667H907.333V360H912V355.333H916.667V362V367.333V370V396.666V402.666H911.667V392.667Z" fill="black"/>
<path d="M1609.67 364V336V340.666H1600.67V336H1605.33V331.333H1610V326.666H1614.67V333.333V338.666V341.333V367.999V378.666H1609.67V364Z" fill="black"/>
<path d="M1914.33 1344L1914.67 1315.33H1909.83V1311.33H1905.33V1306.67H1910V1302H1914.67V1297.33H1919.33V1304V1309.33V1312V1338.67V1353.33H1914.33V1349.33H1909.33V1344H1914.33Z" fill="black"/>
<path d="M1989.33 1277.33V1239.33H1984.5V1235.33H1980V1230.67H1984.67V1226H1989.33V1221.33H1994V1226H1999.33V1230.67H1994V1236V1254H1999.33V1259.33H1994V1264H1999.33L1999.1 1273.33H1994V1277.33H1989.33Z" fill="black"/>
<path d="M2262.33 414.667V386.667V391.333H2253.33V386.667H2258V382H2262.67V377.333H2267.33V384V389.333V392V418.666V429.333H2262.33V414.667Z" fill="black"/>
<path d="M1209.33 453.999V416.863H1200V412.132H1208.22V407.398H1213.11V402.666H1218V409.427V414.835V417.539V453.999H1209.33Z" fill="black"/>
<path d="M2150 452.666L2150.44 434H2145.56L2145.33 415.333H2136V410.666H2145.56V405.333H2154.67V452.666H2150Z" fill="black"/>
<path d="M850.667 293.333H846V289.333H841.333V284.667H850.667V274.666H856V275.999V281.999V287.333V289.999V316.666V331.999H850.667V293.333Z" fill="black"/>
<path d="M261.333 308V284.667H256.667V280H261.333V270L257.667 270.001L252 270V260.668H261.333V256H262.333H266.667V261.333V267.333V272.667V275.333V302V308H262.333H261.333Z" fill="black"/>
<path d="M511.333 1114V1062.67H540V1067.33H544.334V1076.67H549.333V1081.33H544.334V1090.67H530V1095.33H516V1114H511.333ZM516 1086H535.333V1081.33H540V1072H535.333V1067.33H516V1086Z" fill="black"/>
<path d="M454.667 1189.33V1185.33H450V1180H454.667V1138H483.333V1142.67H487.667V1152V1156.67V1161.34H483.333V1166H468.667V1170.67L459.333 1170.67V1189.33H454.667ZM459.333 1161.34H478.667V1156.67H483.333V1147.34H478.667V1142.67H459.333V1161.34Z" fill="black"/>
<path d="M468.667 1114V1062.67H478.667V1081.33H483.333V1072H488V1067.33H492.667V1062.67H497H502V1067.33H497.333V1072H492.667V1076.67H488V1081.33H483.333V1090.67H488V1096H492.667V1100H497.333V1104.67H502V1114H497.333V1109.33H492.667V1104.67H488V1100H483.333V1096H478.667V1110H474V1114H468.667Z" fill="black"/>
<path d="M1915.33 255.333V204H1925.33V218.667H1930V213.333H1934.67V208.667H1939.33V204H1943.67H1948.67V208.667H1944V213.333H1939.33V218H1934.67V222.667H1930V218.667V228H1934.67V237.333H1939.33V241.333H1944V246H1948.67V255.333H1944V250.667H1939.33V246H1934.67V241.333H1930V237.333H1925.33V251.333H1920.67V255.333H1915.33Z" fill="black"/>
<path d="M407.333 1161.02H412V1137.33H417.333V1156H422V1152H426.667V1147.33H431.333V1142.67H436V1137.33H440.667V1142.67H436V1146.67V1152H431.333V1156.67H426.667V1166H431.333V1170.67H436V1174.67V1179.33H440.667V1184.67H445.333V1189.33H436V1184.67H431.333V1175.33H426.667V1170.67H422V1166H417.333V1189.33H412V1184.67H407.333V1175.33H412V1166H407.333V1161.02Z" fill="black"/>
<path d="M808 374.349V350.666H813.333V374.349H818V369.333H822.667V364.666H827.333V359.999H832H841.333V350.666H836.667V355.333H832V359.999H836.667V364.666H832V369.333H827.333V374.349H822.667V379.333H827.333V383.999V387.999H832V392.666H836.667V397.999H841.333V402.666H846V397.999H850.667V387.999H855.333V369.333H860.667V397.999H869.333V401.999H874.667V397.999H879.333V359.999H864.667V383.999H860.667V369.333V350.666H870V355.333H884V392.666H888.667V402.333H893.333V420.666H888.667V411.999H884V407.333H850.667V416.666H846V407.333H836.667V402.666H832V397.999H827.333V392.666H822.667V388.666V383.999H818V379.333H813.333V407.333H808V397.999V388.666V379.333V374.349Z" fill="black"/>
<path d="M1745.33 1032.67V1023.67H1726V1018.67H1721.33V1014H1726V1004.67H1730.67V995.333H1735.33V990.666H1740.67V981.333H1750V986V1014H1754.67H1759.33V1023.67H1750V1032.67H1745.33ZM1730.67 1014H1740.67H1745.33V995.333H1740.67V1000H1735.33V1004.67V1009.33H1730.67V1014Z" fill="black"/>
<path d="M702.667 1188.67V1183.33H698L698.167 1174.33H702.667V1178.67H707.333V1183.33H721.333V1178.67H726V1164.67H721.333V1160H698V1155.33H702.667V1136H726.667V1141.33H707.333V1155.33H712V1150.67H721.333V1155.33H726V1160H730.667V1178.67H726V1183.33H721.333V1188.67H702.667Z" fill="black"/>
<path d="M1674 1184V1179.33H1669.33V1174H1674H1678.67V1178.67H1692.67V1174H1697.33V1164.67H1692.67V1160H1688V1155.33H1678.67V1160H1669.33V1155.33H1674V1150.67H1669.33V1141.33H1674V1132H1698V1136.67H1683.33V1141.33H1678.67V1150.67H1692.67V1155.33H1702V1178.67H1697.33V1184H1692.67V1188.67H1678.67V1184H1674Z" fill="black"/>
<path d="M1960.67 255.333V250H1956L1956.17 241H1960.67V245.333H1965.33V250H1979.33V245.333H1984V231.333H1979.33V226.667H1956V222L1956.17 202.667H1976V198H1980.67V202.667H1984.67V208H1965.33V222H1970V217.333H1979.33V222H1984.67V226.667H1988.67V245.333H1984V250H1979.33V255.333H1960.67Z" fill="black"/>
<path d="M1191.33 884.667V879.333H1186.67L1186.83 870.333H1191.33V874.667H1196V879.333H1210V874.667H1214.67V860.667H1210V856H1186.67V851.333H1191.33V832H1215.33V837.333H1196V851.333H1200.67V846.667H1210V851.333H1214.67V856H1219.33V874.667H1214.67V879.333H1210V884.667H1191.33Z" fill="black"/>
<path d="M1966 716.667V712H1961.33V702.667H1966L1966 706.667H1970.67L1970.67 712H1980.67V706.667H1985.33V692.667H1980.67V688H1966V693.333H1962V683.333V664H1990V669.333H1966.67V683.333H1971.33V678.667H1980.67V683.333H1985.33V688H1990V712H1980.67H1985.33V716.667H1966Z" fill="black"/>
<path d="M1546.67 452.666V438.666H1551.33V443.333H1556V448.666H1566V444H1570.67V430H1566V424.666H1551.33V429.333H1546.67V401.333H1574.67V406.666H1552V419.333H1574.67V434H1580V438.666H1575.33V448.666H1570V452.666H1546.67Z" fill="black"/>
<path d="M853.333 1188.67V1132H868V1136.67H882V1164.67H886.666V1184H877.333V1188.67H853.333ZM858.666 1155.33H877.333V1141.33H858.666V1155.33ZM858 1178.67H868V1183.33H872V1179.33H882V1169.33H877.333V1164.67H863.333V1160H858V1178.67Z" fill="black"/>
<path d="M820.666 1169.33V1164.67H839.333V1169.33H820.666Z" fill="black"/>
<path d="M777.716 1188.67L778 1169.33H782.667L782.666 1160H787.333L787.333 1141.33H792V1136.67H802V1150.67H806.666V1164.67H811.333V1178.67H816L816 1188.67L811.333 1188.67V1184H806.667V1174H787.333V1178.67H782.667V1188.67L777.716 1188.67ZM787.333 1169.33H801.333V1155.33H796.666V1146H792V1160H787.333L787.333 1169.33Z" fill="black"/>
<path d="M2117.33 256V240.667H2122.28V227.333H2126.95L2126.95 208.667H2131.33V202.666H2140.67V217.181H2145.33V226.667H2150V245.333H2154.67V254.667H2150V250H2145.33V241.333H2126.67V250H2122.28V256L2117.33 256ZM2131.62 227.333V236H2140.67V217.181H2131.62V227.333Z" fill="black"/>
<path d="M1829.33 793.334V778.001H1834.28V764.667H1838.95L1838.95 746.001H1843.33V740H1852.67V754.515V750H1857.33V759.333H1862V773.333L1867.33 773.334V787.334H1876.67V782.667H1881.33V740.667H1909.33V750H1914.67V754.667H1909.33V759.333H1914.67V768.667H1909.33V773.333L1914.67 773.334V778H1909.33V787.667H1914.67V792.667H1904.67V750H1900V745.333H1890.67V750H1886V764H1890.67V768.667H1886V787.667H1881.33V792.667H1862V787.334H1857.33V778.667H1838.67V787.334H1834.28V793.334L1829.33 793.334ZM1843.62 764.667V773.334H1852.67V754.515H1848.67V759.333H1843.62V764.667Z" fill="black"/>
<path d="M763.999 1202.67V1198H759.333V1178.67H754.666V1154.94H759.333V1141.33H763.999V1136.67H768.666V1141.33H763.999V1170.67V1173.33V1176.67V1193.33H768.666V1202.67H763.999Z" fill="black"/>
<path d="M905.333 1198V1193.33H910V1178.67V1154.94V1150.67H900.666V1141.33H905.333V1136.67H900.666V1141.33H905.333V1170.67V1173.33V1176.67V1184H900.666V1193.33V1198H896V1202.67H900.666V1198H905.333Z" fill="black"/>
<path d="M165.333 957.333H160V945.481V924.666H155.469V914.802H165.333V910H170V949.333V962H165.333V957.333Z" fill="black"/>
<path d="M386.667 504.666H377.333V492.666V467.333H368V462.135H377.333V457.333H386.531L386.667 467.333H382V471.999L386.667 472L386.531 496.666L386.667 504.666Z" fill="black"/>
<path d="M1268.67 278.666H1258.67V261.999V240.666H1254.67V235.999H1258.67V226.666H1268.67V245.333H1264V249.999H1268.67V278.666Z" fill="black"/>
<path d="M2032.67 401.333H2022.67V384.666V363.333H2018V358.666H2022.67V349.333H2027.33V354H2032.67V377.333H2027.33V382H2032.67V401.333Z" fill="black"/>
<path d="M56.3854 938.666V928.975H61.074V923.741H66.2684V914.666H54.6665H42.6665V905.333H71.0024V910H75.6601V919.658H71.0024V923.741H66.2684V928.975H61.074V948H56.6665V962H51.9998V938.666H56.3854Z" fill="black"/>
<path d="M179.333 707.333H184V726.666H179.333V736H184V740.666H179.333V736H174.667V721.682H179.333V712H174.667V707.333H179.333Z" fill="black"/>
<path d="M188.666 688.667H183.999V684H179.333V679.333H174.666V674.407H166.938H160.666V679.333H155.999V688.667H165.333V693.333H169.999V698H160.666V693.333H155.999V688.667H150.666V674.667H155.999V670H160.666V664.667H174.666V670H179.333V674.667H183.999V679.333H188.666V684H193.333V688.667H197.999V665.333H202.666V679.333H207.999V684H202.666V693.333H207.999V698H193.333V693.333H188.666V688.667Z" fill="black"/>
<path d="M188.666 650.666H183.999V645.999V641.333H179.333V636.666H169.999V631.999H160.666V641.333H155.999V645.999H160.666V650.666H165.333H169.999V655.333V659.999H160.666V655.333H155.999V650.666H150.666V636.666V631.999H155.999V626.666H160.666H174.666V631.999H179.333H183.999V636.666V641.333H188.666V645.999H193.333V650.666H197.999V627.333H202.666V641.333V645.999V655.333V660.666H197.999V655.333H188.666V650.666Z" fill="black"/>
<path d="M668.666 90V85.3333H673.333H677.999V80.6667H682.666V71.3333H687.333V62H677.999V57.3333H673.333V62H668.666V66.6667V71.3333H663.999H659.333V62H663.999V57.3333H668.666V52H682.666H687.333V57.3333H692.666V62V76H687.333V80.6667V85.3333H682.666H677.999V90H673.333V94.6667H668.666V99.3333H691.999V104H677.999H673.333H663.999H658.666V99.3333H663.999V90H668.666Z" fill="black"/>
<path d="M174 216.666V211.999H178.667H183.333V207.333H188V197.999H192.667V188.666H183.333V183.999H178.667V188.666H174V193.333V197.999H169.333H164.667V188.666H169.333V183.999H174V178.666H188H192.667V183.999H198V188.666V202.666H192.667V207.333V211.999H188H183.333V216.666H178.667V221.333H174V225.999H197.333V230.666H183.333H178.667H169.333H164V225.999H169.333V216.666H174Z" fill="black"/>
<path d="M1191.33 791.333V786.666H1196H1200.67V782H1205.33V772.666H1210V763.333H1200.67V758.666H1196V763.333H1191.33V768V772.666H1186.67H1182V763.333H1186.67V758.666H1191.33V753.333H1205.33H1210V758.666H1215.33V763.333V777.333H1210V782V786.666H1205.33H1200.67V791.333H1196V796H1191.33V800.666H1214.67V805.333H1200.67H1196H1186.67H1181.33V800.666H1186.67V791.333H1191.33Z" fill="black"/>
<path d="M348.667 142V137.333H353.334V132H358.667V127.333H362.667V123.333H367.334V114H363.334V109.333H353.334V114H348.667V118.667H344.001H339.334V114H344.001V109.333H348.667V104H362.667H367.334V109.333H372.667V114V128H368.001V132H363.334V137.333H358.001V142H353.334V146.667V151.333H348.667H372.001V156H358.001H353.334H344.001V151.333V142H348.667Z" fill="black"/>
<path d="M687.999 188.666H692.666V183.999H697.999V179.333H701.999V173.999V169.999H706.666V160.666H702.666V155.999H692.666V160.666H687.999V169.999H678.666V160.666H683.333V155.999H687.999V150.666H701.999H706.666V155.999H711.999V160.666V174.666V179.333H707.333V183.999H702.666H697.999V188.666H692.666V193.333V197.999H687.999H711.333V202.666H697.333H692.666H683.333V197.999V193.333H687.999V188.666Z" fill="black"/>
<path d="M2314.67 339.333V334.666H2319.33H2324.67V330H2328.67V324.666V320.666H2333.33V311.333H2329.33V306.666H2319.33V311.333H2314.67V320.666H2310V311.333V306.666H2314.67V301.333H2328.67H2333.33V306.666H2338.67V316H2343.33V321.333H2338.67V330H2334V334.666H2329.33H2324.67V339.333H2319.33V348.666H2338V353.333H2310V339.333H2314.67Z" fill="black"/>
<path d="M1717.33 688.666H1722V683.999H1727.33V679.333H1731.33V673.999V669.999H1736V660.666H1732V655.999H1722V660.666H1717.33V669.999H1708V660.666H1712.67V655.999H1717.33V650.666H1731.33H1736V655.999H1741.33V660.666V674.666V679.333H1736.67V683.999H1732H1727.33V688.666H1722V693.333V697.999H1717.33H1740.67V702.666H1726.67H1722H1712.67V697.999V693.333H1717.33V688.666Z" fill="black"/>
<path d="M1202.67 538V533.333H1212V528.667H1216.67V523.333V519.333H1221.33V514H1216.67V510H1207.33H1202.67V519.333H1193.33V510H1198V505.333H1202.67V500H1216.67H1221.33V505.333H1226.67V510V524V528.667H1222V533.333H1217.33H1212V538H1202.67H1207.33V547.333H1226V556.667H1198V552H1193.33V547.333H1198V538H1202.67Z" fill="black"/>
<path d="M150.667 613.345H156V617.999H170V622.666H188.667V617.999H198V613.345H193.333H202.667V608.666H208V603.333H203.333V588.802H160.802V594.937H150.667V613.345ZM160.802 608.666H156V599.333H160.802V594.937H193.333V599.333H198V608.666H193.333V613.345H160.802V608.666Z" fill="black"/>
<path d="M1288.54 752V757.333H1293.2V771.333H1297.86V790H1293.2V799.333H1288.54V794.666V804H1283.86V809.333H1278.53V804.666H1264V762.135H1270.14V752H1288.54ZM1283.86 762.135V757.333H1274.53V762.135H1270.14V794.666H1274.53V799.333H1283.86V794.666H1288.54V762.135H1283.86Z" fill="black"/>
<path d="M2311.21 376V381.333H2315.86V395.333H2320.53V414H2315.86V423.333H2311.21V418.666V428H2306.53V433.333H2301.2V428.666H2286.67V386.135H2292.8V376H2311.21ZM2306.53 386.135V381.333H2297.2V386.135H2292.8V418.666H2297.2V423.333H2306.53V418.666H2311.21V386.135H2306.53Z" fill="black"/>
<path d="M2178 406H2173.33V415.469H2169.33V443.333H2174V452.666H2178.65V448V457.333H2183.33H2192.67V453.333H2197.06V443.333H2202V410.666H2197.06V415.469V406H2192.67V400.666H2178V406ZM2183.33 415.469V410.666H2192.67V415.469H2197.06V438.666H2192.67V448H2183.33H2178.65V415.469H2183.33Z" fill="black"/>
<path d="M2023.21 737.333V742.666H2027.86V756.666H2032.53V775.333H2027.86V784.666H2023.21V779.999V789.333H2018.53V794.666H2013.2V789.999H1998.67V747.468H2004.8V737.333H2023.21ZM2018.53 747.468V742.666H2009.2V747.468H2004.8V779.999H2009.2V784.666H2018.53V779.999H2023.21V747.468H2018.53Z" fill="black"/>
<path d="M1999.21 1297.33V1302.67H2003.86V1316.67H2008.53V1335.33H2003.86V1344.67H1999.21V1340V1349.33H1994.53V1354.67H1989.2V1350H1974.67V1307.47H1980.8V1297.33H1999.21ZM1994.53 1307.47V1302.67H1985.2V1307.47H1980.8V1340H1985.2V1344.67H1994.53V1340H1999.21V1307.47H1994.53Z" fill="black"/>
<path d="M2452.54 1130.67V1136H2457.2V1150H2461.86V1168.67H2457.2V1178H2452.54V1173.33V1182.67H2447.86V1188H2442.53V1183.33H2428V1140.8H2434.14V1130.67H2452.54ZM2447.86 1140.8V1136H2438.53V1140.8H2434.14V1173.33H2438.53V1178H2447.86V1173.33H2452.54V1140.8H2447.86Z" fill="black"/>
<path d="M2168.54 725.333V730.666H2173.2V744.666H2177.86L2178 768.666H2173.33V777.999L2168.54 772.666V767.999L2173.33 777.999H2168.54V782.666H2154.53V777.999H2150.14V773.333H2145.33V735.999H2150.14V730.666H2155.33V725.333H2168.54ZM2163.86 735.468V730.666H2159.54V735.468H2154.53V745.333H2150.14V767.999H2154.53V772.666H2163.86V767.999H2168.54V735.468H2163.86Z" fill="black"/>
<path d="M1424.54 1362.67V1368H1429.2V1382H1433.86V1400.67H1429.2V1410H1424.54V1405.33V1414.67H1419.86V1420H1414.53V1415.33H1400V1372.8H1406.14V1362.67H1424.54ZM1419.86 1372.8V1368H1410.53V1372.8H1406.14V1405.33H1410.53V1410H1419.86V1405.33H1424.54V1372.8H1419.86Z" fill="black"/>
<path d="M1231.99 808V802.667H1227.33V788.667V770V760.667H1231.99V765.333V756H1240V750H1244.67V756H1249.33V759.333H1254V797.864H1250.4V808H1231.99ZM1236.67 797.864V802.667H1246V797.864H1250.4V765.333H1246V760.667H1236.67V765.333H1231.99V797.864H1236.67Z" fill="black"/>
<path d="M2395.32 1186V1180.67H2390.67V1166.67V1148V1138.67H2395.32V1143.33V1134H2403.33V1128H2408V1134H2412.67V1137.33H2417.33V1175.86H2413.73V1186H2395.32ZM2400 1175.86V1180.67H2409.33V1175.86H2413.73V1143.33H2409.33V1138.67H2400V1143.33H2395.32V1175.86H2400Z" fill="black"/>
<path d="M1741.99 882V876.667H1737.33V862.667V844V834.667H1741.99V839.333V830H1750V824H1754.67V830H1759.33V833.333H1764V871.864H1760.4V882H1741.99ZM1746.67 871.864V876.667H1756V871.864H1760.4V839.333H1756V834.667H1746.67V839.333H1741.99V871.864H1746.67Z" fill="black"/>
<path d="M1231.32 882V876.667H1226.67V862.667V844V834.667H1231.32V839.333V830H1239.33V824H1244V830H1248.67V833.333H1253.33V848.667H1258.67V862.667H1253.33V871.864H1249.73V882H1231.32ZM1236 871.864V876.667H1245.33V871.864H1249.73V839.333H1245.33V834.667H1236V839.333H1231.32V871.864H1236Z" fill="black"/>
<path d="M211.988 178.667V184H207.333V198H202.667V216.667H207.333V226H211.988V221.333V230.667H216.667V236H222V231.333H236.531V188.802H230.395V178.667H211.988ZM216.667 188.802V184H226V188.802H230.395V221.333H226V226H216.667V221.333H211.988V188.802H216.667Z" fill="black"/>
<path d="M269.333 179.333V184H274.531V198H279.198V216.667H274.531V226H269.877V221.333V230.667H265.198V236H259.864V231.333H250V222H245.333V184.667H250V179.333H269.333ZM264.667 188.802V184H255.864V188.802H250V184.667V221.333H259.333V226H265.198V221.333H269.877V188.802H264.667Z" fill="black"/>
<path d="M957.333 354H962.531V368H967.198V392H962.531V401.333H957.333V391.333V406H953.198H943.333V401.333H938V396.667H933.333V392V363.333H938.667V354H957.333ZM952.667 358.802H943.864V368H938.667V391.333H943.333V396H947.864H953.198V391.333H957.333L957.877 358.802H952.667Z" fill="black"/>
<path d="M1312.53 804H1307.33V790H1302.67V766H1307.33V756.667H1312.53V766.667V752H1316.67H1326.53V756.667H1331.86V761.333H1336.53V766V794.667H1331.2V804H1312.53ZM1317.2 799.198H1326V790H1331.2V766.667H1326.53V762H1322H1316.67V766.667H1312.53L1311.99 799.198H1317.2Z" fill="black"/>
<path d="M2348 378.666H2353.2V392.666H2357.86V416.666H2353.2V425.999H2348V415.999V430.666H2343.86H2334V425.999H2328.67V421.333H2324V416.666V387.999H2329.33V378.666H2348ZM2343.33 383.468H2334.53V392.666H2329.33V415.999H2334V420.666H2338.53H2343.86V415.999H2348L2348.54 383.468H2343.33Z" fill="black"/>
<path d="M203.333 561.333H193.617V566.666H188.667V561.333H150.667V533.333H156V527.999H174.667V533.333H179.333V527.999H188.667V523.333H193.617V527.999H203.333V561.333ZM170 537.999V533.333H160.667V542.666H156V556.666H174.667V537.999H170ZM198 556.666V533.333H184V537.999H179.333V556.666H198Z" fill="black"/>
<path d="M1282.67 882V872.284V867.333V829.333H1310.67V834.666H1316V853.333H1310.67V858H1316V863.333H1320.67V872.284H1316V882H1282.67ZM1306 848.666H1310.67V839.333H1306V834.666H1292V839.333H1287.33V853.333H1306V848.666ZM1287.33 876.666H1310.67V862.666H1306V858H1287.33V876.666Z" fill="black"/>
<path d="M1537.33 52.6667V42.9508H1532V38H1537.33V0H1565.33V5.33333H1570.67V24H1565.33V28.6667H1570.67V38H1575.33V42.9508H1570.67V52.6667H1546.67V56.6667H1542V52.6667H1537.33ZM1560.67 19.3333V10H1556V5.33333H1546.67V9.33333H1542V24H1560.67V19.3333ZM1542 47.3333H1565.33V33.3333H1560.67V28.6667H1542V47.3333Z" fill="black"/>
<path d="M340 307.333V297.617V292.666V254.666H368V259.999H372.667V273.999H368V278.666H372.667V287.999H377.333V297.617H372.667V301.999H368V307.333H340ZM363.333 269.333H368V264.666H363.333V259.999H358.667H344.667V273.999H363.333V269.333ZM344.667 301.999H354V297.617H368V287.999H363.333V283.333H344.667V301.999Z" fill="black"/>
<path d="M2241.33 858V848.284V843.333V805.333H2269.33V810.666H2274V824.666H2269.33V829.333H2274V838.666H2278.67V848.284H2274V852.666H2269.33V858H2241.33ZM2264.67 820H2269.33V815.333H2264.67V810.666H2260H2246V824.666H2264.67V820ZM2246 852.666H2255.33V848.284H2269.33V838.666H2264.67V834H2246V852.666Z" fill="black"/>
<path d="M340 485.999V481.333H325.333V476.491H320.803V471.999H316V461.999H320.667L320.803 452.518L349.333 452.666V457.333H354V467.333H344.667V457.333H325.333V463.333V471.999H334.667V475.999H349.333V481.333H354V499.999H349.333V504.666H344.667V509.333H330V504.666H320.667V499.999H316V490.666H325.333V499.999H330H344.667V495.333H349.333V485.999H340Z" fill="black"/>
<path d="M524 363.333V359.469H513.333V353.333H551.333V359.469H537.877V406H533.333V401.333H528.667V392H533.333V368H528V363.333H524Z" fill="black"/>
<path d="M1678.67 1306H1664.67V1296.67H1697.33V1306H1688V1301.33H1683.21V1306V1354H1678.67V1349.33H1674V1339.33H1678.67V1306Z" fill="black"/>
<path d="M226.663 396.667V392H221.728V382.26H226.663V386.667H231.333V392H240.663L240.666 377.333H231.33V372.667H235.997V368H240.663V358.667H231.33V363.333H221.33V358.136H226.663V354H245.33V363.333H249.999V368H245.33V377.333H249.999V387.333H245.333V392H240.663L240.666 396.667H226.663Z" fill="black"/>
<path d="M202.666 396H188.666V391.333H184.135L184.135 377.074H188.666V372.667H193.333V377.333H202.666V364.803H208.678H184.135V358.667H188.666V354H207.332V358.667H212.666V391.333H202.666V396ZM188.666 386.667H193.333V391.333H197.999V386.667H202.666L202.666 377.333V372.667H193.333V377.333V382H188.666L188.666 386.667Z" fill="black"/>
<path d="M273.197 395.333H259.197V390.666H254.666L254.666 376.407H259.197V372H263.864V376.666H273.197V364.136H279.209H254.666V358H259.197V353.333H277.864V358H283.197V387.333H287.999V396.666H283.333V390.666H273.197V395.333ZM259.197 386H263.864V390.666H268.531V386H273.197L273.197 376.666V372H263.864V376.666V381.333H259.197L259.197 386Z" fill="black"/>
<path d="M146.666 387.333H132.666V382H122.666V377.346V358.938H127.333V349.333H141.074V344.667H146.666V340H155.333V349.333H169.999V354H174.666V382.667H169.999V387.333H155.999V396.667H146.666V387.333ZM131.999 377.346H136.666V382H145.999V354H131.999V358.938H127.333V372.667H131.999V377.346ZM151.333 377.346H155.999V382H165.617V377.346H169.999V358.938H165.333V354H151.333V377.346Z" fill="black"/>
<path d="M1368 960.667V956H1363.06V946.26H1368V950.667H1372.67V956H1382L1382 941.333H1372.66V936.667H1377.33V932H1382V922.667H1372.66V927.333H1362.66V922.136H1368V918H1386.66V927.333H1391.33V932H1386.66V941.333H1391.33V951.333H1386.67V956H1382L1382 960.667H1368Z" fill="black"/>
<path d="M1344 960H1330V955.333H1325.47L1325.47 941.074H1330V936.667H1334.67V941.333H1344V928.803H1350.01H1325.47V922.667H1330V918H1348.67V922.667H1354V955.333H1344V960ZM1330 950.667H1334.67V955.333H1339.33V950.667H1344L1344 941.333V936.667H1334.67V941.333V946H1330L1330 950.667Z" fill="black"/>
<path d="M1414.53 959.333H1400.53V954.666H1396L1396 940.407H1400.53V936H1405.2V940.666H1414.53V928.136H1420.54H1396V922H1400.53V917.333H1419.2V922H1424.53V951.333H1429.33V960.666H1424.67V954.666H1414.53V959.333ZM1400.53 950H1405.2V954.666H1409.86V950H1414.53L1414.53 940.666V936H1405.2V940.666V945.333H1400.53L1400.53 950Z" fill="black"/>
<path d="M1288 951.333H1274V946H1264V941.346V922.938H1268.67V913.333H1282.41V908.667H1288V904H1296.67V913.333H1311.33V918H1316V946.667H1311.33V951.333H1297.33V960.667H1288V951.333ZM1273.33 941.346H1278V946H1287.33V918H1273.33V922.938H1268.67V936.667H1273.33V941.346ZM1292.67 941.346H1297.33V946H1306.95V941.346H1311.33V922.938H1306.67V918H1292.67V941.346Z" fill="black"/>
<path d="M306.667 156V151.333H297.333V141.333H292V117.852H297.333V108.667H302V104H330V108.667H334.951V117.852V123.117H330.142V117.852H325.333V108.667H306.667V113.333H302V146.667H306.667V151.333H320.667V146.667H325.333V142H330.286V136.26H334.951V151.333H330V156H316V160.667H311.333V156H306.667Z" fill="black"/>
<path d="M1196 730.666V725.999H1186.67V715.999H1181.33V692.518H1186.67V683.333H1191.33V678.666H1219.33V683.333H1224.28V692.518V697.783H1219.48V692.518H1214.67V683.333H1196V687.999H1191.33V721.333H1196V725.999H1210V721.333H1214.67V716.666H1219.62V710.926H1224.28V725.999H1219.33V730.666H1205.33V735.333H1200.67V730.666H1196Z" fill="black"/>
<path d="M1716 1353.33V1348.67H1706.67V1338.67H1701.33V1315.19H1706.67V1306H1711.33V1301.33H1716V1296.67H1735.33V1301.33H1739.33V1306H1744.28V1315.19V1320.45H1739.48V1315.19H1734.67V1306H1716V1310.67H1711.33V1344H1716V1348.67H1730V1344H1734.67V1339.33H1739.62V1333.59H1744.28V1348.67H1739.33V1353.33H1725.33V1358H1720.67V1353.33H1716Z" fill="black"/>
<path d="M2206.67 705.333V700.666H2197.33V690.666H2192V667.185H2197.33V658H2202V653.333H2230V658H2234.95V667.185V672.45H2230.14V667.185H2225.33V658H2206.67V662.666H2202V696H2206.67V700.666H2220.67V696H2225.33V691.333H2230.29V685.593H2234.95V700.666H2230V705.333H2216V710H2211.33V705.333H2206.67Z" fill="black"/>
<path d="M1628 302.666H1622V297.999H1618.67V287.999H1613.33V264.518H1618.67V255.333H1623.33V250.666H1651.33V255.333H1656.28V264.518V269.783H1651.48V264.518H1646.67V255.333H1628V259.999H1623.33V293.333H1628V297.999H1642V293.333H1646.67V288.666H1651.62V282.926H1656.28V297.999H1651.33V302.666H1641.33V307.333H1632.67V302.666H1628Z" fill="black"/>
<path d="M302 231.333V193.333H311.333V203.333H316V217.333H325.333V208H330V193.333H333.346H340V231.333H334.667V208H330V217.333H325.333V226.666H316V217.333H311.333V208H306.667V231.333H302Z" fill="black"/>
<path d="M1358 278.128V226.666H1367.33V235.999H1372.67V249.999H1377.16V259.333H1386.67V249.999H1391.33V235.999H1396.16L1396 245.333V226.666H1400.89H1405.33V278.128H1400.89V245.333H1396V254.666H1391.33V269.333H1386.67V278.128H1377.16V264.666H1372.67V254.666H1367.33V244.666H1363.33V278.128H1358Z" fill="black"/>
<path d="M349.333 231.333V193.333H358.667V202.666H363.333V198H368V193.333H370.892H372.667V198H368V202.666H363.333V212.666H368V222H372.667V226.666H377.333V231.333H372.667V226.666H368V222H363.333V217.333H358.667V226.666H354V231.333H349.333Z" fill="black"/>
<path d="M1792 882V844H1801.33V853.333H1806V848.667H1810.67V844H1813.56H1820V848.667H1815.33V853.333H1806H1810.67V858.333H1806V863.333H1810.67V868H1815.33V872.667H1820V877.333V882H1815.33V877.333H1810.67V872.667H1806V868H1801.33V877.333V882H1792Z" fill="black"/>
<path d="M1358 806.666V769.333H1367.33V778.666H1372V787.333H1367.33H1376.67V797.333H1381.33V787.333H1386V778.666H1391.33V769.333H1400.67V806.666H1396V783.333H1391.33V792H1386V787.333V802H1381.33V806.666H1376.67V802H1372V787.333H1367.33V792.666H1362.67V797.333H1367.33V806.666H1358Z" fill="black"/>
<path d="M1409.33 806.667V764H1414.67V783.333H1419.33V778H1424V773.333H1428.67V768.667H1433.33V773.333H1428.67V778H1424V783.333V792.667H1428.67V802V797.333H1433.33V802H1438V806.667H1428.67V802H1424V792.667H1414.67V806.667H1409.33Z" fill="black"/>
<path d="M2201.33 782.666V745.333H2210.67V749.999H2215.33V763.333H2210.67H2220V768.666H2225.33V759.333H2230.67V745.333H2234.67V740.666H2239.33V745.333V782.666H2234.67V759.333H2230.67V773.333H2225.33V782.666H2220V777.999H2215.33V763.333H2210.67V768.666H2206V773.333H2210.67V782.666H2201.33Z" fill="black"/>
<path d="M2249.33 782.667V740H2254.67V745.333H2258.67V749.667H2254.67V754.667H2260H2262.67H2263.33V750H2268V740.667H2277.33V745.333H2272.67V750H2268V754.667H2263.33V760V764H2268V768.667H2273.33V773.333H2278V778V782.667H2268V773.333H2263.33V768.667H2258.67V764H2254.67V782.667H2249.33Z" fill="black"/>
<path d="M1645.33 377.333V340H1654.67V349.333H1659.33V358H1654.67H1664V368H1668.67V358H1673.33V349.333H1678.67V340H1688V377.333H1683.33V354H1678.67V362.667H1673.33V358V372.667H1668.67V377.333H1664V372.667H1659.33V358H1654.67V368V377.333H1645.33Z" fill="black"/>
<path d="M1697.33 368V340H1702V348.666H1706.67H1711.33V344H1716V339.333H1720.67V344H1716V348.666H1711.33V354H1707.33V363.333H1711.33V372.666V368H1716.67V372.666H1721.33V377.333H1711.33V372.666H1707.33V363.333H1702V377.333H1692.67V368H1697.33Z" fill="black"/>
<path d="M283.333 302V283.333H278.667V278.667H283.333V254.667H292.667V250H306.667V259.333H311.515V264.667H306.667V259.333H292.667V264.667H288V274H292.667V269.333H302V274H306.667V278.667H311.515V283.333H316V292.667H311.515V302H306.667V306.667H288V302H283.333ZM288 297.333H297.333L297.424 302H302V297.333H306.667V278.667H288V297.333Z" fill="black"/>
<path d="M1923.33 504.666V518.666H1928.67V523.333H1923.33V528.666H1928.67V533.333H1923.33V551.999H1914V556.666H1900V551.999H1895.15V541.999H1905.33V546.999H1914V551.999H1905.33H1900H1914V546.999V541.999H1918.67V532.666H1910V537.999H1904.67V532.666H1900H1895.15V523.333V513.999V504.666H1900V499.999H1923.33V504.666ZM1918.67 509.333H1914.67V504.666H1904.67V509.333H1900V527.999V523.333H1904.67V527.999H1914.67V523.333H1918.67V509.333Z" fill="black"/>
<path d="M1994 245.333V207.999H1999.33V202.666H2004V198.666H2013.33V203.333H2018H2022.67V212.666H2018V203.333V207.999H2004V221.999H2017.33H2022.67V231.333H2027.33V245.333H2022.67V249.999H2018V255.333H1999.33V245.333H1994ZM1999.33 240.666H2004V249.999H2013.33V245.333H2017.33V221.999V226.666H2004V231.333H1999.33V240.666Z" fill="black"/>
<path d="M1546.67 547.333V533.333H1541.33V528.667H1546V504.667H1551.33V500H1574.67V509.333H1570V504.667H1556V509.333H1551.33V523.333H1556V518.667H1570V523.333H1575.33V528.667H1579.33V533.333V542.667H1574.67V552H1565.33V556.667H1556V552H1551.33V547.333H1546.67ZM1551.33 542.667H1556V547.333H1570V528.667H1565.33V523.333H1556V528.667H1551.33V542.667Z" fill="black"/>
<path d="M2184 848.666V834.666H2178.67V830H2183.33V806H2188.67V801.333H2212V810.666H2207.33V806H2193.33V810.666H2188.67V824.666H2193.33V820H2207.33V824.666H2212.67V830H2216.67V834.666V844H2212V853.333H2202.67V858H2193.33V853.333H2188.67V848.666H2184ZM2188.67 844H2193.33V848.666H2207.33V830H2202.67V824.666H2193.33V830H2188.67V844Z" fill="black"/>
<path d="M1938 1344.67V1330.67V1326V1302H1943.33V1297.33H1966.67V1306.67H1962V1302H1948V1306.67H1943.33V1320.67H1948V1316H1962V1320.67H1967.33V1326H1971.33V1330.67V1340H1966.67V1349.33H1957.33V1354H1948V1349.33H1943.33V1344.67H1938ZM1943.33 1340H1948V1344.67H1962V1326H1957.33V1320.67H1948V1326H1943.33V1340Z" fill="black"/>
<path d="M500 56.666V51.9994H490.667V42.666H495.333V47.3327H500V51.9994H514V47.3327H518.667V51.9994V33.3327L504.667 33.246V23.9993H514V9.33268H500V19.3327H490.667V14.666H495.333V4.66602H518.667V9.33268H523.515V23.9993H518.667V33.3327L523.515 33.246V51.9994H518.667V56.666H500Z" fill="black"/>
<path d="M1706.67 881.333V876.666H1702V872.666H1697.33V867.333H1702H1706.67V872V876.666H1720.67V872H1725.33V876.666V858L1711.33 857.913V848.666H1720.67V834H1706.67V844H1697.33V839.333V834.666H1702V829.333H1712V825.333H1721.33V829.333H1725.33V834H1730.18V848.666H1725.33V858L1730.18 857.913V876.666H1725.33V881.333H1706.67Z" fill="black"/>
<path d="M1928 792H1923.33V783.333H1918.67V778H1923.33H1928V782.667V787.333H1942V782.667H1946.67V787.333V768.667H1933.33V764H1938V759.333H1942V744.667H1928V754.667H1918.67V750H1923.33V740H1933.33V736H1938V740H1947.33V744.667H1951.51V759.333H1946.67V768.667L1951.51 768.58V787.333H1946.67V792H1928Z" fill="black"/>
<path d="M1442.67 453.333H1438V448.666H1433.33V438.666H1442.67V443.999V448.666H1456.67V443.999H1461.33V448.666L1456.67 443.999V438.666H1461.33V429.999V433.999H1456.67V429.999L1447.33 429.913V424.666H1452.67V419.999H1456.67V405.999H1442.67V415.999H1433.33V405.999H1438V401.333H1442.67V396.666H1452V401.333H1461.33V405.999H1466.18V420.666H1461.33V429.999L1466.18 429.913V448.666H1461.33V453.333H1456.67V457.999H1452V453.333H1442.67Z" fill="black"/>
<path d="M1664.67 298V293.333H1660V283.333H1669.33V288.666V293.333H1683.33V288.666V283.333V278.666H1674V273.333H1678.67V269.333H1688V260H1683.33V254.666H1669.33V264H1664.67V250.666H1674V245.333H1678.67V250H1688V254.666H1692.85V269.333H1688V278.666H1692.85V293.333V298H1688V302.666H1683.33H1664.67V298Z" fill="black"/>
<path d="M2060.67 396.666V392V387.333H2065.33V392V396.666H2079.33V391.333H2084V386.666H2079.33V382H2074.67V368H2079.33V358.666H2065.33V363.333H2060.67V354H2065.33V349.333H2079.33V354H2084V368V375V382H2088.85V392V396.666H2084V401.333H2079.33V406H2070V401.333H2060.67V396.666Z" fill="black"/>
<path d="M2060.67 396.666V392V387.333H2065.33V392V396.666H2079.33V391.333H2084V386.666H2079.33V382H2074.67V368H2079.33V358.666H2065.33V363.333H2060.67V354H2065.33V349.333H2079.33V354H2084V368V375V382H2088.85V392V396.666H2084V401.333H2079.33V406H2070V401.333H2060.67V396.666Z" fill="black"/>
<path d="M754.667 326V316.73H750V302H745.333V288H740V278.92L750 278.919V292H754.667V306.667H759.333V316.73H764V306.667H768.667V287.333H773.333V274H777.81V292.667H773.333V306.667H768.667V326H764V330H759.333V326H754.667Z" fill="black"/>
<path d="M1901.33 1273.33V1264.06H1896.67V1249.33H1892V1235.33H1886.67V1226.25L1896.67 1226.25V1239.33H1901.33V1254H1906V1264.06H1910.67V1254H1915.33V1234.67H1920V1221.33H1928.67V1226.25H1924.48V1240H1920V1254H1915.33V1273.33H1910.67V1277.33H1906V1273.33H1901.33Z" fill="black"/>
<path d="M1890.67 717.333V707.333H1895.33V698H1900V679.333H1904.67V665.333H1900V670H1895.33V684H1890.67V702.666H1881.33V684H1876.67V669.333H1872V665.333H1866.67L1866.67 679.333H1872V693.333H1876.67V702.666H1881.33V717.333H1890.67Z" fill="black"/>
<path d="M965.143 326.666V317.396H969.81V302.666H974.477V288.666H979.81V279.586L969.81 279.585V292.666H965.143V307.333H960.477V317.396H955.81V307.333H951.143V287.999H946.477V274.666H937.333V279.585H942V293.333H946.477V307.333H951.143V326.666H955.81V330.666H960.477V326.666H965.143Z" fill="black"/>
<path d="M1381.33 46.666H1386.67V56.666H1381.33V46.666Z" fill="black"/>
<path d="M1707.33 697.333V702.666H1697.33V697.333H1707.33Z" fill="black"/>
<path d="M2046.67 396H2052V401.333H2046.67V396Z" fill="black"/>
<path d="M1400 708H1405.33V697.333H1400V708Z" fill="black"/>
<path d="M1400 46.666H1410V51.666H1405.33V56.666H1400V46.666Z" fill="black"/>
<path d="M1872 1325.33H1885.74V1330.33H1890.67V1335.33H1872V1325.33Z" fill="black"/>
<path d="M1484.67 56.666V51.3327H1480L1480.17 42.3327H1484.67V46.666H1489.33H1504V28.666H1499.33V23.9993H1490V28.666H1480.17L1480 23.3327L1480.17 5.33268H1485.33V0.666016H1504V9.33268H1490.67V14.666H1485.33V18.666H1494H1503.33V23.3327H1508.67V33.3327H1513.33V38.666H1508.67V51.9994H1503.33V56.666H1484.67Z" fill="black"/>
<path d="M1197.33 278.666V226.666H1230.67V231.333H1235.14V250.666H1230.67V259.333H1235.14V264.476V278.666H1230.67V273.999H1226V265.333V259.333H1207.33V278.666H1197.33ZM1207.33 250.666H1226V245.571H1230.67V235.999H1207.33V250.666Z" fill="black"/>
<path d="M1626.67 1188.67V1132H1654.67V1136.67H1660V1141.33H1664.48V1156H1660V1164.67V1169.81H1664.48V1184H1655.33V1170.67V1164.67H1631.33V1179.33H1636V1184H1631.33V1188.67H1626.67ZM1631.33 1155.33H1655.33V1141.33H1631.33V1155.33Z" fill="black"/>
<path d="M2253.33 1187.33V1130.67H2281.33V1135.33H2286.67V1140H2291.14V1150.67H2286.67V1160H2282V1164.67H2286.67V1183.33H2282V1169.33H2278V1164H2258V1178H2262.67V1182.67H2258V1187.33H2253.33ZM2258 1156L2282 1155.33V1140H2258V1156Z" fill="black"/>
<path d="M2264 353.999V302.666H2292V307.333H2300.67V326.666H2296V335.333H2300.67V353.999H2291.33V335.333H2272.67V353.999H2264ZM2272.67 325.999H2292V320.666H2296V315.999H2292V311.999H2272.67V325.999Z" fill="black"/>
<path d="M1626.67 1032.67V981.333H1655.33V986H1660V1004.67H1655.33V1014H1660V1033.33H1655.33V1019.14H1650.67V1014H1645.33V1009.33H1636V1014H1631.33V1032.67H1626.67ZM1631.33 1004.67H1655.33V990.666V986H1631.33V1004.67Z" fill="black"/>
<path d="M1602.67 877.333V844.238H1598.67V830H1602.67V825.333H1626.67V830H1636V848.666H1631.33V858H1636V882H1631.33V868H1626.67V858H1608V877.333H1602.67ZM1608 853.333H1622V848.666H1626.67V844.238H1631.33V839.333H1626.67V834.666H1608V853.333Z" fill="black"/>
<path d="M1646 877.333V868H1641.33V858.666V854V844.666H1646V830H1655.33V825.333H1669.33V830H1674V834.666V840H1669.33V834.666H1655.33V840H1650.67V849.333H1655.33V844.666H1664.67V849.333H1674.18V858.666H1678.67V868H1674.18V877.333H1669.33V882H1650.67V877.333H1646ZM1650.67 872.666H1660L1660.09 877.333H1664.67V872.666H1669.33V854H1655.33V858.666H1650.67V872.666Z" fill="black"/>
<path d="M2074.67 254.666H2070V245.333H2074.67V240.666H2079.33V202.666H2108V235.999H2112.67V245.333H2108V255.166H2102.67V207.999H2084V217.333H2088.67V231.333H2084V245.333H2079.33V250.666H2074.67V254.666Z" fill="black"/>
<path d="M2168.67 255.166V235.999H2173.67V226.666H2178.67V217.333H2182.67V207.999H2158.67V202.666H2192.67V207.999H2188V217.333H2182.67V226.666H2178.67V249.999H2173.67V255.166H2168.67Z" fill="black"/>
<path d="M1772.67 1033.83V1014H1777.67V1000H1782.67V996V986.666H1762.67V981.333H1796.67V986H1792V990.666H1787.33V996V1004.67H1782.67V1018.67H1777.67V1033.83H1772.67Z" fill="black"/>
<path d="M2306 1188.67V1164.67H2311V1150.67H2315.33V1146V1141.33H2296V1132H2324.67V1136.67H2330V1141.33H2325.33V1146H2320.67V1160H2315.33V1174.67H2311V1188.67H2306Z" fill="black"/>
<path d="M1772.67 1184.5V1169.33H1777.67V1155.33H1782.67V1150.67V1146H1787.33V1141.33H1782.67V1137.33H1768V1141.33H1762.67V1132H1796.67V1136.67V1141.33H1792V1146H1787.33V1160H1782.67V1155.33V1169.33V1184.5H1777.67H1772.67Z" fill="black"/>
<path d="M1792 1344.67V1330.67H1786.67V1326H1791.33V1306.67H1796.67V1302V1297.33H1815.33V1302H1820V1310.67H1815.33V1306.67H1810.67V1302H1801.33V1306.67H1796.67V1320.67H1801.33V1316H1815.33V1320.67H1820.67V1326H1824.67V1330.67V1340H1820V1349.33H1815.33V1354H1801.33V1349.33H1796.67V1344.67H1792ZM1796.67 1340H1801.33V1344.67H1815.33V1326H1810.67V1320.67H1801.33H1806V1326H1796.67V1340Z" fill="black"/>
<path d="M1953.33 1254.81V1250.15H1938.67V1245.31H1934.14V1240.81H1929.33V1235.33H1934V1226H1938V1221.48H1947.33V1216.67H1952V1221.48H1962.67V1226.15H1967.33V1236.15L1962 1236V1230.81H1956.67V1226.15L1942.67 1226V1230.81H1938.67V1240.81H1948V1244.81H1962.67V1250.15H1967.33V1268.81L1962.67 1268.67V1273.48H1952V1278L1943.33 1278.15V1273.48H1934V1268.81H1929.33V1259.48H1938.67V1268.81H1943.33H1958L1962.67 1268.67V1264.15V1254.81H1953.33Z" fill="black"/>
</svg>
