<svg width="2560" height="1440" viewBox="0 0 2560 1440" fill="none" xmlns="http://www.w3.org/2000/svg">
<path d="M930.687 437.99C940.795 437.99 950.862 437.99 964.298 437.99C953.622 488.126 989.994 507.61 1010.21 536.742C1031.4 567.299 1057.62 593.056 1081.33 621.331C1091.31 633.212 1102.84 643.905 1116.6 636.254C1128.21 629.838 1131.46 616.437 1131.3 598.901C1130.08 439.938 1130.49 280.928 1130.49 121.966C1130.49 99.868 1120.7 90.9338 1102.6 91.1239C1070.12 91.4565 1037.65 91.8842 1005.18 91.1714C956.667 90.1259 908.199 88.13 859.731 86.6093C853.155 86.4192 846.579 86.6093 838.095 86.6093C838.095 94.7831 838.095 100.866 838.095 106.996C837.851 144.777 837.851 144.587 805.174 143.731C787.719 143.256 770.264 143.636 750.779 143.636V279.93C760.278 281.356 769.858 282.782 781.589 284.54C767.3 299.177 727.073 298.274 715.057 283.209C725.084 282.259 733.324 281.499 743.066 280.548V142.353H656.075V91.409C635.373 91.409 615.685 88.9379 596.931 92.6446C589.665 94.0703 581.262 108.517 579.03 118.687C575.945 132.801 578.259 148.483 578.259 166.827H622.018C622.546 169.869 623.073 172.957 623.56 175.999C618.324 177.9 613.169 181.226 607.892 181.416C534.012 184.173 531.414 183.745 525.163 168.158H569.978C569.978 148.626 571.439 131.233 569.49 114.41C567.989 101.341 562.468 90.6487 547.286 90.9338C499.955 91.8842 452.501 89.6032 405.251 92.3119C390.475 93.1673 376.268 104.145 362.953 87.7973C370.422 82.3798 379.069 76.1068 383.047 73.2079C393.601 79.1958 400.096 86.0865 406.509 86.039C446.615 85.6113 486.802 81.3818 526.827 83.2352C542.659 83.948 556.217 89.8408 566.487 70.4516C567.623 68.3606 576.026 68.6458 578.949 71.1645C602.533 91.409 628.553 77.7701 652.625 81.8095C653.965 78.1503 654.817 76.8196 654.898 75.394C656.711 44.7895 671.068 29.4873 697.967 29.4873C743.594 29.4873 789.221 29.4873 837.202 29.4873V81.762C845.401 81.762 851.247 81.762 857.133 81.762C915.587 81.9521 974.041 81.8095 1032.54 82.5698C1057.7 82.9025 1082.87 85.041 1108.08 86.3716C1138.73 47.4033 1173.88 102.767 1204.65 77.4374C1204.37 76.3444 1203.47 72.6852 1201.36 64.2737C1208.99 71.7823 1213.38 76.1543 1217.96 80.6689C1223.44 74.7286 1228.36 69.3586 1236.47 60.6145C1233.71 69.9289 1232.29 74.8237 1230.22 81.762H2340.12C2340.12 116.026 2340.12 148.246 2340.12 180.466C2340.12 186.786 2337.97 196.481 2340.65 198.952C2357.65 214.682 2359.32 234.119 2357 257.642C2355.26 275.083 2359.03 293.189 2359.97 311.01C2360.41 319.802 2360.82 328.879 2359.64 337.48C2358.43 346.367 2357.29 357.012 2352.58 363.19C2333.91 387.759 2334.39 417.888 2355.34 439.606C2378.03 463.082 2379.25 508.703 2357.82 534.08C2353.07 539.688 2346.45 544.44 2344.14 551.236C2342.11 557.081 2342.8 567.394 2346.09 571.908C2354.89 583.931 2356.48 591.44 2349.5 608.168C2342.31 625.466 2346.17 649.085 2345.52 669.947C2345.48 671.563 2348.44 674.937 2349.62 674.747C2380.18 668.806 2366.34 697.51 2367.76 710.151C2370.48 734.767 2367.76 760.097 2368.86 785.046C2369.75 804.958 2366.79 818.502 2343.93 813.845V887.504C2355.06 889.881 2364.07 891.829 2373.08 893.777L2371.98 899.385H2308.98C2308.66 897.532 2308.33 895.678 2308.01 893.825C2318.48 890.736 2328.95 887.695 2338.05 885.033C2337.11 860.749 2336.3 839.079 2335.41 815.746C2328.14 814.7 2321.12 813.702 2312.96 812.562V672.418C2320.31 671.753 2326.88 671.182 2336.14 670.375C2336.14 653.314 2339.23 635.065 2335.08 619.383C2332.28 608.738 2319.82 595.147 2310.89 594.339C2278.01 591.345 2244.85 593.151 2213.71 593.151C2213.71 633.687 2214.85 670.185 2213.14 706.539C2212.45 721.461 2216.63 724.218 2226.94 723.695C2228.97 723.6 2231.09 723.267 2233.03 723.79C2241.6 726.308 2250.12 729.16 2258.65 731.869C2250.53 733.722 2242.41 736.811 2234.25 737.144C2212.74 737.999 2191.18 737.904 2169.67 737.476C2166.62 737.429 2163.62 733.152 2162.08 725.215H2205.43V585.88C2241.23 585.88 2274.8 586.022 2308.37 585.832C2326.97 585.737 2335.57 574.855 2334.64 560.788C2316.21 554.515 2297.13 553.279 2284.34 542.159C2271.15 530.706 2264.09 509.606 2254.39 492.831H2227.8C2227.15 499.579 2226.42 507.848 2225.32 519.301H2109.96C2109.22 510.794 2108.58 503.286 2107.52 490.74C2079.02 490.74 2050.28 487.081 2022.64 491.975C2003.64 495.35 1999.79 519.871 1999.38 540.496C1998.65 575.187 1999.18 609.926 1999.18 646.091H1864.04C1862.66 628.46 1861.24 610.829 1859.94 594.529C1835.95 594.529 1811.96 595.099 1788.09 593.816C1785.21 593.673 1780.71 583.694 1780.38 578.039C1779.37 560.693 1780.02 543.205 1779.97 525.764C1779.93 504.236 1769.83 492.403 1751.28 492.023C1707.92 491.12 1694.85 509.464 1700.09 561.263C1702.32 583.551 1701.79 606.219 1702.89 628.697C1703.58 643.477 1697.41 648.229 1685.64 647.706C1654.46 646.233 1623.33 645.093 1592.15 644.38C1583.75 644.19 1575.3 646.186 1565.85 647.326C1565.48 640.34 1564.91 634.21 1564.87 628.032C1564.68 602.972 1554.2 590.458 1533.41 590.489C1518.52 590.489 1503.66 590.489 1488.76 590.347C1486.77 590.347 1484.78 589.824 1479.59 589.111C1479.59 567.726 1479.67 545.913 1479.59 524.101C1479.46 502.763 1469.19 490.645 1450.72 490.787C1433.35 490.93 1413.87 484.657 1403.39 509.274C1401.53 513.693 1398.52 518.398 1398.64 522.865C1399.42 558.269 1400.47 593.673 1402.18 628.983C1402.82 642.526 1398.44 647.706 1387.2 647.611C1345.99 647.374 1304.75 647.516 1261.24 647.516V595.194C1236.88 595.194 1214.76 594.624 1192.72 595.384C1179.52 595.86 1174.29 589.967 1175.06 574.474C1175.83 558.697 1175.54 542.777 1175.14 526.952C1174.98 520.869 1175.06 513.028 1172.05 509.179C1161.38 495.397 1157.36 483.659 1172.95 470.685C1175.54 468.499 1175.06 460.421 1175.1 455.051C1175.3 430.481 1176.03 405.865 1174.77 381.391C1174.2 370.556 1168.52 360.196 1166.74 349.313C1165.36 340.902 1165.32 331.682 1166.74 323.271C1168.44 312.911 1174.69 302.979 1174.69 292.857C1174.69 264.771 1172.62 236.638 1171.12 208.552C1170.11 189.02 1176.15 181.084 1194.3 181.226C1319.45 182.082 1444.6 181.654 1569.74 181.654C1576.97 181.654 1584.24 181.654 1593.61 181.654V130.663C1595.68 130.663 1597.75 130.663 1599.78 130.71V242.008C1597.63 242.055 1595.52 242.15 1593.37 242.198C1593.37 230.745 1592.72 219.244 1593.53 207.886C1594.71 190.968 1588.29 186.074 1574.49 186.121C1443.82 186.549 1313.15 186.359 1179.4 186.359C1179.4 231.838 1178.22 271.899 1180.42 311.77C1180.86 319.564 1193.61 330.637 1202.01 332.728C1216.14 336.197 1231.36 333.678 1246.95 333.678C1247.8 324.269 1248.49 316.618 1249.38 307.113H1364.91C1365.48 314.954 1366.01 322.653 1366.78 332.87H1483.73C1483.73 372.267 1483.73 409.191 1483.73 446.116C1483.73 471.398 1493.83 483.897 1514.9 484.657C1516.73 484.705 1518.6 483.802 1520.38 484.039C1564.26 490.122 1568.89 484.705 1562.07 431.955H1700.17C1702.56 445.974 1702.48 458.33 1706.83 467.882C1714.34 484.372 1741.61 494.161 1758.91 485.18C1772.79 477.956 1780.91 464.507 1780.58 443.075C1779.33 367.039 1779.61 290.956 1780.42 214.872C1780.62 195.673 1775.23 189.971 1759.31 190.778C1732.97 192.109 1706.54 191.159 1680.16 191.159C1662.82 191.159 1645.49 191.159 1625.76 191.159V243.053C1612.53 234.119 1608.47 171.199 1620.2 129.997C1621.05 139.074 1623.94 148.626 1622.43 157.133C1618.54 179.516 1627.91 182.177 1643.58 181.939C1689.49 181.131 1735.36 181.654 1784.12 181.654C1784.12 191.729 1784.12 200.14 1784.12 208.504C1784.12 287.724 1784.12 366.992 1784.12 446.211C1784.12 473.394 1795.03 485.893 1818.54 485.94C1832.58 485.94 1846.59 485.94 1859.01 485.94C1861.49 482.804 1863.27 481.568 1863.23 480.475C1862.07 449.142 1874.52 433.523 1900.58 433.618C1932.89 433.665 1965.2 433.618 1995.44 433.618C1999.18 446.877 2001.41 457.617 2005.14 467.596C2012.29 486.796 2026.78 486.986 2041.92 486.178C2056.09 485.37 2070.38 485.275 2084.5 486.273C2101.11 487.413 2113.97 485.132 2108.37 458.662H2224.92C2225.85 466.789 2226.78 475.01 2227.88 484.61H2257.11C2268.84 441.982 2292.26 415.892 2334.6 424.589V360.814C2353.84 349.313 2354 344.228 2333.3 325.504C2346.13 314.337 2359.77 302.646 2331.63 290.195C2347.75 275.558 2359.4 260.969 2327.05 249.706C2337.11 244.194 2342.11 241.437 2348.68 237.826C2347.18 233.121 2346.9 227.466 2344.46 225.47C2329.65 213.209 2334.48 193.63 2333.22 178.042C2331.27 153.568 2335.86 128.476 2335.57 103.67C2335.49 98.2998 2326.48 88.4626 2321.61 88.4626C2231 88.6527 2140.44 90.2685 2049.84 91.0288C1991.22 91.5516 1932.56 91.6466 1873.91 91.0288C1839.32 90.6487 1804.74 87.6547 1770.15 87.4171C1731.34 87.132 1692.54 88.8903 1653.73 89.0804C1635.91 89.1279 1618.05 86.7993 1600.23 86.7043C1524.52 86.4192 1448.82 86.039 1373.11 86.7993C1330 87.227 1286.89 89.0329 1243.82 91.6941C1229.9 92.5496 1216.18 97.9671 1202.66 101.246C1202.78 100.866 1203.96 97.3968 1207.41 87.1795C1184.43 91.8842 1164.18 94.6881 1144.73 100.961C1139.99 102.482 1134.95 115.17 1134.95 122.726C1134.87 215.3 1135.6 307.921 1136.37 400.495C1136.94 468.119 1137.59 535.744 1138.97 603.321C1139.13 611.209 1145.1 618.718 1146.6 626.844C1148.18 635.303 1148.96 644.617 1147.66 653.029C1145.75 665.432 1139.62 677.218 1139.05 689.479C1137.71 717.042 1138.65 744.795 1138.65 775.779H1182.32C1182.32 777.965 1182.32 780.151 1182.32 782.29H1091.07C1090.95 780.627 1090.79 779.011 1090.66 777.348C1104.71 776.54 1118.75 775.779 1134.63 774.876C1134.63 739.852 1135.68 705.921 1133.9 672.228C1133.45 663.769 1125.09 651.936 1118.11 648.99C1110.6 645.806 1097.32 647.469 1091.88 653.552C1051.29 698.888 1011.87 745.745 972.539 792.602C969.372 796.357 968.642 803.913 968.317 809.805C967.668 821.448 968.114 833.139 968.114 846.017H704.259C704.259 813.75 704.259 781.577 704.259 749.452C704.259 743.131 706.086 732.486 703.853 731.108C680.959 717.089 689.24 690.857 685.059 669.662C684.612 667.381 683.922 664.957 684.125 662.723C685.668 643.667 687.535 624.658 688.956 605.602C689.199 602.56 687.373 599.376 687.089 596.192C686.48 589.587 683.719 580.652 686.317 576.708C709.333 541.494 704.462 500.577 703.772 461.086C703.366 438.56 709.78 432.858 728.209 433.238C789.058 434.473 849.948 433.523 910.797 433.903C917.657 433.903 924.558 436.992 931.418 438.608C857.458 440.414 783.456 442.22 708.278 444.025C708.278 480.285 708.928 514.263 707.832 548.194C707.547 557.461 701.093 566.253 699.023 575.757C697.724 581.698 697.967 593.483 699.794 594.149C714.529 599.614 711.526 604.271 700.931 611.779C696.912 614.583 694.558 620.571 690.742 626.131C698.495 631.929 704.503 636.349 710.511 640.863C698.252 652.269 698.752 665.971 712.013 681.97C697.562 690.286 682.42 698.983 708.684 713.05C710.308 713.905 711.404 718.42 711.323 721.176C710.47 753.349 710.064 785.521 708.035 817.599C706.736 838.034 713.677 843.166 730.158 842.976C801.886 842.121 873.573 842.643 945.301 842.548C951.187 842.548 957.032 841.74 966.044 841.028C963.649 824.727 965.07 807.619 958.656 796.879C947.412 778.013 931.459 762.901 917.332 746.458C893.22 718.372 867.281 692.14 845.442 661.821C831.234 642.099 816.702 640.721 800.911 644.047C797.502 657.781 794.701 668.996 791.94 680.212C790.763 679.594 789.545 678.976 788.368 678.311V602.893C790.438 602.75 792.468 602.608 794.538 602.513C796.203 613.871 797.826 625.276 799.45 636.301C828.433 647.089 842.803 622.805 859.203 603.273C883.64 574.189 906.331 542.587 933.245 517.162C954.962 496.633 965.191 475.723 958.534 445.879C948.427 443.027 939.618 440.556 930.85 438.085L930.687 437.99ZM1983.51 475.77C1984.69 483.041 1984.48 491.31 1987.53 497.298C1989.52 501.195 1999.14 504.807 2000.27 503.286C2003.89 498.439 2006.85 491.168 2006.73 484.895C2006.65 480.523 2001.69 473.727 1997.88 472.586C1993.45 471.256 1987.97 474.915 1982.94 476.436C1986.11 466.313 1989.27 456.191 1992.84 444.786H1874.84V631.359H1991.18C1991.18 602.608 1991.59 575.757 1991.02 548.907C1990.65 531.562 1995.52 512.933 1981.03 498.296C1978.31 495.587 1982.53 483.469 1983.51 475.723V475.77ZM1387.85 470.353C1385.98 475.913 1381.43 482.709 1382.81 486.796C1385.09 493.639 1390.73 499.436 1395.96 504.094C1397.06 505.044 1405.63 498.961 1405.59 496.252C1405.46 488.506 1403.8 480.047 1400.39 473.489C1398.89 470.59 1391.86 471.636 1387.32 470.876C1388.33 462.131 1389.39 453.387 1390.4 444.881H1271.38V632.072H1390.28C1390.28 597 1390.85 563.164 1389.88 529.423C1389.63 520.299 1385.65 510.652 1381.59 502.43C1374.78 488.649 1370.76 477.006 1387.85 470.353ZM1394.42 434.758C1398.36 447.637 1400.84 458.187 1404.69 468.072C1414.72 493.781 1434.89 484.419 1451.86 485.988C1469.15 487.556 1477.76 471.018 1478.61 457.997C1481.25 418.886 1479.55 379.395 1479.55 336.72C1446.83 338.716 1419.35 342.85 1392.15 341.234C1374.49 340.189 1361.87 338.573 1365.24 367.467H1249.91C1248.53 358.39 1247.39 351.167 1246.18 343.278C1232.05 343.278 1219.26 343.135 1206.44 343.278C1188.45 343.515 1179.24 354.541 1179.08 376.163C1178.91 400.732 1178.39 425.302 1179.36 449.776C1179.64 457.284 1183.18 465.601 1187.24 471.683C1205.26 498.534 1230.55 482.566 1252.55 483.564C1254.7 483.659 1257.7 456.571 1260.38 442.124C1260.79 439.938 1261.44 437.8 1262.17 434.663H1394.34L1394.42 434.758ZM961.294 493.734C919.93 543.157 880.352 590.394 841.383 637.014C884.452 687.768 925.288 735.86 966.531 784.428C982.322 764.469 997.706 744.272 1013.82 724.835C1033.55 700.979 1053.77 677.693 1073.98 654.36C1082.71 644.285 1087.01 635.446 1072.19 627.652C1069.27 626.131 1066.92 622.852 1064.6 620.048C1031.8 580.034 999.087 539.926 961.294 493.734ZM1690.63 444.643H1574.29V631.644H1690.67C1690.67 597.523 1693.76 564.685 1689.78 533.035C1686.08 503.523 1677.11 475.248 1690.63 444.643ZM664.397 133.894C715.91 133.894 765.149 134.037 814.388 133.751C824.171 133.704 830.991 128.904 830.138 115.17C829.53 105.713 830.138 96.2088 830.138 86.7043C830.193 57.4622 817.514 42.2867 792.103 41.1778C790.844 41.1303 789.627 40.0848 788.409 40.0848C747.085 40.0373 705.761 40.0373 664.478 40.0373V133.894H664.397ZM1259.61 494.019C1248.33 494.019 1238.46 493.211 1228.76 494.209C1216.14 495.54 1201.85 494.637 1191.46 501.432C1174.65 512.41 1175.02 563.449 1187.93 586.307H1259.61V494.019ZM1483.61 585.785C1508.12 585.785 1529.68 586.688 1551.11 585.072C1555.9 584.692 1563.86 575.71 1564.14 570.245C1565.52 544.488 1564.75 518.588 1564.75 490.645C1543.28 490.645 1523.51 488.126 1504.63 491.833C1496.64 493.401 1485.92 507.135 1484.5 516.925C1481.45 538.31 1483.56 560.74 1483.56 585.737L1483.61 585.785ZM1859.13 584.644C1861.28 558.507 1863.27 534.365 1865.3 510.224C1866.52 495.967 1861.24 489.837 1848.9 490.55C1837.41 491.215 1825.84 491.643 1814.44 490.36C1793.86 488.079 1787 504.807 1784.76 522.437C1782.21 542.349 1784.16 563.069 1784.16 584.644H1859.13ZM2344.22 437.8C2332.53 449.063 2321.97 459.85 2310.93 469.83C2295.02 484.229 2294 498.724 2311.3 508.703C2323.03 515.452 2332.97 522.437 2340 535.173C2340.89 536.789 2343.37 537.217 2344.83 538.025C2374.18 516.64 2376.57 466.313 2344.22 437.752V437.8ZM1257.5 320.229C1255.8 345.1 1264.93 357.55 1284.9 357.582C1308.28 357.582 1331.67 357.582 1355.7 357.582V320.229H1257.5ZM2325.1 798.257H2355.18V686.722H2325.1V798.257ZM2213.55 472.824H2116.94C2120.39 486.891 2107.15 508.038 2130.7 509.369C2158.3 510.889 2186.03 509.749 2213.55 509.749V472.871V472.824ZM2267.7 484.562H2290.72C2291.41 471.778 2292.02 460.516 2292.75 447.162C2306.39 466.741 2320.76 460.848 2333.38 433.428C2302.77 420.882 2269.81 445.641 2267.74 484.562H2267.7ZM2288.52 490.36C2280.41 496.062 2268.23 500.957 2268.39 505.092C2269.73 535.268 2312.6 557.746 2331.03 542.872C2322.09 533.89 2312.72 524.481 2302.57 514.263C2300.42 519.348 2298.39 524.148 2293.96 534.603C2292.02 518.731 2290.84 509.084 2288.52 490.36ZM1695.83 465.743C1689.94 476.483 1683.44 483.184 1683.61 489.694C1683.73 494.874 1691.93 499.817 1696.56 504.854C1700.82 498.914 1707.68 493.449 1708.45 486.938C1709.06 481.853 1702.04 475.58 1695.87 465.743H1695.83Z" fill="#808080" fill-opacity="0.5"/>
<path d="M1808.12 899.833C1818.27 881.546 1834.15 873.329 1850.88 877.698C1871.56 883.113 1893.49 892.376 1897.3 922.11C1899.58 939.827 1906.85 943.627 1920.21 942.439C1932.19 941.394 1944.29 942.202 1958.71 942.202C1958.71 974.026 1958.83 1003.86 1958.67 1033.68C1958.54 1055.96 1964.43 1076.67 1968.25 1097.76C1971.3 1114.53 1955.94 1137.99 1958.54 1161.36C1959.64 1171.29 1958.75 1181.55 1958.75 1193.99H2042.85C2043.46 1196.99 2044.11 1200.03 2044.72 1203.02C2037.09 1205.68 2029.45 1208.29 2021.73 1211C2031.72 1246.19 2037.41 1251.51 2068.48 1250.99C2093.21 1250.61 2118.06 1250.75 2142.55 1247.29C2148.52 1246.43 2153.15 1232.42 2161.68 1219.5H2270.4C2271.05 1227.15 2271.66 1234.75 2272.47 1244.34H2467.93V390.836C2462.08 392.213 2459.12 393.496 2456.19 393.448C2445.96 393.353 2431.82 397.628 2426.34 391.453C2415.95 379.816 2407.05 363.001 2403.93 346.662C2400.72 329.942 2405.91 311.18 2406.08 293.321C2406.24 275.223 2404.05 257.079 2404.17 238.982C2404.25 230.48 2406 221.122 2409.49 213.76C2413.83 204.64 2420.78 197.278 2426.59 189.108C2425.25 186.686 2423.91 184.263 2422.57 181.841H2554.1C2555.32 204.735 2557.6 229.292 2557.76 253.802C2558.73 402.615 2559.51 551.477 2559.83 700.29C2560.16 859.886 2559.91 1019.48 2559.91 1179.03C2559.91 1254.03 2559.91 1329.03 2559.91 1408.21C2532.54 1408.21 2501.96 1408.02 2471.42 1408.26C2425.37 1408.64 2379.36 1409.73 2333.3 1409.88C2283.55 1410.02 2233.85 1408.78 2184.1 1409.21C2134.19 1409.64 2084.32 1411.4 2034.41 1412.58C2015.56 1435.33 2000.37 1413.58 1982.55 1409.35C1958.71 1403.75 1933.04 1409.35 1908.15 1409.21C1840.12 1408.97 1772.1 1408.12 1704.03 1407.83C1657.05 1407.64 1610.02 1407.45 1563.03 1408.21C1537.49 1408.64 1510.97 1406.46 1486.85 1414.06C1469.95 1419.37 1457.73 1415.96 1441.12 1407.79C1452.12 1400.76 1461.63 1394.72 1466.14 1391.83C1477.3 1396.96 1483.96 1402.61 1490.58 1402.66C1654.37 1403.13 1818.19 1402.99 1981.98 1403.08C1998.18 1403.08 2006.34 1390.54 2007.03 1375.3C2008.7 1338.25 2007.56 1301.06 2007.56 1259.92C1980.11 1257.93 1953.47 1256.03 1926.83 1254.13C1926.54 1252.42 1926.3 1250.66 1926.01 1248.95C1933.49 1247.52 1940.96 1246.1 1949.65 1244.48C1943.11 1230.14 1936.61 1215.94 1928.74 1198.6C1938.36 1195.94 1945.75 1193.95 1954.69 1191.48C1954.69 1171.67 1955.17 1151.2 1954.52 1130.72C1954 1113.34 1944.41 1104.13 1930.52 1103.84C1890.64 1103.08 1850.76 1103.27 1810.92 1103.75C1796.75 1103.94 1788.51 1113.77 1788.34 1130.39C1787.94 1165.21 1786.64 1200.22 1788.95 1234.89C1790.17 1253.18 1785.46 1256.74 1772.1 1255.79C1761.3 1255.03 1750.37 1256.6 1739.65 1255.46C1722.72 1253.7 1711.14 1257.83 1714.76 1282.96H1598.45C1599.54 1274.17 1600.6 1266.05 1601.82 1256.31H1524.25C1524.25 1222.54 1524.57 1189.96 1524.13 1157.37C1523.88 1139.94 1528.88 1120.84 1514.02 1106.83C1511.82 1104.74 1510.93 1095.72 1512.68 1093.63C1533.67 1068.83 1520.72 1038.05 1524.09 1010.27C1524.86 1004.05 1523.48 997.49 1524.33 991.316C1528.8 957.734 1507.56 938.639 1478.56 953.411C1460.49 962.626 1453.46 949.897 1438.93 947.474C1450.38 939.922 1459.23 934.079 1468.25 928.142C1490.34 958.684 1509.55 938.639 1529.2 921.635C1547.11 952.984 1572.54 939.779 1596.54 941.489C1597.11 932.132 1597.59 924.437 1598.12 915.127H1713.98C1714.63 923.25 1715.24 930.897 1716.01 940.349H1782.82C1792.04 925.72 1800.4 912.373 1808.81 899.025C1803.65 912.753 1798.46 926.432 1793.09 940.682C1815.84 947.284 1808.89 922.775 1817.18 911.423C1832.45 920.21 1847.55 928.95 1863.39 938.069C1865.22 926.527 1866.72 916.695 1868.27 906.863C1869.69 907.053 1871.11 907.29 1872.49 907.48C1873.22 918.69 1873.95 929.9 1874.76 942.487C1882.03 941.727 1887.72 941.157 1893.24 940.587C1893.61 911.803 1874.07 884.776 1851.25 885.773C1836.79 886.391 1822.58 894.75 1808.24 899.643L1808.12 899.833ZM1890.36 979.013C1891.54 968.849 1892.71 958.684 1893.85 948.614C1862.01 941.252 1880.29 975.783 1867.33 986.803C1865.79 973.456 1864.53 962.769 1863.31 952.367C1846.62 962.151 1831.8 970.844 1817.95 978.966C1807.63 968.944 1819.94 944.292 1798.33 947.807C1795.08 972.601 1804.06 990.793 1822.78 999.438C1850.15 1012.07 1872.08 1002.19 1891.01 978.206C1885.48 1005.33 1866.24 1009.98 1847.51 1010.93C1810.8 1012.78 1792.73 986.471 1786.48 946.999C1770.56 946.999 1756.34 947.712 1742.21 946.809C1725.07 945.717 1709.68 945.812 1714.76 973.789H1598.08C1597.35 964.384 1596.78 956.689 1596.05 946.952C1583.95 946.952 1572.62 946.904 1561.25 946.952C1539.4 947.094 1528.23 960.061 1528.15 985.568C1528.07 1011.69 1527.62 1037.82 1528.51 1063.89C1528.72 1070.21 1532.57 1077.38 1536.43 1082.42C1554.14 1105.65 1576.31 1089.54 1596.29 1094.25C1597.11 1083.13 1597.63 1075.44 1598.24 1067.22H1713.7C1714.88 1076.91 1715.85 1085.08 1716.95 1094.25C1731.04 1094.25 1745.82 1099.09 1756.22 1093.25C1777.42 1081.37 1795.73 1090.64 1816.12 1093.06C1851.57 1097.33 1887.72 1094.44 1923.54 1094.2C1944.49 1094.06 1954.65 1081.71 1954.65 1057.29C1954.65 1027.18 1954.97 997.063 1954.32 966.996C1954.08 955.169 1951.8 944.292 1937.14 946.667C1926.54 948.377 1915.62 946.999 1906.28 946.999C1900.55 958.636 1895.52 968.754 1890.48 979.013H1890.36ZM2552.6 1403.37V192.956H2425.53C2427.15 202.123 2428.45 209.485 2429.31 214.235C2423.13 220.505 2418.5 225.207 2413.87 229.91C2418.87 236.607 2423.91 243.257 2429.51 250.714C2424.43 255.559 2418.95 260.736 2406.08 273.039C2417.16 277.788 2426.06 281.588 2434.95 285.388C2398 304.293 2427.32 316.69 2430.44 328.992C2424.19 333.6 2418.54 337.732 2414.93 340.392C2422.12 356.446 2428.09 369.889 2435.48 386.418C2441.25 386.418 2451.07 384.376 2459.85 387.131C2465.53 388.936 2473.37 397.295 2473.78 403.375C2475.4 426.697 2474.43 450.257 2474.51 473.769C2475.28 715.822 2476.13 957.829 2476.7 1199.88C2476.74 1218.31 2474.67 1236.79 2473.49 1256.74H2272.63C2271.57 1266.67 2270.72 1274.93 2269.87 1283.24H2154.61C2153.88 1273.89 2153.19 1265.67 2152.66 1259.02H2012.88C2013.86 1284.15 2014.95 1306 2015.36 1327.84C2015.52 1337.15 2015.12 1346.8 2013.33 1355.82C2007.85 1383.66 2020.76 1403.27 2045.49 1403.27C2139.55 1403.37 2233.6 1403.42 2327.66 1403.42C2402.71 1403.42 2477.72 1403.42 2552.56 1403.42L2552.6 1403.37ZM1596.33 1103.79C1582.2 1103.79 1569.45 1103.7 1556.7 1103.79C1540.33 1103.94 1527.9 1118.52 1528.43 1137.37C1528.8 1150.01 1530.38 1162.6 1530.54 1175.28C1530.91 1200.12 1530.67 1225.01 1530.67 1248.24H1599.95C1599.1 1236.55 1598.49 1227.81 1597.88 1219.4H1709.68C1715.41 1231.8 1719.34 1248.81 1724.02 1249.04C1743.59 1250.14 1763.37 1246.19 1784.08 1244.01C1784.08 1205.82 1785.58 1168.58 1783.1 1131.63C1782.45 1121.79 1770.84 1107.69 1762.15 1105.03C1747.77 1100.56 1731.65 1103.84 1716.34 1103.84C1715.24 1114.77 1714.39 1123.03 1713.7 1130.2H1598.2C1597.71 1122.65 1597.19 1114.86 1596.46 1103.79H1596.33ZM1706.07 1233.75H1610.26V1268.99H1706.07V1233.75ZM1704.56 1117.23C1706.71 1115.29 1708.91 1113.34 1711.06 1111.35C1705.66 1100.94 1700.99 1082.28 1694.78 1081.52C1667 1078.24 1638.81 1080.09 1610.87 1080.09V1117.19H1704.6L1704.56 1117.23ZM1702.13 923.25C1673.5 923.25 1646.04 922.395 1618.67 924.057C1613.96 924.342 1606.37 935.172 1606.12 941.394C1605.84 949.232 1611.48 964.051 1615.14 964.289C1643.85 966.189 1672.64 965.334 1702.13 965.334V923.202V923.25ZM2166.76 1268.9H2257.85V1233.89H2166.76V1268.9ZM1964.51 1244.39C1993.71 1255.31 1992.58 1225.44 2004.35 1211.09C1975.97 1200.5 1974.75 1228.29 1964.51 1244.39Z" fill="#808080" fill-opacity="0.5"/>
<path d="M1136.33 988.216C1150.42 991.178 1160.61 993.327 1170.81 995.429C1147.9 1009.76 1114.4 1007.28 1104.81 993.327C1115.13 992.037 1123.94 990.987 1132.67 989.888C1135.64 963.186 1128.57 952.869 1106.64 952.869C874.839 952.773 642.995 952.725 411.192 953.155C404.654 953.155 398.116 958.505 391.943 966.864C383.009 961.753 374.074 956.594 365.1 951.436C379.435 934.908 381.587 934.67 399.659 942.551C403.842 944.366 409.04 943.172 413.751 943.172C458.422 943.172 503.093 942.694 547.724 943.363C581.552 943.841 615.34 946.993 649.127 946.802C774.694 946.086 900.261 944.462 1025.79 943.268C1052.83 943.029 1079.92 942.933 1107.01 943.315C1125.12 943.602 1134.78 934.526 1134.7 912.458C1134.58 880.741 1134.7 848.976 1134.7 816.59C1118.95 814.393 1104.33 812.387 1089.67 810.333C1090.11 808.088 1090.56 805.843 1090.97 803.55H1183.19C1183.23 806.034 1183.31 808.47 1183.35 810.954C1169.47 812.482 1155.54 814.058 1138.85 815.921C1138.85 850.457 1138.64 885.947 1139.17 921.438C1139.21 924.686 1145.63 927.648 1145.95 931.135C1146.85 941.452 1147.37 952.2 1145.79 962.279C1144.41 970.925 1139.9 978.902 1136.41 988.121L1136.33 988.216Z" fill="#808080" fill-opacity="0.5"/>
<path d="M616.516 841.727C616.516 803.071 616.231 767.167 616.76 731.31C616.841 724.907 618.836 716.844 622.499 712.48C635.929 696.591 635.197 691.516 614.969 681.556C620.789 675.105 626.324 668.987 632.877 661.777C629.702 657.556 627.383 653.857 624.534 650.868C621.807 647.975 618.51 645.746 615.01 642.853C621.278 636.45 626.609 630.948 635.563 621.841C628.278 615.391 622.132 609.984 615.987 604.577C624.9 593.004 639.714 582.38 617.533 568.72C614.847 567.06 615.539 557.004 615.498 550.839C615.335 516.167 615.417 481.543 615.417 442.983C592.829 442.983 569.467 443.41 546.106 442.84C530.355 442.461 529.256 439.947 533.937 417.75C543.542 455.172 568.613 430.129 585.828 437.528C596.37 442.034 609.475 438.382 623.516 438.382C623.516 473.385 623.516 507.108 623.516 540.783C623.516 546.285 621.888 554.775 624.289 556.862C650.5 580.055 635.97 610.411 636.092 638.347C636.174 656.465 639.023 674.536 639.307 692.654C639.43 700.623 638.453 713.144 634.261 715.895C620.993 724.622 623.475 737.665 623.475 750.566C623.475 782.961 623.475 815.308 623.475 846.422C578.828 846.422 534.791 846.422 490.795 846.422C462.713 846.422 434.63 846.328 406.548 846.422C394.867 846.47 383.186 843.624 375.331 860.509C373.419 864.635 355.877 861.932 347.574 857.331C344.726 855.766 345.173 833.332 349.487 830.154C355.674 825.553 366.947 828.494 375.576 830.676C381.029 832.051 385.669 841.158 390.716 841.205C465.887 841.917 541.1 841.679 616.557 841.679L616.516 841.727ZM363.244 869.853C369.552 856.857 375.494 850.027 374.395 845.664C372.686 838.928 366.052 833.948 361.534 828.209C357.953 833.711 351.726 839.118 351.522 844.81C351.319 850.833 356.895 857.094 363.244 869.9V869.853Z" fill="#808080" fill-opacity="0.5"/>
<path d="M2204.67 763.834C2189.11 761.892 2174.84 760.14 2160.54 758.341C2160.9 755.406 2161.27 752.423 2161.59 749.487H2257.18C2255.75 755.137 2241.63 759.92 2214.83 763.834V888.216C2224.34 889.447 2232.92 890.583 2241.53 891.672C2241.37 893.424 2241.25 895.176 2241.09 896.928H2178.3C2178.13 895.176 2177.97 893.424 2177.77 891.672C2186.38 890.536 2195 889.399 2204.63 888.168V763.834H2204.67Z" fill="#808080" fill-opacity="0.5"/>
<path d="M542.981 282.633H573.813C572.786 256.615 571.842 232.63 570.898 207.747C554.928 206.896 540.518 206.139 521.879 205.193C542.652 193.697 615.975 193.745 624.966 205.193H578.739V279.132C589.372 282.018 598.774 284.572 608.134 287.127C607.559 290.155 606.943 293.182 606.369 296.162C585.102 293.797 562.646 303.306 542.406 290.391L542.94 282.633H542.981Z" fill="#808080" fill-opacity="0.5"/>
<path d="M1295.25 978.02C1287.49 966.006 1276.67 954.945 1273.61 941.5C1272.47 936.494 1288.76 922.382 1298.67 919.187C1303.98 917.471 1319.37 931.631 1318.63 936.16C1316.39 950.463 1308.67 963.622 1303.08 977.257C1300.47 977.496 1297.86 977.782 1295.25 978.02Z" fill="#808080" fill-opacity="0.5"/>
<path d="M665.771 560.271V717.54C661.966 714.103 655.249 710.856 655.249 707.562C654.779 661.679 655.155 615.797 655.625 569.915C655.625 568.339 658.725 566.811 665.771 560.271Z" fill="#808080" fill-opacity="0.5"/>
<path d="M543.355 385.805C499.59 418.312 456.634 454.33 400.775 444.087C391.27 442.356 382.574 442.933 374.929 455.1C371.491 460.582 356.121 460.918 349.77 456.398C345.564 453.417 344.229 432.45 347.95 428.844C353.734 423.265 368.012 420.669 373.351 425.381C401.827 450.387 431.92 442.837 460.315 431.392C488.993 419.851 515.729 401.337 543.315 385.853L543.355 385.805ZM379.055 439.086C371.774 433.123 365.707 424.564 361.824 425.814C356.282 427.593 350.175 435.864 348.719 442.693C347.99 446.203 357.698 457.456 361.096 456.59C367.001 455.052 371.653 446.829 379.055 439.086Z" fill="#808080" fill-opacity="0.5"/>
<path d="M314.062 348.942C326.231 358.393 341.223 366.947 332.355 388.259C329.373 395.489 318.954 404.231 313.665 402.861C305.155 400.64 293.861 392.37 291.276 383.533C284.874 361.607 302.808 357.307 314.062 348.942Z" fill="#808080" fill-opacity="0.5"/>
<path d="M2378.15 361.181C2376.86 311.263 2368.91 261.297 2376.17 211.379C2378.75 211.379 2381.32 211.379 2383.89 211.331V361.086C2381.96 361.086 2380.08 361.181 2378.15 361.229V361.181Z" fill="#808080" fill-opacity="0.5"/>
<path d="M1778.78 751.945C1784.44 767.756 1790.14 783.519 1795.8 799.33L1801.06 800.044C1802.94 785.138 1804.83 770.185 1806.96 753.326C1813.06 752.993 1820.04 752.564 1829.8 752.041V803.664C1828.15 803.759 1826.55 803.854 1824.9 803.997C1824.9 794.472 1825.99 784.757 1824.54 775.566C1823.54 769.232 1819.04 763.661 1816.11 757.708C1813.98 763.422 1811.21 768.994 1809.93 774.995C1808.68 780.852 1809.61 787.281 1808.52 793.234C1805.91 807.759 1794.75 809.283 1789.86 800.902C1778.26 781.043 1771.31 790.948 1761.07 802.14L1774.24 752.183L1778.78 751.993V751.945Z" fill="#808080" fill-opacity="0.5"/>
<path d="M2113.29 874.813V810.922C2122.79 815.279 2134.8 816.558 2137.24 822.904C2141.46 833.845 2142.56 849.048 2139.35 860.225C2137.52 866.714 2124.66 868.892 2113.29 874.813Z" fill="#808080" fill-opacity="0.5"/>
<path d="M313.597 569.366C315.465 559.224 315.262 543.609 319.28 541.958C330.118 537.477 342.946 537.524 354.596 539.222C356.95 539.552 358.98 554.978 358.615 563.281C358.493 566.724 351.795 572.433 347.979 572.527C337.466 572.857 326.952 570.781 313.557 569.366H313.597Z" fill="#808080" fill-opacity="0.5"/>
<path d="M1290.74 899.385V840.409C1299.82 843.123 1312.49 842.638 1314.65 848.405C1318.86 859.551 1320.06 875.494 1316.77 886.883C1314.92 893.328 1301.67 894.588 1290.78 899.385H1290.74Z" fill="#808080" fill-opacity="0.5"/>
<path d="M478.926 263.506C505.525 261.437 507.023 263.265 508.966 299.018C509.573 310.375 499.978 315.572 478.926 314.369V263.506Z" fill="#808080" fill-opacity="0.5"/>
<path d="M1509.8 61.3851V0C1520.44 8.51361 1532.96 12.9155 1534.41 20.6068C1541.06 55.5803 1539.92 55.919 1509.8 61.4335V61.3851Z" fill="#808080" fill-opacity="0.5"/>
<path d="M921.342 1147.58C929.015 1149.98 935.492 1152.02 941.854 1154C945.53 1188.09 938.693 1203.88 921.342 1201.38V1147.58Z" fill="#808080" fill-opacity="0.5"/>
<path d="M1217.72 234.429C1244.28 231.945 1244.04 231.945 1244.7 262.43C1244.86 269.102 1247.38 275.725 1249.93 287.51C1241.56 278.16 1236.69 272.705 1231.83 267.251C1227.58 272.9 1223.29 278.549 1217.72 285.951V234.429Z" fill="#808080" fill-opacity="0.5"/>
<path d="M2134.76 312.943C2166.67 308.549 2173.31 320.495 2161.54 360.314C2157.76 354.593 2154.02 348.872 2150.23 343.151C2145.59 348.597 2140.91 354.044 2134.8 361.23V312.897L2134.76 312.943Z" fill="#808080" fill-opacity="0.5"/>
<path d="M839.663 1095.59C839.303 1093.15 836.74 1086.27 838.342 1084.45C843.028 1079.05 849.356 1075.61 855.044 1071.4C857.247 1077.33 861.652 1083.5 861.172 1089.09C859.97 1102.19 856.406 1115.01 853.802 1127.92C848.475 1123.14 842.107 1119.31 838.302 1113.19C836.339 1110.08 838.942 1102.91 839.703 1095.64L839.663 1095.59Z" fill="#808080" fill-opacity="0.5"/>
<path d="M2388.19 742.116V693.518C2409.42 689.764 2420.15 705.256 2420.4 739.993C2414.3 733.347 2407.87 726.332 2401.48 719.27C2397.76 725.686 2394.04 732.054 2388.23 742.116H2388.19Z" fill="#808080" fill-opacity="0.5"/>
<path d="M925.517 358.82C931.728 361.223 936.648 363.117 940.439 364.55C943.948 384.789 947.376 404.289 951.41 427.579C936.487 398.19 899.221 435.573 891.275 391.351C898.333 398.097 903.818 403.319 911.965 411.082C916.765 392.46 920.959 376.241 925.477 358.773L925.517 358.82ZM933.462 408.864C935.317 407.663 937.173 406.415 939.028 405.214C939.028 395.51 939.714 385.667 938.625 376.148C938.262 373.191 932.938 371.065 929.913 368.524C927.695 378.597 924.549 388.532 923.783 398.744C923.541 401.794 930.074 405.445 933.502 408.864H933.462Z" fill="#808080" fill-opacity="0.5"/>
<path d="M1028.25 361.227C1034.52 363.423 1045.93 364.544 1046.54 368.142C1048.82 381.411 1048.17 395.568 1046.87 409.164C1046.71 410.987 1035.01 414.444 1031.31 411.968C1026.66 408.837 1022.51 400.427 1022.3 394.12C1021.98 384.962 1025.4 375.617 1028.21 361.273L1028.25 361.227Z" fill="#808080" fill-opacity="0.5"/>
<path d="M1833.12 407.917C1837.51 423.505 1840.96 432.4 1842.35 441.707C1843.21 447.346 1842.44 454.865 1839.52 459.129C1837.55 462.063 1830.04 462.751 1826.06 461.101C1805.83 452.802 1826.92 432.491 1817.28 420.754C1822.37 416.628 1827.41 412.502 1833.12 407.917Z" fill="#808080" fill-opacity="0.5"/>
<path d="M1593.52 887.099C1587.87 881.464 1583.06 875.138 1577.05 871.72C1575.5 870.843 1570.09 879.063 1566.59 882.942C1566.31 876.708 1565.64 868.626 1565.64 860.591C1565.64 853.848 1566.35 847.152 1566.75 840.409C1573.67 841.056 1581.59 839.578 1587.19 843.042C1590.62 845.166 1591.17 854.818 1591.93 861.237C1593.04 870.473 1593.12 879.894 1593.56 887.099H1593.52Z" fill="#808080" fill-opacity="0.5"/>
<path d="M2126.17 1199.18V1145.12C2137.32 1148.29 2147.16 1151.04 2156.24 1153.59C2154.53 1169.17 2153.25 1180.86 2152.18 1190.9C2147.4 1187.68 2141.39 1183.65 2135.37 1179.58C2132.55 1185.6 2129.72 1191.61 2126.17 1199.13V1199.18Z" fill="#808080" fill-opacity="0.5"/>
<path d="M463.892 296.721C451.609 304.693 444.018 309.592 436.428 314.539C433.857 300.563 429.409 286.539 429.532 272.564C429.573 266.849 439.448 261.23 444.875 255.562C446.304 257.772 447.691 259.981 449.119 262.142C443.651 266.08 438.142 270.066 433.653 273.284C442.345 280.008 450.221 286.107 463.892 296.673V296.721Z" fill="#808080" fill-opacity="0.5"/>
<path d="M1926.44 213.894C1920.17 216.185 1915.52 217.891 1910.87 219.597C1914.46 223.107 1918.89 225.837 1921.46 230.37C1924.82 236.269 1929.58 244.653 1928.41 250.015C1927.12 255.767 1920.02 261.616 1914.8 262.884C1911.78 263.615 1905.66 256.108 1904.22 250.795C1902.22 243.532 1902.82 234.806 1903.24 226.812C1904.18 208.24 1910.57 204.34 1926.44 213.943V213.894Z" fill="#808080" fill-opacity="0.5"/>
<path d="M2069.18 834.444C2086.57 834.444 2092.69 842.317 2088.29 859.972C2087.31 863.932 2083.65 869.992 2081.39 869.896C2075.96 869.658 2066.05 866.413 2066.05 864.266C2065.89 848.138 2067.7 832.011 2068.89 815.836C2075.47 816.647 2082 817.458 2088.58 818.269C2088.38 819.319 2088.17 820.321 2087.96 821.371C2081.06 822.898 2074.19 824.377 2067.28 825.904L2069.18 834.444Z" fill="#808080" fill-opacity="0.5"/>
<path d="M1875.9 1326.27C1872.53 1323.78 1869.2 1321.34 1864.82 1318.13C1862.38 1323.83 1860.21 1328.95 1857.39 1335.6C1860.95 1336.55 1863.43 1338.23 1865.44 1337.65C1876.52 1334.54 1880.12 1345.45 1879 1353.35C1878.03 1360.09 1870.09 1365.31 1865.21 1371.2C1861.57 1365.26 1856.38 1359.95 1854.68 1353.3C1852.86 1346.08 1853.17 1337.22 1854.68 1329.71C1855.8 1323.97 1859.56 1316.08 1863.31 1314.88C1867.5 1313.59 1873.03 1318.8 1877.95 1321.2C1877.26 1322.87 1876.6 1324.59 1875.9 1326.27Z" fill="#808080" fill-opacity="0.5"/>
<path d="M1359.12 251.653C1358.38 265.075 1357.93 273.47 1357.48 281.914L1355.17 281.719V235.303C1356.53 234.668 1357.89 234.034 1359.25 233.448C1363.74 244.674 1368.27 255.948 1374.5 271.469C1380.51 256.827 1385.34 245.162 1390.12 233.497C1391.35 233.936 1392.59 234.424 1393.83 234.864V281.719C1393.41 281.816 1393 281.914 1392.59 282.011C1391.85 273.812 1391.06 265.612 1389.87 252.776C1384.55 266.442 1380.64 276.594 1375.44 289.967C1369.88 276.935 1365.39 266.344 1359.12 251.653Z" fill="#808080" fill-opacity="0.5"/>
<path d="M2450.47 810.876C2438.45 803.822 2431.5 799.731 2420.4 793.194C2422.32 786.47 2424.56 776.219 2428.59 767.143C2429.23 765.732 2441.49 767.801 2442.44 770.858C2446.28 783.037 2447.75 796.251 2450.47 810.923V810.876Z" fill="#808080" fill-opacity="0.5"/>
<path d="M624.967 1118.09V1074.53C630.116 1074.53 635.112 1072.76 638.469 1074.96C643.847 1078.51 648.119 1084.69 652.886 1089.72C649.148 1094.42 645.716 1099.59 641.635 1103.67C636.18 1109.08 630.23 1113.64 624.967 1118.09Z" fill="#808080" fill-opacity="0.5"/>
<path d="M1632.21 875.674C1623.79 885.306 1619.32 894.704 1615.17 894.469C1603.3 893.858 1596.93 883.615 1597.96 869.378C1598.39 863.646 1601.95 858.243 1604.09 852.698C1612.04 859.182 1619.95 865.666 1632.21 875.674Z" fill="#808080" fill-opacity="0.5"/>
<path d="M573.424 1196.72V1154.08C579.377 1153.53 584.645 1151.47 588.5 1153.12C594.025 1155.46 598.523 1160.49 603.491 1164.39C599.85 1169.65 596.724 1175.47 592.398 1179.96C586.573 1186.05 579.806 1191.14 573.424 1196.68V1196.72Z" fill="#808080" fill-opacity="0.5"/>
<path d="M270.604 982.935V914.13C281.876 919.668 293.744 921.187 298.785 929.273C303.39 936.673 304.303 954.168 300.214 961.666C295.134 970.929 283.186 974.506 270.604 982.935ZM273.303 964.705C275.089 966.322 276.875 967.988 278.661 969.606C284.297 965.489 292.831 962.843 294.816 956.864C297.237 949.464 295.134 938.927 292.871 930.645C292.276 928.538 279.693 928.244 279.257 929.812C276.319 941.084 275.089 952.992 273.303 964.705Z" fill="#808080" fill-opacity="0.5"/>
<path d="M47.248 111.179C48.4815 99.2898 49.7151 87.4002 50.9486 75.1879C72.4526 68.1832 71.4658 87.9071 70.4379 99.8889C69.8623 106.525 58.1029 111.963 51.3597 117.954C50.0029 115.696 48.6049 113.438 47.248 111.179Z" fill="#808080" fill-opacity="0.5"/>
<path d="M1920 185.933V130.237C1931.46 135.922 1942.15 138.453 1949.28 145.857C1953.12 149.822 1952.6 162.623 1951.04 170.648C1947.32 189.706 1934.1 187.079 1920 185.981V185.933ZM1935.1 136.208C1932.94 137.498 1930.77 138.835 1928.57 140.125V181.634C1931.17 182.494 1933.78 183.354 1936.34 184.213C1939.95 175.663 1946.35 167.065 1946.35 158.515C1946.35 151.063 1939.11 143.612 1935.06 136.208H1935.1Z" fill="#808080" fill-opacity="0.5"/>
<path d="M83.7578 971.024C88.4311 958.627 93.1045 946.183 97.7778 933.786C102.052 943.855 108.722 953.592 109.521 964.042C109.881 968.886 98.8962 974.966 93.0246 980.476C89.949 977.341 86.8334 974.158 83.7578 971.024Z" fill="#808080" fill-opacity="0.5"/>
<path d="M1906.34 399.394C1900.83 404.694 1895.28 409.993 1889.76 415.292C1887.09 408.03 1882.95 401.063 1882.04 393.457C1880.71 382.417 1881.69 370.936 1881.69 359.994C1907.6 354.645 1914.33 366.667 1905.71 400.229C1905.13 377.756 1899.29 367.615 1888.19 369.807C1889.05 381.681 1889.96 393.457 1891.06 408.374C1897.44 404.645 1901.89 401.995 1906.3 399.394H1906.34Z" fill="#808080" fill-opacity="0.5"/>
<path d="M721.611 1051.74V997.664C737.957 991.282 748.963 997.376 753.09 1016.43C756.691 1033.03 747.223 1044.45 721.611 1051.74ZM726.062 1039.7C740.911 1046.51 746.535 1036.87 746.98 1022.66C747.466 1007.12 739.9 1000.74 726.062 1004.81V1039.7Z" fill="#808080" fill-opacity="0.5"/>
<path d="M266.309 120.409V61.4326C277.419 64.9578 290.528 64.5767 295.125 71.8654C299.801 79.297 299.561 97.1136 294.965 105.069C290.329 113.168 277.779 114.787 266.309 120.409ZM275.141 108.404C281.336 105.45 289.769 104.498 291.328 100.067C293.886 92.9691 294.525 81.2501 291.128 75.7241C287.731 70.198 278.418 69.7693 270.145 66.5299C272.024 82.3934 273.383 93.6361 275.141 108.452V108.404Z" fill="#808080" fill-opacity="0.5"/>
<path d="M1743.35 412.104C1744.27 422.339 1745.56 432.575 1746.02 442.857C1746.23 447.53 1744.85 452.344 1744.22 457.064C1737.33 454.728 1730.03 453.232 1723.76 449.493C1722.01 448.465 1721.97 440.006 1723.64 436.407C1727.81 427.293 1733.41 418.974 1738.46 410.375C1740.09 410.936 1741.72 411.497 1743.35 412.104Z" fill="#808080" fill-opacity="0.5"/>
<path d="M1394.71 1439.95C1393.31 1421.15 1391.26 1406.42 1391.75 1391.79C1391.88 1387.81 1399.38 1381.89 1404.06 1381.09C1407.71 1380.42 1413.95 1385.16 1416.04 1389.47C1424.61 1406.99 1417.76 1427.31 1394.71 1440V1439.95ZM1400.37 1382.51V1426.08C1416.82 1421.81 1417.97 1404.72 1400.37 1382.51Z" fill="#808080" fill-opacity="0.5"/>
<path d="M487.259 473.82L466.405 465.854C465.327 468.2 464.29 470.595 463.212 472.941C467.234 476.948 471.546 480.712 475.277 485.061C480.252 490.877 486.762 496.4 488.752 503.584C489.747 507.201 481.704 518.833 478.428 518.491C470.592 517.611 463.129 511.795 457.449 504.513C466.488 505.539 475.485 506.517 487.342 507.836C475.36 492.099 467.234 481.396 459.066 470.644C465.119 467.516 471.048 462.53 477.226 461.993C481.165 461.651 485.476 467.955 489.664 471.23L487.301 473.723L487.259 473.82Z" fill="#808080" fill-opacity="0.5"/>
<path d="M1834.09 673.31C1845.36 678.333 1857.52 679.728 1862.62 687.263C1867.18 694.007 1867.64 710.519 1863.28 717.216C1858.26 724.937 1845.97 726.658 1834.13 732.286V673.31H1834.09ZM1837.63 715.96C1852.35 723.96 1860.65 714.891 1859.74 703.356C1859.09 694.705 1848.73 687.03 1842.64 678.937C1840.96 680.472 1839.27 682.054 1837.59 683.588V715.96H1837.63Z" fill="#808080" fill-opacity="0.5"/>
<path d="M2040.27 258.019C2028.32 241.621 2018.31 243.766 2005.91 258.019C2011.04 241.621 2016.17 225.27 2021.3 208.872C2022.86 209.063 2024.41 209.301 2025.97 209.492L2040.27 257.971V258.019Z" fill="#808080" fill-opacity="0.5"/>
<path d="M712.653 1123.01C704.145 1117.27 698.27 1113.25 689.396 1107.28C695.798 1096.52 702.605 1085.19 709.372 1073.86C713.099 1092.5 723.188 1109.95 712.653 1123.01Z" fill="#808080" fill-opacity="0.5"/>
<path d="M886.98 1201.64C875.972 1186.67 866.22 1184.09 852.617 1199.2C857.598 1182.8 862.537 1166.44 867.517 1150.03C869.15 1150.33 870.782 1150.58 872.414 1150.88C877.269 1167.78 882.124 1184.74 886.98 1201.64Z" fill="#808080" fill-opacity="0.5"/>
<path d="M863.355 344.028V280.138C873.754 284.92 885.627 286.22 889.851 293.464C894.273 301.125 894.632 316.68 890.687 324.852C886.783 332.978 875.348 336.135 863.355 344.028ZM867.419 326.895C883.834 332.513 891.604 325.084 890.289 308.554C889.094 293.417 879.93 289.378 867.419 292.953V326.895Z" fill="#808080" fill-opacity="0.5"/>
<path d="M1879.2 1344.45C1887.34 1332.46 1893.44 1323.59 1899.5 1314.68C1904.59 1324.44 1914.12 1334.59 1913.53 1343.93C1912.95 1353.41 1902.46 1362.14 1896.28 1371.2C1891.43 1363.61 1886.59 1356.07 1879.2 1344.5V1344.45ZM1893.23 1361.1C1895.7 1361.1 1898.16 1361.1 1900.62 1361.1C1911.61 1346.59 1907.39 1333.22 1899.91 1320.13C1897.7 1320.22 1895.49 1320.32 1893.23 1320.41V1361.1Z" fill="#808080" fill-opacity="0.5"/>
<path d="M869.799 1118.09C874.683 1102.3 879.327 1087.35 885.813 1066.48C891.859 1086.13 896.063 1099.71 899.866 1112.07C888.976 1114.28 880.649 1115.93 869.839 1118.09H869.799Z" fill="#808080" fill-opacity="0.5"/>
<path d="M2139.02 712.628C2128.55 708.205 2121.89 705.404 2113.29 701.767C2119.76 688.939 2126.16 676.21 2132.59 663.481C2133.92 664.022 2135.29 664.612 2136.62 665.152C2137.46 681.764 2138.3 698.326 2139.06 712.579L2139.02 712.628Z" fill="#808080" fill-opacity="0.5"/>
<path d="M1405.03 940.026C1403.94 939.447 1400.45 937.563 1397 935.679C1397.28 934.231 1397.52 932.782 1397.81 931.333C1403.41 932.395 1408.97 933.458 1415.3 934.665V973.108C1407.71 972.142 1399.71 971.128 1391.68 970.114C1395.94 960.503 1400.16 950.892 1405.03 939.978V940.026Z" fill="#808080" fill-opacity="0.5"/>
<path d="M785.185 1127.26C758.674 1129.85 757.492 1127.26 762.769 1073.86H789.659C789.87 1075.56 790.124 1077.31 790.335 1079.01C782.314 1080.47 774.293 1081.89 766.315 1083.35C765.639 1085.47 764.964 1087.65 764.289 1089.77C771.296 1092.84 778.261 1095.91 785.311 1099.02C778.937 1104.59 772.394 1110.35 765.85 1116.07C772.183 1119.75 778.473 1123.39 785.185 1127.26Z" fill="#808080" fill-opacity="0.5"/>
<path d="M161.074 938.703H179.152C180.761 947.754 182.497 957.535 184.698 970.04C177.755 972.376 170.219 974.906 161.074 978.021V938.703Z" fill="#808080" fill-opacity="0.5"/>
<path d="M2310.87 1174.77C2300.71 1187.46 2294.61 1201.54 2288.28 1201.64C2274.93 1201.91 2272.79 1186.67 2275.25 1174.3C2277.1 1164.87 2282.75 1156.46 2286.75 1147.58C2293.56 1155.25 2300.34 1162.92 2310.87 1174.77ZM2295.9 1193.73C2294.33 1178.81 2292.96 1165.43 2291.55 1152.04C2273.39 1176.44 2275.05 1187.65 2295.9 1193.73Z" fill="#808080" fill-opacity="0.5"/>
<path d="M635.705 1187.63C644.947 1173.87 651.91 1163.44 659.279 1152.49C662.822 1165.54 666.852 1175.54 667.789 1185.87C668.155 1190.25 668.644 1206.77 655.696 1195.06C651.258 1191.01 644.337 1190.68 635.705 1187.63Z" fill="#808080" fill-opacity="0.5"/>
<path d="M1095.3 334.197C1085.29 330.595 1079.15 328.367 1069.53 324.859C1076.83 311.066 1083.08 299.311 1089.29 287.508C1090.64 288.361 1091.96 289.167 1093.32 290.02C1093.98 304.904 1094.68 319.835 1095.3 334.197Z" fill="#808080" fill-opacity="0.5"/>
<path d="M431.677 407.92C420.509 403.315 412.114 399.85 403.758 396.385C409.302 389.264 414.886 382.191 423.123 371.653C415.638 372.318 409.817 372.887 404.669 373.362C414.886 359.786 424.43 360.498 426.965 375.498C427.717 380.008 426.846 384.945 427.4 389.549C427.955 393.964 429.341 398.236 431.638 407.92H431.677Z" fill="#808080" fill-opacity="0.5"/>
<path d="M142.459 110.582H122.416C123.035 98.495 123.571 86.9487 124.148 75.5006C144.768 70.9313 145.758 72.7492 142.459 110.582Z" fill="#808080" fill-opacity="0.5"/>
<path d="M214.766 95.8111C222.476 83.2702 229.212 72.3272 235.949 61.4326C237.491 61.7716 239.033 62.1589 240.575 62.4979C241.265 77.8472 241.914 93.148 242.685 110.579C232.499 105.205 225.438 101.428 214.766 95.7627V95.8111Z" fill="#808080" fill-opacity="0.5"/>
<path d="M1610.74 269.38C1601.27 267.812 1593.35 266.538 1585.43 265.214L1584.55 301.922H1609.77C1606.46 304.96 1597.41 315.791 1595.78 314.419C1587.19 307.215 1576.25 298.001 1574.41 287.464C1572.9 278.839 1581.03 263.597 1588.49 258.353C1595.53 253.403 1609.31 253.893 1610.7 269.331L1610.74 269.38Z" fill="#808080" fill-opacity="0.5"/>
<path d="M2222.82 412.115C2213.35 425.2 2207.21 433.783 2201.02 442.319C2196.21 432.517 2189.19 423.231 2187.2 412.725C2185.29 402.454 2185.2 386.179 2200.19 388.477C2207.29 389.556 2213.06 401.469 2222.82 412.115ZM2205.71 390.682C2186.03 408.691 2187.28 425.154 2205.71 433.971V390.682Z" fill="#808080" fill-opacity="0.5"/>
<path d="M1243.49 730.912C1234.19 737.667 1224.58 749.156 1220.35 746.691C1213.11 742.5 1205.66 729.976 1204.9 720.164C1204.17 710.598 1209.73 695.411 1216.16 691.319C1221.72 687.818 1232.38 696.447 1239.06 703.202C1230.81 701.871 1218.82 695.806 1215.08 700.243C1208.16 708.379 1204.45 724.7 1214.92 733.427C1219.95 737.618 1230.17 732.49 1243.49 730.912Z" fill="#808080" fill-opacity="0.5"/>
<path d="M1327.25 717.498V662.71C1346.1 656.281 1352.13 668.943 1352.93 688.618C1353.88 711.215 1347.32 718.472 1327.25 717.449V717.498ZM1330.99 672.596V707.806C1345.26 713.894 1348.77 702.449 1348.81 689.885C1348.81 676.979 1344.65 666.557 1330.99 672.596Z" fill="#808080" fill-opacity="0.5"/>
<path d="M2418.76 162.091H2390.34C2401.83 146.513 2411.14 133.909 2420.4 121.353C2419.01 119.134 2417.58 116.916 2416.19 114.744C2410.09 117.954 2403.94 121.211 2393.41 126.781C2396.91 120.22 2398.51 113.186 2401.92 111.818C2407.43 109.599 2414.13 111.062 2420.36 110.968C2417.88 124.61 2415.43 138.252 2412.95 151.942C2410.8 151.847 2408.65 151.706 2406.55 151.611C2410.42 154.963 2414.25 158.314 2418.72 162.185L2418.76 162.091Z" fill="#808080" fill-opacity="0.5"/>
<path d="M2025.24 764.051C2034.24 753.721 2040.32 746.667 2046.44 739.659C2051.21 749.261 2059.47 758.817 2059.6 768.51C2059.72 776.838 2050.51 785.302 2045.42 793.721C2039.66 785.256 2033.87 776.747 2025.24 764.051ZM2052.98 785.438C2052.32 770.33 2051.79 757.907 2051.05 740.797C2030.46 765.689 2031.28 777.884 2052.98 785.438Z" fill="#808080" fill-opacity="0.5"/>
<path d="M1713.83 870.469C1705.6 881.002 1700.36 887.713 1695.13 894.471C1689.56 885.662 1680.15 877.18 1679.49 867.906C1678.88 859.191 1687.43 849.59 1691.93 840.409C1698.28 849.124 1704.62 857.886 1713.83 870.516V870.469ZM1699.14 848.751C1696.68 848.751 1694.23 848.845 1691.77 848.845C1683.3 862.686 1683.59 876.202 1692.55 889.344C1694.76 889.344 1696.97 889.297 1699.14 889.251V848.751Z" fill="#808080" fill-opacity="0.5"/>
<path d="M798.926 1122.28V1076.91C799.502 1076.76 800.116 1076.62 800.692 1076.47C801.499 1081.79 802.305 1087.1 803.304 1093.67H820.048C821.2 1086.04 822.275 1078.74 823.351 1071.4C824.503 1071.5 825.693 1071.59 826.845 1071.64V1122.86C825.117 1105.51 820.893 1094.25 803.265 1101.31C802.689 1107.83 801.998 1115.42 801.307 1123C800.5 1122.76 799.694 1122.52 798.926 1122.28Z" fill="#808080" fill-opacity="0.5"/>
<path d="M2147.65 409.938C2155.6 400.194 2160.63 388.557 2166.1 388.28C2181.23 387.587 2183.43 403.565 2181.35 415.756C2179.83 424.577 2171.49 431.873 2166.22 439.862C2160.87 431.226 2155.56 422.637 2147.65 409.892V409.938ZM2167.41 392.528C2165.34 392.528 2163.26 392.528 2161.19 392.482V429.61C2164.5 429.61 2167.77 429.61 2171.09 429.61C2169.89 417.28 2168.65 404.904 2167.45 392.574L2167.41 392.528Z" fill="#808080" fill-opacity="0.5"/>
<path d="M345.897 361.276C352.636 363.858 365.1 366.539 365.1 369.071C365.018 380.441 361.689 391.959 358.401 402.882C358.157 403.676 348.779 400.3 343.623 398.86C345.328 393.3 346.343 387.243 348.901 382.327C351.256 377.859 355.234 374.681 358.523 370.958C353.813 369.865 349.104 368.724 344.394 367.631C344.882 365.496 345.409 363.361 345.897 361.227V361.276Z" fill="#808080" fill-opacity="0.5"/>
<path d="M1918.42 747.031C1938.84 762.459 1938.63 781.379 1927.52 806.007C1920.84 803.177 1908.16 800.959 1907.69 797.043C1905.78 780.341 1898.97 760.997 1918.37 747.031H1918.42ZM1931.14 780.435C1926.29 770.999 1922.93 764.394 1919.52 757.788C1916.33 764.252 1910.84 770.669 1910.63 777.274C1910.41 784.304 1915.18 791.523 1917.78 798.694C1921.86 793.127 1925.99 787.56 1931.18 780.482L1931.14 780.435Z" fill="#808080" fill-opacity="0.5"/>
<path d="M1314.08 815.067C1298.65 803.465 1303.37 788.108 1308.85 773.473C1310.17 769.958 1316.2 766.251 1319.56 766.733C1323.94 767.359 1331.29 771.932 1331.41 775.158C1332.01 788.637 1330.39 802.261 1329.59 815.837C1324.23 815.356 1318.88 814.874 1313.48 814.393C1333.03 808.76 1335.79 793.596 1315.39 771.114C1314.97 785.749 1314.5 800.432 1314.08 815.067Z" fill="#808080" fill-opacity="0.5"/>
<path d="M2087.52 435.025C2078.77 448.703 2072.95 457.775 2067.12 466.894C2062.11 457.3 2053.53 447.848 2053.16 438.017C2052.84 429.04 2061.41 419.636 2066.05 410.375C2072.25 417.499 2078.49 424.623 2087.52 434.977V435.025ZM2060.84 459.96C2081.81 444.666 2081.93 431.558 2060.84 414.08V459.96Z" fill="#808080" fill-opacity="0.5"/>
<path d="M1060.18 294.209C1071.55 324.898 1063.97 338.449 1035.17 336.466V282.594C1044.45 287.079 1052.56 290.998 1060.72 294.917C1053.26 296.239 1040.43 295.342 1039.34 299.213C1036.91 308.184 1039.81 319.61 1041.59 329.761C1041.82 331.13 1050.44 332.689 1051.21 331.178C1055.19 323.246 1058.25 314.511 1060.8 305.682C1061.77 302.377 1060.49 298.08 1060.22 294.209H1060.18Z" fill="#808080" fill-opacity="0.5"/>
<path d="M1294.06 812.974C1288.87 814.731 1283.69 816.537 1278.46 818.295C1276.63 804.628 1274 791.01 1273.56 777.295C1273.44 773.683 1280.94 765.922 1283.53 766.752C1288.79 768.363 1296.69 774.22 1297.05 779.003C1297.85 790.376 1294.85 802.139 1293.38 813.755C1290.47 799.454 1300.8 780.272 1283.49 770.266C1271.92 797.941 1275.75 812.389 1294.06 813.023V812.974Z" fill="#808080" fill-opacity="0.5"/>
<path d="M1007.95 358.82C1016.69 381.569 1020.24 397.838 1007.63 411.637C1005.52 413.921 996.269 412.523 995.871 410.891C992.88 399.19 989.211 386.744 990.248 375.043C990.726 369.402 1000.94 364.88 1007.99 358.773L1007.95 358.82ZM1006.28 411.544V368.004C988.214 377.001 987.337 392.244 1006.28 411.544Z" fill="#808080" fill-opacity="0.5"/>
<path d="M693.949 1155.97L677.773 1163.17C677.251 1161.65 676.73 1160.08 676.208 1158.55C681.747 1156.38 687.326 1152.27 692.785 1152.5C706.151 1153.01 708.479 1167.42 697.32 1180.35C693.387 1184.92 688.45 1188.29 680.864 1194.94C689.774 1197.21 694.952 1198.54 700.13 1199.88C700.13 1200.48 700.09 1201.04 700.05 1201.64H674.361C682.991 1186.49 690.417 1173.47 697.842 1160.4C696.518 1158.92 695.193 1157.49 693.868 1156.01L693.949 1155.97Z" fill="#808080" fill-opacity="0.5"/>
<path d="M27.8787 63.417C23.5176 70.7533 19.1564 78.0897 14.0209 86.6809C18.3005 93.6794 22.9877 101.45 27.7157 109.221C26.7782 110.09 25.8816 111.007 24.9441 111.875C20.3384 105.118 15.7327 98.3129 8.84456 88.1771C6.23602 101.064 4.76873 108.256 3.30143 115.495C2.20095 115.206 1.10048 114.964 0 114.675C0.896684 98.892 1.83413 83.1575 2.73081 67.3747C3.38294 67.1817 3.99432 67.0369 4.64645 66.8438C5.42086 70.8499 6.15451 74.8559 7.3365 81.0338C13.2465 73.0701 18.4635 66.0233 23.7214 58.9766C25.1071 60.4245 26.5337 61.8725 27.9195 63.3204L27.8787 63.417Z" fill="#808080" fill-opacity="0.5"/>
<path d="M323.586 605.058C334.203 603.22 344.819 601.429 355.396 599.591C357.199 601.288 359.002 602.984 360.805 604.681C357.44 612.882 354.956 627.257 350.589 628.058C339.691 630.132 326.47 629.284 317.095 623.298C310.765 619.292 312.809 606.378 324.187 604.398C324.107 610.808 324.066 617.171 324.026 623.534C334.884 623.581 347.384 630.839 357.159 609.3C344.339 607.697 333.962 606.378 323.586 605.058Z" fill="#808080" fill-opacity="0.5"/>
<path d="M2255.17 1204.1C2236.12 1190.85 2243.38 1171.56 2244.09 1154.58C2244.22 1151.88 2251.65 1147.06 2255.17 1147.62C2259.58 1148.29 2265.92 1152.59 2267.09 1156.85C2272 1174.3 2272.55 1191.52 2255.17 1204.1ZM2260 1149.52C2242.75 1164.41 2242.58 1180.4 2260 1197V1149.52Z" fill="#808080" fill-opacity="0.5"/>
<path d="M1870.64 256.854C1886.9 262.673 1891.43 255.757 1888.97 235.868C1883.13 235.105 1877.64 234.342 1871.49 233.531V212.497C1877.6 211.305 1883.86 210.112 1890.13 208.872C1890.51 209.969 1890.9 211.018 1891.32 212.115C1889.97 213.308 1888.63 214.452 1887.28 215.645C1884.32 218.316 1881.4 220.987 1878.48 223.706C1881.25 225.852 1884.32 227.521 1886.67 230.24C1890.4 234.533 1897.08 240.781 1896.31 243.881C1894.55 251.083 1889.97 258.81 1884.78 262.482C1881.86 264.533 1875.45 259.048 1870.6 256.902L1870.64 256.854Z" fill="#808080" fill-opacity="0.5"/>
<path d="M2427.88 731.271C2435.04 732.682 2442.15 734.092 2450.98 735.795C2450.03 720.716 2434.8 715.852 2446.09 704.178C2446.61 703.643 2442.95 695.18 2442.55 695.374C2438.3 697.125 2434.32 699.801 2428.75 697.32C2434.04 694.839 2440.01 689.294 2444.42 690.754C2448.39 692.067 2451.54 700.676 2453.36 706.805C2454.92 711.961 2455.23 718.576 2454.04 723.878C2452.53 730.541 2449.67 740.707 2445.97 741.777C2440.24 743.431 2433.29 738.616 2426.85 736.524L2427.92 731.32L2427.88 731.271Z" fill="#808080" fill-opacity="0.5"/>
<path d="M1256.83 838.195C1260.57 848.888 1267.61 859.824 1267.09 870.275C1266.69 879.081 1257.64 894.419 1252.29 894.468C1232.34 894.807 1241.23 874.049 1240.83 862.146C1240.55 854.259 1246.5 846.034 1249.67 837.953C1252.05 838.05 1254.42 838.098 1256.79 838.195H1256.83ZM1263.95 870.13C1259.29 861.807 1255.47 854.937 1251.64 848.114C1249.15 854.598 1244.41 861.275 1244.77 867.517C1245.25 875.307 1249.96 882.71 1252.81 890.307C1256.07 884.404 1259.33 878.501 1263.91 870.178L1263.95 870.13Z" fill="#808080" fill-opacity="0.5"/>
<path d="M1325.1 966.323C1334.48 956.333 1340.86 949.562 1347.2 942.791C1346.14 941.087 1345.13 939.382 1344.07 937.678C1338.45 938.625 1332.83 939.619 1327.21 940.566C1327 939.193 1326.83 937.867 1326.62 936.494C1333.42 934.884 1340.27 933.274 1348.51 931.333C1349.39 945.159 1350.11 956.569 1350.87 968.027C1340.73 972.147 1328.61 983.605 1325.1 966.276V966.323Z" fill="#808080" fill-opacity="0.5"/>
<path d="M398.906 229.572C397.605 218.173 396.132 206.823 395.178 195.424C395.005 193.516 397.129 189.554 398.126 189.602C405.105 189.749 415.032 187.646 418.543 191.951C429.9 205.991 425.175 222.821 416.419 235.541C411.607 242.537 400.553 244.591 398.256 228.936C414.511 231.627 421.751 220.424 415.812 200.806C414.641 196.99 410.48 191.951 407.662 191.902C404.845 191.902 400.033 197.137 399.556 200.659C398.342 210.15 398.993 219.934 398.863 229.621L398.906 229.572Z" fill="#808080" fill-opacity="0.5"/>
<path d="M1837.34 210.014C1838.84 213.631 1840.38 217.248 1842.3 221.864C1847.5 218.009 1853.12 213.869 1859.87 208.872C1851.25 226.956 1843.67 242.851 1834.09 262.934V211.918C1835.18 211.299 1836.22 210.68 1837.3 210.014H1837.34Z" fill="#808080" fill-opacity="0.5"/>
<path d="M1977.77 211.38H1999.12C1999.87 226.948 2000.62 242.565 2001.61 262.353C1988.34 246.057 2008.45 219.334 1984.9 215.017C1980.84 232.477 1977.32 247.706 1973.79 262.935C1972.34 262.45 1970.85 262.014 1969.4 261.529C1972.01 245.863 1974.62 230.198 1977.81 211.331L1977.77 211.38Z" fill="#808080" fill-opacity="0.5"/>
<path d="M754.347 1182.2C753.812 1188.87 753.318 1195.25 752.824 1201.64C751.712 1201.54 750.6 1201.45 749.529 1201.36V1159.86C754.553 1163.9 759.165 1170.33 764.271 1170.89C768.472 1171.36 773.248 1164.84 777.449 1161.69V1198.96C776.955 1199.1 776.419 1199.24 775.925 1199.34C775.019 1194.03 774.072 1188.73 772.96 1182.2H754.388H754.347Z" fill="#808080" fill-opacity="0.5"/>
<path d="M2387.91 772.779C2393.59 770.538 2399.86 765.422 2404.71 766.981C2408.36 768.15 2410.7 777.7 2412.53 783.985C2413.88 788.613 2414.44 794.314 2413.48 798.942C2412.01 805.861 2409.79 816.872 2406.34 817.895C2400.22 819.649 2392.87 815.167 2386.04 813.315L2386.99 807.566C2394.26 809.077 2401.53 810.538 2408.76 812.049C2410.07 808.687 2411.38 805.374 2412.73 802.012C2409.04 798.163 2405.38 794.363 2401.13 789.929C2402.72 787.542 2406.02 782.621 2409.27 777.651C2408.84 775.848 2408.4 773.997 2407.96 772.194C2401.65 773.802 2395.33 775.41 2389.02 777.018C2388.66 775.605 2388.3 774.192 2387.95 772.73L2387.91 772.779Z" fill="#808080" fill-opacity="0.5"/>
<path d="M115.973 938.703C125.241 946.627 131.577 952.099 141.744 960.778C137.364 965.636 131.42 976.532 127.861 975.494C111.202 970.636 117.967 953.608 115.973 938.703Z" fill="#808080" fill-opacity="0.5"/>
<path d="M534.766 1200.9C535.675 1185.66 536.627 1170.38 537.536 1155.14C538.315 1155.09 539.094 1155 539.873 1154.95C540.782 1159.28 541.691 1163.66 542.86 1169.19C547.535 1165.14 551.82 1161.42 552.513 1160.81C555.5 1173.57 558.919 1188.09 562.685 1204.1C556.841 1196.67 550.911 1189.14 542.99 1179.09C541.908 1188.28 541.129 1194.67 540.393 1201C538.532 1201 536.67 1200.9 534.809 1200.86L534.766 1200.9Z" fill="#808080" fill-opacity="0.5"/>
<path d="M1209.02 842.867H1230.32C1223.23 847.316 1217.43 850.982 1213.33 853.573C1221.08 861.345 1229.07 866.185 1232.22 873.762C1234.21 878.552 1230.19 892.24 1226.55 893.658C1219.96 896.199 1211.67 892.533 1204.83 886.178C1212.08 886.178 1219.42 886.569 1226.59 885.592C1227.29 885.494 1228.74 874.251 1227.21 873.126C1222.2 869.411 1215.98 867.945 1209.02 865.109V842.916V842.867Z" fill="#808080" fill-opacity="0.5"/>
<path d="M588.455 1073.86C597.913 1092.76 606.091 1109.02 616.375 1129.54C608.651 1122.13 603.571 1117.27 597.706 1111.67C595.394 1116.29 592.916 1121.34 588.455 1130.38V1073.91V1073.86Z" fill="#808080" fill-opacity="0.5"/>
<path d="M63.1739 975.515C60.3739 971.759 57.8324 967.767 54.774 964.293C51.4141 960.489 47.6234 957.156 43.1435 952.742C42.2389 960.818 41.5497 967.204 40.8174 973.637C39.3959 973.59 37.9744 973.496 36.5098 973.449V923.958C48.2265 943.069 57.4017 958.048 66.5769 973.073C65.4138 973.919 64.2938 974.717 63.1308 975.562L63.1739 975.515Z" fill="#808080" fill-opacity="0.5"/>
<path d="M1229.22 818.244H1202.69C1212.41 804.137 1220.33 792.649 1231.82 776.07H1204.57C1209.52 771.077 1213.67 763.563 1219.03 762.109C1231.36 758.813 1237.81 780.578 1227.92 793.327C1223.39 799.144 1216.94 802.974 1206.71 811.7C1219.08 813.639 1223.98 814.366 1228.84 815.141C1228.97 816.208 1229.09 817.226 1229.22 818.292V818.244Z" fill="#808080" fill-opacity="0.5"/>
<path d="M340.835 232.89C343.052 233.664 347.059 235.068 356.51 238.359H326.443C332.667 228.437 338.229 221.322 342.041 212.949C344.647 207.19 344.764 199.688 346.008 192.96C340.835 194.315 335.662 195.622 327.844 197.655C331.811 193.251 334.962 186.91 338.307 186.765C343.325 186.523 348.459 190.637 353.515 192.912C349.587 205.351 345.658 217.741 340.874 232.938L340.835 232.89Z" fill="#808080" fill-opacity="0.5"/>
<path d="M1874.9 697.334V677.451C1881 676.921 1887.38 676.343 1893.76 675.766C1893.96 676.632 1894.13 677.499 1894.33 678.365C1888.81 680.436 1883.29 682.554 1880.34 683.661C1887.29 694.157 1894.04 702.197 1898.22 711.778C1899.69 715.148 1895.56 726.221 1892.65 726.991C1887.01 728.532 1880.42 725.258 1874.94 719.24C1880.83 719.24 1886.8 719.769 1892.57 718.71C1893.55 718.518 1895.07 709.226 1894 708.359C1888.6 704.219 1882.39 701.475 1874.9 697.334Z" fill="#808080" fill-opacity="0.5"/>
<path d="M1521.69 428.676C1527.32 429.238 1532.96 429.752 1544.16 430.876C1539.38 443.092 1536.62 453.342 1531.45 461.393C1530.05 463.593 1521.53 459.24 1516.24 454.372C1532.73 461.299 1537.9 455.074 1535.18 435.229H1517.37V412.154C1523.01 411.686 1529.04 411.171 1538.68 410.375C1530.05 415.477 1524.72 418.613 1519.43 421.749C1520.17 424.042 1520.87 426.382 1521.61 428.676H1521.69Z" fill="#808080" fill-opacity="0.5"/>
<path d="M1972.54 368.534C1969.26 368.948 1965.05 369.453 1960.75 370.004C1960.54 368.488 1960.38 367.11 1960.17 365.731C1965.82 365.042 1976.18 362.975 1976.43 363.94C1979.41 376.666 1981.91 389.76 1982.28 402.809C1982.36 406.255 1974.95 412.503 1970.74 412.825C1966.68 413.1 1962.26 407.357 1954.36 401.614C1965.62 402.533 1971.39 403.038 1976.34 403.406C1974.91 390.45 1973.89 380.985 1972.54 368.534Z" fill="#808080" fill-opacity="0.5"/>
<path d="M718.614 1197.78C724.625 1198.15 730.635 1198.52 736.646 1198.94C736.646 1199.83 736.604 1200.76 736.562 1201.64H713.021V1152.49H732.138C732.263 1153.14 732.388 1153.75 732.472 1154.4C727.254 1155.7 721.995 1157.05 716.778 1158.35C716.068 1160.54 715.359 1162.77 714.649 1164.95C721.87 1168.25 729.091 1171.56 735.686 1174.53C729.049 1179.27 721.661 1184.53 714.232 1189.83C715.693 1192.48 717.154 1195.13 718.573 1197.78H718.614Z" fill="#808080" fill-opacity="0.5"/>
<path d="M384.134 227.517C380.179 231.375 376.596 236.991 372.106 238.31C369.676 238.994 362.962 232.352 362.962 228.933C362.839 215.649 363.992 202.218 366.34 189.275C366.71 187.322 380.015 186.101 380.262 187.127C383.186 198.653 384.957 210.667 386.564 222.633C386.77 224.293 384.587 226.393 383.474 228.347C381.868 215.6 380.303 202.804 378.738 190.008L368.729 190.985V229.617C373.836 228.933 378.985 228.2 384.092 227.517H384.134Z" fill="#808080" fill-opacity="0.5"/>
<path d="M2080.13 668.396C2082.27 681.628 2084.42 694.813 2086.56 708.045C2093.27 706.391 2100.02 704.69 2111.14 701.949C2104.95 708.707 2100.91 716.693 2096.02 717.449C2090.76 718.253 2080.98 713.716 2079.73 709.085C2076.21 696.23 2076.09 682.053 2074.63 668.396C2076.45 668.396 2078.31 668.396 2080.13 668.396Z" fill="#808080" fill-opacity="0.5"/>
<path d="M997.981 287.508C1001.6 299.628 1005.18 311.702 1009.49 326.199C1014.33 312.308 1018.16 301.353 1021.98 290.445C1023.53 291.097 1025.03 291.796 1026.58 292.449C1021.53 308.019 1016.49 323.589 1011.44 339.112C1009.78 338.925 1008.11 338.692 1006.4 338.506C1002.37 321.957 998.388 305.455 994.361 288.906C995.582 288.44 996.761 287.974 997.981 287.508Z" fill="#808080" fill-opacity="0.5"/>
<path d="M1244.24 772.246C1255.88 758.087 1263.35 763.838 1264.76 780.558C1265.73 792.446 1263.03 805.01 1260.44 816.753C1260.08 818.444 1247.07 818.879 1246.66 817.381C1243.83 806.605 1242.3 795.2 1241.37 783.844C1241.05 779.93 1243.63 775.677 1244.88 771.521C1245.9 786.019 1246.91 800.516 1247.92 814.965L1258.18 814.772C1259.07 803.27 1261.33 791.527 1260.04 780.413C1259.63 776.885 1249.77 774.904 1244.24 772.246Z" fill="#808080" fill-opacity="0.5"/>
<path d="M494.628 157.945C494.067 157.75 498.113 159.163 506.845 162.183H478.926C483.733 153.074 487.258 147.229 490.062 140.897C493.266 133.64 495.87 125.944 498.714 118.491C492.625 119.66 486.537 120.781 480.488 121.95C480.168 120.148 479.807 118.345 479.487 116.543C487.057 115.374 494.668 114.205 502.239 113.036C499.915 126.772 497.592 140.459 494.668 157.994L494.628 157.945Z" fill="#808080" fill-opacity="0.5"/>
<path d="M1749.85 893.412C1746.16 889.899 1742.47 886.387 1737.6 881.768C1735.69 886.339 1733.95 890.38 1732.21 894.47L1728.86 894.037V860.067H1749.73C1747.56 863.099 1744.26 867.814 1740.74 872.77C1744.64 878.592 1748.54 884.414 1752.48 890.236C1751.59 891.295 1750.74 892.401 1749.85 893.46V893.412Z" fill="#808080" fill-opacity="0.5"/>
<path d="M315.705 698.213C321.7 671.35 324.082 671.495 353.818 699.079C354.414 692.447 355.009 686.344 355.565 680.241C356.399 680.144 357.193 680.048 358.027 680C358.98 689.612 359.893 699.223 360.806 708.786C343.099 719.502 337.978 663.469 315.705 698.165V698.213Z" fill="#808080" fill-opacity="0.5"/>
<path d="M1359.5 934.579C1366.34 933.497 1373.22 932.415 1380.05 931.333C1380.46 943.941 1381.48 956.642 1380.58 969.156C1380.46 970.944 1370.98 971.791 1365.81 973.108C1365.44 971.085 1365.08 969.062 1364.67 967.039C1369.23 965.91 1373.83 964.781 1378.3 963.652C1375.54 956.36 1372.89 949.351 1368.9 938.813C1369.19 938.766 1364.79 939.707 1360.4 940.601C1360.07 938.578 1359.79 936.555 1359.46 934.532L1359.5 934.579Z" fill="#808080" fill-opacity="0.5"/>
<path d="M1600.33 666.531C1618.08 674.71 1607.66 692.268 1608.08 705.344C1608.2 708.671 1596.03 712.553 1587.12 717.543V663.481C1591.84 664.775 1596.42 666.023 1600.99 667.27C1578.01 675.357 1596.18 695.04 1588.55 710.196C1608 703.219 1610.33 690.235 1600.33 666.531Z" fill="#808080" fill-opacity="0.5"/>
<path d="M1636.47 341.57V384.788C1635.31 385.126 1634.19 385.464 1633.03 385.802C1631.68 380.732 1630.33 375.662 1628.55 368.901C1625.73 374.117 1623.06 378.945 1620.43 383.823C1619.35 383.823 1618.26 383.726 1617.18 383.678C1617.84 378.945 1617.45 373.392 1619.35 369.578C1623.25 361.658 1628.39 354.608 1636.51 341.619L1636.47 341.57Z" fill="#808080" fill-opacity="0.5"/>
<path d="M1660.17 672.173C1663.88 669.047 1667.39 663.914 1671.29 663.494C1674.53 663.167 1681.44 669.327 1681.1 671.006C1678.62 683.698 1674.73 695.97 1671.17 708.755C1671.37 708.802 1674.84 709.875 1683.76 712.628H1660.52C1667.39 698.677 1673.07 687.104 1680.52 671.986C1671.95 673.479 1666.89 674.319 1661.79 675.206C1661.25 674.179 1660.68 673.153 1660.13 672.173H1660.17Z" fill="#808080" fill-opacity="0.5"/>
<path d="M2176.65 1158.64C2172.33 1157.36 2167.53 1155.89 2162.69 1154.46C2162.69 1152.66 2162.69 1150.85 2162.69 1149.05C2170.4 1148.62 2178.11 1148.15 2188.46 1147.58C2182.4 1167.18 2177.48 1183.18 2172.56 1199.18C2171.54 1198.94 2170.55 1198.71 2169.53 1198.47C2171.85 1185.46 2174.21 1172.45 2176.69 1158.69L2176.65 1158.64Z" fill="#808080" fill-opacity="0.5"/>
<path d="M1875.89 1277.77C1871.25 1273.88 1866.36 1269.81 1861.48 1265.73C1856.63 1261.66 1851.78 1257.64 1846.98 1253.56C1850.31 1248.5 1852.94 1240.49 1857.23 1239.09C1863.02 1237.19 1870.09 1240.4 1876.61 1241.44C1876.45 1243.43 1876.33 1245.47 1876.17 1247.46H1852.02C1857.19 1264.65 1882.72 1255.46 1875.89 1277.81V1277.77Z" fill="#808080" fill-opacity="0.5"/>
<path d="M435.973 154.48C437.956 141.289 437.914 127.003 442.852 115.432C444.877 110.67 457.707 110.098 465.388 110.86C468.722 111.194 471.423 119.622 474.63 124.718C465.557 120.813 458.636 117.86 451.714 114.86C448.169 128.194 444.582 141.527 441.037 154.813C439.349 154.718 437.661 154.575 435.973 154.48Z" fill="#808080" fill-opacity="0.5"/>
<path d="M1655.25 1361.37C1644.22 1342.44 1650.21 1327.68 1661.45 1316.97C1672.77 1306.16 1680.66 1315.8 1685.91 1325.92C1677.64 1325.92 1665.45 1322.15 1662.44 1326.75C1657.19 1334.77 1657.6 1347.97 1655.21 1361.37H1655.25Z" fill="#808080" fill-opacity="0.5"/>
<path d="M1631.57 1371.2C1621.72 1353.71 1645.87 1328.61 1619.33 1315.97C1628 1315.44 1636.67 1314.92 1640.8 1314.68C1637.72 1333.5 1634.89 1350.79 1631.57 1371.2Z" fill="#808080" fill-opacity="0.5"/>
<path d="M931.302 437.454C940.057 439.928 948.853 442.402 958.946 445.257C965.593 475.092 955.379 496.029 933.693 516.632C906.819 542.137 884.12 573.78 859.76 602.853C843.384 622.409 829.076 646.772 800.094 635.923C798.513 624.836 796.851 613.464 795.189 602.091C793.122 602.234 791.096 602.377 789.028 602.472V677.987C790.204 678.605 791.42 679.224 792.595 679.89C795.392 668.66 798.148 657.431 801.553 643.679C817.321 640.348 831.832 641.728 846.019 661.475C867.826 691.833 893.767 718.099 917.804 746.221C931.91 762.732 947.839 777.816 959.067 796.706C965.471 807.46 964.053 824.638 966.444 840.911C957.446 841.577 951.609 842.434 945.732 842.434C874.109 842.529 802.486 842.006 730.903 842.862C714.487 843.052 707.515 837.913 708.812 817.453C710.839 785.334 711.244 753.12 712.095 720.907C712.177 718.147 711.082 713.626 709.461 712.77C683.236 698.685 698.355 689.977 712.785 681.65C699.544 665.663 699.044 651.943 711.285 640.491C705.245 636.018 699.287 631.545 691.545 625.74C695.355 620.173 697.747 614.225 701.719 611.37C712.298 603.9 715.298 599.189 700.584 593.717C698.76 593.051 698.517 581.25 699.814 575.302C701.881 565.786 708.326 556.983 708.61 547.704C709.704 513.73 709.055 479.708 709.055 443.402C784.124 441.594 857.976 439.785 931.869 437.977L931.261 437.406L931.302 437.454Z" fill="white"/>
<path d="M1394.17 434.13H1262.28C1261.51 437.251 1260.9 439.38 1260.5 441.555C1257.82 455.933 1254.83 482.89 1252.68 482.796C1230.77 481.755 1205.49 497.646 1187.5 470.972C1183.45 464.919 1179.93 456.642 1179.65 449.17C1178.67 424.813 1179.16 400.314 1179.36 375.911C1179.52 354.392 1188.72 343.419 1206.66 343.183C1219.42 342.994 1232.22 343.183 1246.32 343.183C1247.53 351.034 1248.67 358.222 1250.05 367.256H1365.12C1361.76 338.548 1374.36 340.109 1391.98 341.149C1419.12 342.757 1446.5 338.643 1479.19 336.656C1479.19 379.127 1480.89 418.428 1478.26 457.351C1477.37 470.31 1468.82 486.769 1451.57 485.208C1434.59 483.647 1414.5 492.964 1404.5 467.378C1400.65 457.588 1398.14 447.041 1394.25 434.225L1394.17 434.13ZM1420.66 448.791C1419.69 451.203 1418.76 453.615 1417.78 455.98C1425.24 458.014 1432.69 460.047 1440.1 462.081C1441.8 448.035 1445.13 433.846 1444.4 419.989C1444.11 414.692 1435.08 408.355 1429.04 406.084C1426.9 405.28 1421.79 415.118 1418.07 420.131C1419 420.935 1419.93 421.786 1420.86 422.59C1426.13 419.658 1431.35 416.678 1441.64 410.908C1437.23 423.962 1432.77 434.697 1433.54 435.218C1441.88 441.082 1443.3 448.649 1436.13 454.845C1433.62 457.02 1425.97 451.061 1420.66 448.791Z" fill="white"/>
<path d="M961.78 493.925C999.528 540.001 1032.28 580.009 1065.08 619.923C1067.39 622.719 1069.75 625.943 1072.67 627.507C1087.48 635.329 1083.18 644.098 1074.46 654.148C1054.24 677.375 1034.07 700.651 1014.3 724.447C998.188 743.835 982.805 764.029 967.016 783.891C925.777 735.445 884.944 687.472 841.879 636.846C880.885 590.39 920.419 543.272 961.78 493.925ZM928.375 643.293V689.795C950.658 674.437 970.263 660.927 991.532 646.279C992.668 662.349 993.642 675.953 994.616 689.511C996.362 689.321 998.107 689.179 999.893 688.989C1000.58 675.385 1001.31 661.827 1001.96 649.265C1011.26 647.417 1019.09 645.9 1026.89 644.335C1026.68 642.629 1026.48 640.922 1026.28 639.216C1018.44 638.505 1010.65 637.794 1002.29 637.035C1001.23 621.392 1000.22 606.223 999.203 591.101L993.399 591.576V638.457C970.141 621.961 949.846 607.598 927.279 591.576V634.476C918.552 636.419 911.084 638.126 903.615 639.832C903.696 640.591 903.778 641.349 903.859 642.06C911.043 642.439 918.187 642.819 928.415 643.34L928.375 643.293Z" fill="white"/>
<path d="M1389.13 470.142C1371.79 476.827 1375.85 488.491 1382.74 502.193C1386.84 510.348 1390.81 519.973 1391.1 529.123C1392.08 562.833 1391.51 596.544 1391.51 631.534H1271.41V444.776H1391.63C1390.61 453.263 1389.58 461.987 1388.52 470.711L1389.13 470.095V470.142ZM1336.2 462.035C1331.52 462.935 1322.83 462.461 1322.13 465.021C1318.36 478.439 1315.9 492.568 1315.16 506.65C1315.08 508.025 1329.88 512.102 1337.63 511.581C1340.75 511.343 1343.37 502.098 1346.24 496.93C1327.42 492.141 1341.48 474.457 1336.2 462.082V462.035Z" fill="white"/>
<path d="M1983.72 475.697C1982.7 483.498 1978.52 495.628 1981.2 498.34C1995.7 512.991 1990.87 531.638 1991.19 549.001C1991.76 575.83 1991.36 602.707 1991.36 631.534H1874.9V444.776H1993.02C1989.45 456.193 1986.28 466.325 1983.11 476.458L1983.68 475.744L1983.72 475.697ZM1952.47 514.703C1945.76 500.433 1935.48 488.16 1937.68 481.595C1945.97 456.669 1933.74 463.233 1923.82 462.52C1920.53 479.55 1917.89 493.44 1915.21 507.33C1926.42 509.566 1937.64 511.754 1952.47 514.703Z" fill="white"/>
<path d="M1691.16 444.776C1677.58 475.341 1686.55 503.58 1690.31 533.053C1694.3 564.662 1691.2 597.457 1691.2 631.534H1574.23V444.776H1691.16ZM1650.04 509.228C1645.51 496.556 1629.02 486.399 1640.73 468.269C1641.14 467.652 1635.31 458.872 1632.04 458.54C1628.94 458.255 1624.09 463.334 1622.41 467.415C1619.64 474.06 1618.42 481.748 1617.31 489.105C1616.5 494.61 1614.91 502.346 1617.23 505.526C1620.46 509.892 1626.94 512.313 1632.25 512.882C1637.67 513.452 1643.34 510.747 1650.08 509.228H1650.04Z" fill="white"/>
<path d="M663.705 135.12V39.3203C705.412 39.3203 747.161 39.3203 788.909 39.3688C790.139 39.3688 791.369 40.436 792.641 40.4845C818.313 41.6163 831.122 57.1059 831.067 86.9534C831.067 96.6547 830.493 106.356 831.067 116.009C831.928 130.027 825.039 134.926 815.155 134.975C765.41 135.266 715.706 135.12 663.623 135.12H663.705ZM736.334 106.259C748.801 99.7591 750.441 89.3302 745.725 75.0209C739.205 55.3274 727.23 55.9095 713.327 59.4504V113.341C722.349 110.43 729.649 108.054 736.949 105.677L736.334 106.259Z" fill="white"/>
<path d="M1260.67 494.257V587.304H1188.56C1175.53 564.258 1175.16 512.751 1192.11 501.731C1202.56 494.928 1216.94 495.838 1229.64 494.449C1239.4 493.395 1249.32 494.257 1260.67 494.257Z" fill="white"/>
<path d="M1484.74 586.999C1484.74 561.417 1482.64 538.553 1485.66 516.709C1487.04 506.709 1497.73 492.68 1505.67 491.078C1524.43 487.292 1544.08 489.865 1565.42 489.865C1565.42 518.359 1566.19 544.864 1564.82 571.174C1564.54 576.756 1556.63 585.931 1551.87 586.319C1530.57 587.97 1509.1 587.047 1484.78 587.047L1484.74 586.999ZM1539.12 512.534C1539.08 510.884 1539.04 509.185 1539 507.534C1531.86 511.175 1518.62 514.816 1518.67 518.359C1518.79 533.893 1522.74 549.378 1525.28 564.912C1530.41 563.019 1537.87 562.922 1540.13 558.747C1543.03 553.407 1544.36 542.242 1541.66 538.165C1537.91 532.485 1529.76 531.029 1518.34 525.107C1526.13 520.398 1532.62 516.466 1539.16 512.534H1539.12Z" fill="white"/>
<path d="M1860.01 584.845H1785.42C1785.42 563.571 1783.44 543.096 1786.03 523.372C1788.29 505.949 1795.11 489.419 1815.55 491.673C1826.89 492.894 1838.44 492.471 1849.83 491.861C1862.11 491.156 1867.32 497.261 1866.15 511.303C1864.13 535.159 1862.15 559.016 1860.01 584.845ZM1845.55 514.59C1842.44 512.101 1839.29 509.565 1836.18 507.076C1830.04 512.524 1820.55 516.562 1818.33 523.654C1812.48 542.344 1824.15 546.994 1839.49 545.867L1838.04 551.972C1831.42 553.709 1824.8 555.447 1818.17 557.184C1818.17 559.298 1818.17 561.458 1818.17 563.571C1823.91 563.571 1834.12 565.356 1834.73 563.289C1839.41 547.463 1842.2 530.886 1845.59 514.543L1845.55 514.59Z" fill="white"/>
<path d="M2344.8 437.406C2378 466.104 2375.54 516.622 2345.43 538.157C2343.93 537.345 2341.38 536.916 2340.47 535.292C2333.25 522.448 2323.03 515.476 2310.98 508.696C2293.22 498.668 2294.22 484.105 2310.61 469.637C2321.99 459.61 2332.83 448.771 2344.8 437.454V437.406Z" fill="white"/>
<path d="M1258.72 319.453H1355.17V358.771C1331.6 358.771 1308.64 358.771 1285.63 358.771C1266.02 358.771 1257.05 345.665 1258.72 319.453ZM1276.5 336.111C1276.5 337.461 1276.5 338.862 1276.46 340.212H1336.31C1336.31 338.862 1336.35 337.461 1336.39 336.111H1276.54H1276.5Z" fill="white"/>
<path d="M2325.91 798.635V688.055H2355.97V798.635H2325.91ZM2343.31 707.089C2341.97 707.137 2340.59 707.184 2339.26 707.231V779.977C2340.59 779.977 2341.97 779.93 2343.31 779.883V707.089Z" fill="white"/>
<path d="M2214.23 471.858V510.671C2186.92 510.671 2159.38 511.922 2131.91 510.271C2108.52 508.871 2121.66 486.613 2118.24 471.808H2214.23V471.858ZM2198.86 491.364C2198.7 490.064 2198.58 488.714 2198.42 487.413H2138.24C2138.4 488.714 2138.56 490.064 2138.72 491.364H2198.86Z" fill="white"/>
<path d="M2267.96 484.096C2270.1 445.475 2303.47 420.829 2334.5 433.293C2321.7 460.536 2307.17 466.39 2293.31 446.938C2292.57 460.205 2291.95 471.395 2291.25 484.096H2267.92H2267.96Z" fill="white"/>
<path d="M2288.63 491.466C2291.01 509.96 2292.22 519.441 2294.23 535.165C2298.78 524.839 2300.87 520.098 2303.08 515.076C2313.52 525.168 2323.16 534.461 2332.35 543.333C2313.39 558.024 2269.3 535.823 2267.92 506.017C2267.75 501.933 2280.28 497.098 2288.63 491.466Z" fill="white"/>
<path d="M1387.97 469.93C1392.64 470.702 1399.84 469.641 1401.38 472.584C1404.84 479.242 1406.55 487.829 1406.71 495.693C1406.75 498.443 1397.97 504.618 1396.84 503.653C1391.47 498.925 1385.68 493.039 1383.35 486.092C1381.94 481.943 1386.6 475.044 1388.56 469.352C1388.6 469.352 1387.97 469.93 1387.97 469.93Z" fill="white"/>
<path d="M1696.46 466.894C1702.89 476.783 1710.12 483.089 1709.49 488.2C1708.69 494.698 1701.59 500.239 1697.17 506.211C1692.38 501.147 1683.89 496.179 1683.76 490.971C1683.59 484.426 1690.32 477.69 1696.42 466.894H1696.46Z" fill="white"/>
<path d="M1982.28 476.009C1987.73 474.506 1993.67 470.772 1998.46 472.081C2002.55 473.245 2007.96 480.131 2008.05 484.64C2008.18 491.041 2004.97 498.46 2001.06 503.406C1999.87 504.91 1989.4 501.273 1987.25 497.297C1983.95 491.187 1984.17 482.749 1982.9 475.33L1982.28 476.057V476.009Z" fill="white"/>
<path d="M2553.52 1403.14C2478.58 1403.14 2403.47 1403.14 2328.33 1403.14C2234.15 1403.14 2139.98 1403.1 2045.8 1403C2021.04 1403 2008.11 1383.32 2013.6 1355.51C2015.39 1346.48 2015.8 1336.83 2015.63 1327.51C2015.23 1305.64 2014.09 1283.77 2013.15 1258.63H2153.11C2153.64 1265.28 2154.29 1273.55 2155.06 1282.87H2270.46C2271.32 1274.55 2272.21 1266.33 2273.23 1256.34H2474.35C2475.53 1236.38 2477.6 1217.89 2477.56 1199.44C2476.99 957.185 2476.14 714.977 2475.36 472.722C2475.28 449.238 2476.3 425.611 2474.63 402.27C2474.22 396.232 2466.38 387.818 2460.68 386.012C2451.94 383.254 2442.1 385.299 2436.29 385.299C2428.89 368.755 2422.87 355.302 2415.71 339.234C2419.29 336.619 2424.94 332.436 2431.24 327.825C2428.11 315.512 2398.76 303.105 2435.76 284.184C2426.85 280.381 2417.99 276.578 2406.85 271.825C2419.74 259.56 2425.19 254.378 2430.31 249.481C2424.7 242.018 2419.7 235.315 2414.65 228.66C2419.29 223.953 2423.93 219.247 2430.11 212.972C2429.25 208.218 2427.95 200.802 2426.32 191.675H2553.56V1403.1L2553.52 1403.14Z" fill="white"/>
<path d="M1890.37 978.677C1895.35 968.553 1900.33 958.381 1906.07 946.736C1915.38 946.736 1926.3 948.114 1936.83 946.403C1951.43 944.026 1953.7 954.959 1953.94 966.747C1954.59 996.835 1954.31 1027.02 1954.27 1057.11C1954.27 1081.54 1944.15 1093.9 1923.27 1094.04C1887.54 1094.32 1851.57 1097.18 1816.24 1092.9C1795.93 1090.43 1777.64 1081.2 1756.56 1093.09C1746.2 1098.93 1731.47 1094.09 1717.43 1094.09C1716.34 1084.91 1715.36 1076.69 1714.19 1067.04H1599.15C1598.54 1075.26 1598.02 1082.92 1597.21 1094.09C1577.3 1089.43 1555.21 1105.54 1537.56 1082.25C1533.72 1077.21 1529.92 1070.08 1529.67 1063.71C1528.78 1037.62 1529.23 1011.47 1529.31 985.332C1529.39 959.807 1540.52 946.831 1562.29 946.688C1573.58 946.593 1584.91 946.688 1596.97 946.688C1597.69 956.432 1598.3 964.085 1598.99 973.544H1715.24C1710.18 945.5 1725.52 945.405 1742.6 946.546C1756.68 947.449 1770.84 946.736 1786.7 946.736C1792.93 986.235 1810.9 1012.57 1847.52 1010.71C1866.17 1009.76 1885.35 1005.11 1890.86 977.964L1890.29 978.677H1890.37ZM1607.93 995.837H1586.73V1042.85C1590.33 1034.91 1593.16 1028.73 1597.61 1018.98C1604.25 1028.35 1608.94 1035 1614.49 1042.85C1612.26 1026.78 1610.2 1011.81 1607.97 995.837H1607.93ZM1617.89 1030.82C1629.66 1037.24 1636.86 1041.13 1646.86 1046.55V995.789C1644.88 994.886 1642.89 993.983 1640.91 993.08C1633.42 1005.34 1625.94 1017.65 1617.89 1030.82ZM1693.31 1042.7C1692.34 1027.83 1691.25 1011.43 1690.2 995.029L1685.62 994.03C1679.59 1006.2 1673.52 1018.32 1667.86 1029.73C1676.56 1034.15 1683.44 1037.71 1693.31 1042.75V1042.7Z" fill="white"/>
<path d="M1597.02 1104.44C1597.75 1115.58 1598.28 1123.42 1598.76 1131.02H1714.02C1714.75 1123.8 1715.56 1115.44 1716.65 1104.49C1731.93 1104.49 1748.02 1101.24 1762.36 1105.69C1771.08 1108.41 1782.63 1122.56 1783.27 1132.45C1785.75 1169.59 1784.25 1207.11 1784.25 1245.54C1763.62 1247.74 1743.88 1251.66 1724.31 1250.61C1719.69 1250.37 1715.72 1233.26 1710.01 1220.78H1598.44C1599.05 1229.24 1599.7 1238.04 1600.51 1249.8H1531.37C1531.37 1226.42 1531.62 1201.38 1531.25 1176.38C1531.09 1163.66 1529.47 1151 1529.14 1138.24C1528.62 1119.26 1541.02 1104.59 1557.35 1104.44C1570.07 1104.35 1582.8 1104.44 1596.9 1104.44H1597.02ZM1590.21 1182.16H1608.45C1610.07 1188.9 1611.41 1194.49 1612.75 1200.09C1614.45 1199.51 1616.15 1198.99 1617.85 1198.41C1616.68 1191.29 1614.41 1184.12 1614.53 1177.05C1615.1 1147.03 1613.68 1145.36 1587.34 1149.99V1202.14C1588.31 1202.14 1589.24 1202.14 1590.21 1202.14V1182.26V1182.16ZM1664.62 1192.77C1678.4 1191 1687.35 1189.86 1696.31 1188.71C1694.04 1176.04 1691.77 1163.42 1688.37 1144.59C1680.22 1161.13 1674.1 1173.51 1664.62 1192.77ZM1626.61 1194.97L1624.13 1198.8C1630.17 1200.04 1639.01 1204.91 1641.76 1201.95C1661.94 1180.39 1647.76 1170.12 1627.98 1162.23C1634.26 1156.59 1638.48 1152.77 1642.86 1148.85C1623.36 1148.42 1622.27 1150.09 1624.86 1169.78C1634.02 1174.9 1640.87 1178.72 1647.72 1182.54C1647.35 1185.17 1646.99 1187.8 1646.62 1190.48C1639.94 1192.01 1633.25 1193.49 1626.61 1195.02V1194.97Z" fill="white"/>
<path d="M1707.38 1233.58V1270.44H1610.74V1233.58H1707.38Z" fill="white"/>
<path d="M1705.17 1118.04H1610.74V1079.32C1638.89 1079.32 1667.32 1077.38 1695.27 1080.81C1701.53 1081.55 1706.28 1101.03 1711.68 1111.94C1709.51 1113.98 1707.3 1116.01 1705.13 1118.09L1705.17 1118.04Z" fill="white"/>
<path d="M1891.37 978.754C1872.39 1002.33 1850.32 1012.05 1822.81 999.627C1804 991.128 1794.98 973.244 1798.24 948.869C1819.95 945.413 1807.63 969.648 1817.95 979.501C1831.83 971.516 1846.77 962.971 1863.54 953.351C1864.76 963.578 1866.03 974.084 1867.58 987.206C1880.6 976.419 1862.23 942.471 1894.23 949.662C1893.04 959.562 1891.9 969.555 1890.76 979.501C1890.76 979.454 1891.37 978.754 1891.37 978.754Z" fill="white"/>
<path d="M1808.56 900.941C1823 896.068 1837.33 887.74 1851.9 887.125C1874.9 886.132 1894.59 913.053 1894.22 941.725C1888.66 942.293 1882.93 942.86 1875.6 943.617C1874.78 931.079 1874.04 919.913 1873.31 908.748C1871.88 908.558 1870.44 908.322 1869.05 908.132C1867.5 917.926 1865.94 927.72 1864.14 939.217C1848.18 930.133 1832.95 921.428 1817.56 912.675C1809.21 923.982 1816.21 948.396 1793.29 941.819C1798.69 927.625 1803.93 913.999 1809.13 900.326L1808.6 900.941H1808.56Z" fill="white"/>
<path d="M1703.09 924.127V965.544C1673.41 965.544 1644.39 966.385 1615.53 964.517C1611.85 964.283 1606.17 949.715 1606.45 942.011C1606.66 935.894 1614.34 925.248 1619.08 924.968C1646.64 923.334 1674.31 924.174 1703.09 924.174V924.127ZM1623.99 938.369C1623.3 942.151 1622.56 945.98 1621.86 949.762C1643 952.517 1664.3 953.404 1686.16 947.521C1666.91 930.057 1644.51 943.505 1623.99 938.369Z" fill="white"/>
<path d="M2166.98 1270.44V1233.58H2257.18V1270.44H2166.98ZM2183.91 1258.94C2204.62 1257.59 2225.25 1256.19 2245.88 1254.84C2215.8 1241.34 2186.76 1245.39 2183.91 1258.94Z" fill="white"/>
<path d="M1965.1 1245.88C1975.07 1229.22 1976.21 1200.48 2003.76 1211.44C1992.33 1226.28 1993.39 1257.23 1965.1 1245.88Z" fill="white"/>
<path d="M363.156 869.897C357.232 857.065 352.03 850.792 352.22 844.756C352.41 839.053 358.22 833.635 361.561 828.122C365.776 833.873 371.928 838.91 373.56 845.611C374.624 849.984 369.042 856.875 363.156 869.849V869.897Z" fill="white"/>
<path d="M377.987 438.948C370.661 446.94 366.057 455.478 360.212 457.017C356.85 457.91 347.202 446.294 347.962 442.671C349.404 435.622 355.449 427.034 360.933 425.247C364.776 423.956 370.821 432.792 377.987 438.948Z" fill="white"/>
<path d="M934.284 410.376C930.479 406.883 923.272 403.055 923.495 399.897C924.346 389.321 927.838 378.985 930.3 368.602C933.702 371.233 939.611 373.435 939.969 376.497C941.222 386.355 940.416 396.547 940.416 406.596C938.357 407.84 936.298 409.132 934.239 410.376H934.284Z" fill="white"/>
<path d="M272.752 963.465C274.619 952.175 275.905 940.696 278.976 929.83C279.391 928.319 292.586 928.602 293.208 930.633C295.615 938.617 297.772 948.774 295.241 955.907C293.208 961.67 284.245 964.221 278.353 968.189C276.486 966.631 274.619 965.024 272.752 963.465Z" fill="white"/>
<path d="M1934.86 135.153C1938.77 142.782 1945.77 150.411 1945.77 157.991C1945.77 166.744 1939.58 175.547 1936.1 184.3C1933.58 183.42 1931.07 182.54 1928.59 181.659V139.163C1930.68 137.843 1932.77 136.474 1934.9 135.153H1934.86Z" fill="white"/>
<path d="M1907.07 399.4C1902.34 401.867 1897.64 404.334 1890.85 407.918C1889.67 393.769 1888.75 382.598 1887.79 371.335C1899.58 369.256 1905.8 378.875 1906.45 400.192L1907.12 399.447L1907.07 399.4Z" fill="white"/>
<path d="M725.906 1039.76V1006.21C740.098 1002.29 747.858 1008.42 747.36 1023.38C746.904 1037.04 741.177 1046.32 725.906 1039.76Z" fill="white"/>
<path d="M275.665 108.121C273.883 93.3579 272.507 82.1546 270.604 66.3467C278.985 69.6222 288.46 70.002 291.861 75.5086C295.303 81.0628 294.655 92.6933 292.063 99.7665C290.444 104.181 281.941 105.178 275.665 108.074V108.121Z" fill="white"/>
<path d="M1400.27 1383.48C1418.02 1404.78 1416.86 1421.17 1400.27 1425.26V1383.48Z" fill="white"/>
<path d="M1838.39 716.836V683.077C1840.02 681.476 1841.65 679.827 1843.27 678.227C1849.11 686.666 1859.13 694.669 1859.8 703.691C1860.67 715.72 1852.65 725.178 1838.43 716.836H1838.39Z" fill="white"/>
<path d="M867.65 327.416V293.639C880.498 290.081 889.908 294.054 891.135 309.164C892.445 325.614 884.507 333.054 867.65 327.416Z" fill="white"/>
<path d="M1894.23 1358.91V1319.86C1896.25 1319.77 1898.28 1319.68 1900.34 1319.59C1907.19 1332.15 1911.05 1344.98 1900.99 1358.91C1898.74 1358.91 1896.48 1358.91 1894.23 1358.91Z" fill="white"/>
<path d="M2295.84 1194.27C2277.28 1188.17 2275.81 1176.94 2291.96 1152.49C2293.22 1165.9 2294.44 1179.32 2295.84 1194.27Z" fill="white"/>
<path d="M2205.64 390.719V432.493C2186.25 424.03 2184.94 408.098 2205.64 390.719Z" fill="white"/>
<path d="M1329.4 672.642C1344.21 666.499 1348.73 677.1 1348.73 690.227C1348.73 703.007 1344.88 714.648 1329.4 708.456V672.642Z" fill="white"/>
<path d="M2053.15 786.349C2031.02 778.448 2030.18 765.645 2051.18 739.659C2051.94 757.554 2052.48 770.547 2053.15 786.349Z" fill="white"/>
<path d="M1698.79 847.784V889.463C1696.69 889.463 1694.58 889.511 1692.51 889.559C1683.97 876.034 1683.7 862.125 1691.77 847.88C1694.11 847.88 1696.45 847.784 1698.79 847.784Z" fill="white"/>
<path d="M2167.33 390.817C2168.63 403.873 2169.98 416.979 2171.28 430.036C2167.68 430.036 2164.13 430.036 2160.54 430.036V390.719C2162.79 390.719 2165.04 390.719 2167.29 390.768L2167.33 390.817Z" fill="white"/>
<path d="M1930.74 780.035C1925.82 787.263 1921.98 792.949 1918.14 798.634C1915.7 791.358 1911.21 783.938 1911.41 776.759C1911.61 770.013 1916.82 763.509 1919.78 756.859C1922.98 763.605 1926.14 770.351 1930.7 779.987L1930.74 780.035Z" fill="white"/>
<path d="M1314.92 815.837C1315.32 801.109 1315.76 786.332 1316.16 771.604C1335.34 794.229 1332.74 809.49 1314.36 815.158L1314.92 815.837Z" fill="white"/>
<path d="M2061.74 459.52V412.831C2081.85 430.666 2081.73 443.957 2061.74 459.52Z" fill="white"/>
<path d="M1059.97 294.88C1060.25 298.676 1061.57 302.842 1060.57 306.128C1057.92 314.784 1054.75 323.348 1050.61 331.124C1049.81 332.605 1040.85 331.124 1040.61 329.735C1038.77 319.783 1035.75 308.581 1038.28 299.787C1039.41 295.945 1052.74 296.824 1060.49 295.574L1059.93 294.88H1059.97Z" fill="white"/>
<path d="M1295.03 812.676C1276.68 812.066 1272.84 798.188 1284.44 771.604C1301.75 781.263 1291.44 799.689 1294.35 813.379L1295.03 812.676Z" fill="white"/>
<path d="M1007.25 412.834C986.731 393.228 987.682 377.742 1007.25 368.602V412.834Z" fill="white"/>
<path d="M324.295 605.142C334.915 606.417 345.495 607.692 358.657 609.24C348.652 630.049 335.817 623.037 324.746 622.991C324.787 616.844 324.828 610.697 324.91 604.505L324.295 605.142Z" fill="white"/>
<path d="M2259.33 1150.03V1196.72C2242.06 1180.45 2242.23 1164.68 2259.33 1150.03Z" fill="white"/>
<path d="M1264.93 869.63C1260.27 877.918 1257.03 883.762 1253.75 889.559C1250.88 882.038 1246.14 874.708 1245.66 866.995C1245.29 860.815 1250.07 854.204 1252.58 847.784C1256.43 854.539 1260.27 861.342 1264.97 869.582L1264.93 869.63Z" fill="white"/>
<path d="M399.995 228.535C400.07 219.069 399.539 209.507 400.602 200.232C400.982 196.79 405.235 191.675 407.703 191.675C410.171 191.675 413.816 196.647 414.842 200.376C420.044 219.547 413.703 230.447 399.463 227.866L399.995 228.535Z" fill="white"/>
<path d="M384.43 226.581C379.432 227.217 374.394 227.899 369.396 228.535V192.584L379.19 191.675C380.722 203.583 382.254 215.491 383.825 227.353C383.825 227.308 384.43 226.626 384.43 226.626V226.581Z" fill="white"/>
<path d="M1243.49 772.301C1249.37 774.904 1259.83 776.762 1260.26 780.155C1261.63 790.889 1259.23 802.134 1258.28 813.193L1247.39 813.379C1246.32 799.439 1245.25 785.498 1244.18 771.604L1243.49 772.301Z" fill="white"/>
<path d="M1600.09 665.938C1611.06 689.949 1608.5 703.102 1587.12 710.17C1595.48 694.817 1575.51 674.878 1600.82 666.686L1600.09 665.938Z" fill="white"/>
<path d="M1420.45 448.577C1426 450.867 1434.04 456.876 1436.63 454.682C1444.08 448.434 1442.64 440.755 1433.92 434.888C1433.11 434.364 1437.77 423.537 1442.38 410.373C1431.63 416.191 1426.13 419.149 1420.67 422.154C1419.69 421.343 1418.72 420.484 1417.75 419.673C1421.68 414.665 1426.97 404.697 1429.22 405.508C1435.52 407.797 1445.01 414.188 1445.26 419.53C1446.02 433.553 1442.55 447.814 1440.77 461.98C1432.98 459.929 1425.2 457.878 1417.45 455.827C1418.47 453.394 1419.44 450.962 1420.45 448.577Z" fill="#808080" fill-opacity="0.5"/>
<path d="M928.788 644.242C918.631 643.723 911.537 643.345 904.402 642.968C904.321 642.212 904.241 641.457 904.16 640.749C911.577 639.049 918.994 637.397 927.66 635.414V592.688C950.112 608.645 970.225 622.95 993.322 639.38V592.688L999.086 592.216C1000.09 607.323 1001.1 622.384 1002.15 637.963C1010.45 638.719 1018.23 639.427 1025.97 640.135C1026.17 641.835 1026.37 643.534 1026.58 645.234C1018.8 646.792 1011.06 648.303 1001.83 650.144C1001.18 662.655 1000.46 676.157 999.771 689.707C998.038 689.896 996.305 690.037 994.531 690.226C993.564 676.676 992.596 663.174 991.468 647.17C970.346 661.758 950.877 675.26 928.748 690.509V644.195L928.788 644.242ZM936.326 637.727H969.742C970.145 636.358 970.548 634.989 970.991 633.62C960.43 627.341 949.91 621.015 937.455 613.602C937.011 622.997 936.689 629.654 936.326 637.727Z" fill="#808080" fill-opacity="0.5"/>
<path d="M1952.22 516.041C1937.68 513.001 1926.69 510.745 1915.71 508.44C1918.33 494.121 1920.92 479.802 1924.15 462.247C1933.86 463.032 1945.84 456.215 1937.72 481.911C1935.57 488.678 1945.61 501.33 1952.22 516.041Z" fill="#808080" fill-opacity="0.5"/>
<path d="M1649.4 509.878C1642.64 511.387 1636.92 514.074 1631.41 513.508C1626.05 512.942 1619.51 510.538 1616.26 506.202C1613.91 503.043 1615.52 495.36 1616.34 489.892C1617.45 482.538 1618.73 474.949 1621.48 468.35C1623.17 464.296 1628.07 459.252 1631.2 459.535C1634.49 459.818 1640.38 468.585 1639.97 469.198C1628.15 487.205 1644.78 497.34 1649.35 509.878H1649.4Z" fill="#808080" fill-opacity="0.5"/>
<path d="M736.326 105.615C729.125 107.917 721.923 110.219 713.021 113.038V60.8404C726.737 57.4107 738.552 56.8469 744.985 75.9218C749.638 89.7817 748.019 99.8829 735.719 106.179C745.187 79.2106 741.505 68.5925 720.668 64.9749V105.568H736.326V105.615Z" fill="#808080" fill-opacity="0.5"/>
<path d="M1538.23 513.594C1532.04 517.467 1525.81 521.34 1518.39 525.978C1529.27 531.812 1537.04 533.246 1540.61 538.841C1543.19 542.905 1541.92 553.855 1539.15 559.115C1537 563.227 1529.89 563.275 1525 565.188C1522.58 549.934 1518.81 534.633 1518.7 519.332C1518.7 515.841 1531.27 512.207 1538.08 508.669C1538.11 510.295 1538.15 511.968 1538.19 513.594H1538.23Z" fill="#808080" fill-opacity="0.5"/>
<path d="M1844.83 513.911C1841.54 530.758 1838.8 547.847 1834.3 564.162C1833.71 566.292 1823.84 564.452 1818.24 564.452C1818.24 562.274 1818.24 560.047 1818.24 557.868C1824.67 556.077 1831.09 554.286 1837.51 552.495L1838.92 546.201C1824.08 547.363 1812.72 542.57 1818.4 523.303C1820.56 515.993 1829.72 511.83 1835.71 506.214C1838.72 508.78 1841.78 511.394 1844.79 513.96L1844.83 513.911Z" fill="#808080" fill-opacity="0.5"/>
<path d="M1275.79 336.656H1335.84C1335.84 337.465 1335.8 338.304 1335.76 339.114H1275.71C1275.71 338.304 1275.7 337.465 1275.75 336.656H1275.79Z" fill="#808080" fill-opacity="0.5"/>
<path d="M2343.09 705.258V778.883C2341.67 778.883 2340.21 778.93 2338.79 778.978V705.401C2340.21 705.353 2341.67 705.305 2343.09 705.258Z" fill="#808080" fill-opacity="0.5"/>
<path d="M2199.19 491.466H2137.41C2137.24 489.849 2137.08 488.169 2136.91 486.552H2198.74C2198.9 488.169 2199.03 489.849 2199.19 491.466Z" fill="#808080" fill-opacity="0.5"/>
<path d="M1606.33 995.224C1608.57 1011.92 1610.65 1027.57 1612.89 1044.37C1607.31 1036.17 1602.59 1029.26 1595.91 1019.42C1591.44 1029.66 1588.63 1036.12 1584.97 1044.37V995.224H1606.29H1606.33Z" fill="#808080" fill-opacity="0.5"/>
<path d="M1617.18 1030.92C1625.54 1017.56 1633.31 1005.16 1641.08 992.766C1643.13 993.679 1645.19 994.592 1647.25 995.505V1046.83C1636.88 1041.35 1629.4 1037.41 1617.18 1030.92Z" fill="#808080" fill-opacity="0.5"/>
<path d="M1692.35 1044.37C1682.35 1039.29 1675.39 1035.74 1666.58 1031.23C1672.31 1019.73 1678.42 1007.5 1684.56 995.224L1689.19 996.231C1690.3 1012.77 1691.36 1029.31 1692.35 1044.32V1044.37Z" fill="#808080" fill-opacity="0.5"/>
<path d="M1589.95 1181.78V1201.64C1588.99 1201.64 1588.07 1201.64 1587.12 1201.64V1149.55C1613.07 1144.87 1614.47 1146.59 1613.91 1176.57C1613.79 1183.64 1616.02 1190.8 1617.18 1197.92C1615.51 1198.49 1613.83 1199.01 1612.15 1199.59C1610.83 1194 1609.52 1188.46 1607.92 1181.68H1589.95V1181.78Z" fill="#808080" fill-opacity="0.5"/>
<path d="M1664.43 1191.81C1674.07 1173.14 1680.29 1161.15 1688.57 1145.12C1692.03 1163.37 1694.34 1175.6 1696.64 1187.87C1687.54 1188.98 1678.44 1190.1 1664.43 1191.81Z" fill="#808080" fill-opacity="0.5"/>
<path d="M1626.41 1193.77C1633.15 1192.25 1639.88 1190.76 1646.57 1189.24C1646.94 1186.61 1647.31 1183.98 1647.67 1181.31C1640.78 1177.49 1633.92 1173.66 1624.66 1168.55C1622.05 1148.87 1623.15 1147.2 1642.78 1147.63C1638.37 1151.6 1634.12 1155.37 1627.8 1161.01C1647.71 1168.89 1662 1179.16 1641.67 1200.7C1638.86 1203.66 1629.96 1198.79 1623.92 1197.55L1626.41 1193.73V1193.77Z" fill="#808080" fill-opacity="0.5"/>
<path d="M1623.61 938.838C1644.13 943.486 1666.61 931.384 1685.91 947.045C1663.99 952.321 1642.65 951.567 1621.48 949.055C1622.17 945.663 1622.91 942.229 1623.61 938.838Z" fill="#808080" fill-opacity="0.5"/>
<path d="M2184.16 1258.16C2186.99 1244.79 2216.21 1240.72 2246.44 1254.1C2225.71 1255.43 2204.97 1256.77 2184.16 1258.16Z" fill="#808080" fill-opacity="0.5"/>
<path d="M936.377 636.451C936.737 628.18 937.056 621.448 937.496 611.878C949.842 619.476 960.311 625.872 970.739 632.268C970.34 633.662 969.94 635.057 969.501 636.451H936.377Z" fill="white"/>
<path d="M736.737 105.046H721.611V63.8906C741.74 67.5584 745.336 78.3236 736.151 105.665L736.737 105.094V105.046Z" fill="white"/>
</svg>
