<svg width="2390" height="1440" viewBox="0 0 2390 1440" fill="none" xmlns="http://www.w3.org/2000/svg">
<path d="M0.000488281 85.333L2389.33 85.333" stroke="black" stroke-width="0.666667"/>
<line x1="0.333822" y1="85.333" x2="0.333822" y2="1440" stroke="black" stroke-width="0.666667"/>
<line x1="2389.67" y1="84" x2="2389.67" y2="1440" stroke="black" stroke-width="0.666667"/>
<line x1="0.000488281" y1="426.334" x2="2389.33" y2="426.334" stroke="black" stroke-width="0.666667"/>
<line x1="0.000488281" y1="767.667" x2="2389.33" y2="767.667" stroke="black" stroke-width="0.666667"/>
<line x1="0.000488281" y1="1109" x2="2389.33" y2="1109" stroke="black" stroke-width="0.666667"/>
<line x1="597.667" y1="0.000308642" x2="596.333" y2="1440" stroke="black" stroke-width="0.666667"/>
<line x1="1195" x2="1195" y2="1440" stroke="black" stroke-width="0.666667"/>
<line x1="1792.33" x2="1792.33" y2="1440" stroke="black" stroke-width="0.666667"/>
<path d="M0 85.333L2389.33 85.333" stroke="black" stroke-width="0.666667"/>
<line x1="0.333333" y1="85.333" x2="0.333333" y2="1440" stroke="black" stroke-width="0.666667"/>
<line x1="2389.67" y1="84" x2="2389.67" y2="1440" stroke="black" stroke-width="0.666667"/>
<line y1="426.334" x2="2389.33" y2="426.334" stroke="black" stroke-width="0.666667"/>
<line y1="767.667" x2="2389.33" y2="767.667" stroke="black" stroke-width="0.666667"/>
<line y1="1109" x2="2389.33" y2="1109" stroke="black" stroke-width="0.666667"/>
<line x1="597.667" y1="0.000308642" x2="596.334" y2="1440" stroke="black" stroke-width="0.666667"/>
<line x1="1195" x2="1195" y2="1440" stroke="black" stroke-width="0.666667"/>
<line x1="1792.33" x2="1792.33" y2="1440" stroke="black" stroke-width="0.666667"/>
</svg>
