<svg width="112" height="736" viewBox="0 0 112 736" fill="none" xmlns="http://www.w3.org/2000/svg">
<path d="M60 55.872L60 37.248L64.672 34.432L64.672 7.744C64.672 6.72 64.8427 5.73866 65.184 4.8C65.568 3.86133 66.0587 3.02933 66.656 2.304C67.296 1.62133 68.0427 1.06666 68.896 0.639998C69.7493 0.213331 70.6667 -1.98158e-06 71.648 -1.93869e-06L104.224 -5.14745e-07C105.205 -4.7185e-07 106.123 0.213333 106.976 0.64C107.829 1.06667 108.555 1.62133 109.152 2.304C109.792 3.02933 110.283 3.86133 110.624 4.8C111.008 5.73867 111.2 6.72 111.2 7.744L111.2 48.128C111.2 49.1947 111.008 50.1973 110.624 51.136C110.283 52.0747 109.792 52.8853 109.152 53.568C108.512 54.2933 107.765 54.848 106.912 55.232C106.059 55.6587 105.163 55.872 104.224 55.872C103.285 55.872 102.517 55.7227 101.92 55.424L101.92 55.872L71.648 55.872C69.088 55.872 67.1467 54.6987 65.824 52.352L60 55.872ZM83.296 41.92L97.248 41.92L97.248 13.952L78.624 13.952L78.624 26.048L83.296 23.296L83.296 41.92ZM60 96.84L70.24 90.696L70.24 81.48L85.6 81.48L85.6 101.96L95.84 101.96L95.84 76.36L60 76.36L60 61L111.2 61L111.2 109.64C111.2 110.109 111.093 110.771 110.88 111.624C110.709 112.477 110.368 113.331 109.856 114.184C109.344 115.037 108.661 115.763 107.808 116.36C106.955 117 105.867 117.32 104.544 117.32L78.752 117.32C77.728 117.32 76.7253 117.235 75.744 117.064C74.8053 116.936 73.952 116.637 73.184 116.168C72.416 115.741 71.776 115.123 71.264 114.312C70.7947 113.501 70.496 112.435 70.368 111.112L60 117.32L60 96.84ZM60 215.877L60 154.437L111.2 154.437L111.2 215.878L95.84 215.878L95.84 169.797L90.72 169.797L90.72 215.878L80.48 215.878L80.48 169.797L75.36 169.797L75.36 215.878L60 215.877ZM60 275.945L60 260.585L77.92 260.585L77.92 234.985L60 234.985L60 219.625L77.92 219.625C78.9867 219.625 79.968 219.817 80.864 220.201C81.8027 220.628 82.6133 221.182 83.296 221.865C84.0213 222.59 84.576 223.401 84.96 224.297C85.3867 225.236 85.6 226.238 85.6 227.305C85.6 226.238 85.792 225.236 86.176 224.297C86.6027 223.401 87.1573 222.59 87.84 221.865C88.5653 221.182 89.376 220.628 90.272 220.201C91.2107 219.817 92.2133 219.625 93.28 219.625L111.2 219.625L111.2 234.985L93.28 234.985L93.28 260.585L111.2 260.585L111.2 275.945L93.28 275.945C92.2133 275.945 91.2107 275.732 90.272 275.305C89.376 274.921 88.5653 274.366 87.84 273.641C87.1573 272.958 86.6027 272.148 86.176 271.209C85.792 270.313 85.6 269.332 85.6 268.265C85.6 269.332 85.3867 270.313 84.96 271.209C84.576 272.148 84.0213 272.958 83.296 273.641C82.6133 274.366 81.8027 274.921 80.864 275.305C79.968 275.732 78.9867 275.945 77.92 275.945L60 275.945ZM60 337.445L60 288.805C60 287.696 60.2347 286.672 60.704 285.733C61.1733 284.794 61.792 283.984 62.56 283.301C63.3707 282.618 64.288 282.085 65.312 281.701C66.336 281.317 67.4027 281.125 68.512 281.125L102.688 281.125C103.755 281.125 104.8 281.317 105.824 281.701C106.848 282.085 107.744 282.618 108.512 283.301C109.323 283.984 109.963 284.794 110.432 285.733C110.944 286.672 111.2 287.696 111.2 288.805L111.2 337.445L95.84 337.445L95.84 296.485L75.36 296.485L75.36 337.445L60 337.445ZM75.36 428.008L75.36 387.047L60 387.047L60 371.687L111.2 371.687L111.2 428.008L95.84 428.008L95.84 387.047L90.72 387.047L90.72 428.008L75.36 428.008ZM75.36 486.57L75.36 445.61L60 445.61L60 430.25L111.2 430.25L111.2 486.57L95.84 486.57L95.84 445.61L90.72 445.61L90.72 486.57L75.36 486.57ZM8.512 61.44C7.40266 61.44 6.336 61.248 5.312 60.864C4.288 60.48 3.37066 59.9467 2.56 59.264C1.792 58.5813 1.17333 57.7707 0.703998 56.832C0.234664 55.8933 -2.39841e-06 54.8693 -2.34992e-06 53.76L0 -5.07052e-06L15.36 -4.39911e-06L15.36 46.08L17.92 46.08L17.92 -4.28721e-06L42.688 -3.20457e-06C43.7547 -3.15794e-06 44.8 0.191997 45.824 0.575997C46.848 0.959997 47.744 1.49333 48.512 2.176C49.3227 2.85866 49.9627 3.66933 50.432 4.608C50.944 5.54666 51.2 6.57066 51.2 7.68L51.2 61.44L35.84 61.44L35.84 15.36L33.28 15.36L33.28 61.44L8.512 61.44ZM7.67999 122.82C6.69866 122.82 5.73866 122.607 4.79999 122.18C3.90399 121.753 3.09333 121.177 2.36799 120.452C1.68533 119.769 1.10933 118.959 0.639995 118.02C0.213328 117.124 -5.07769e-06 116.164 -5.03293e-06 115.14L-2.90681e-06 66.5L51.2 66.5L51.2 115.14C51.2 116.121 50.9867 117.06 50.56 117.956C50.1333 118.895 49.5573 119.727 48.832 120.452C48.1067 121.177 47.2747 121.753 46.336 122.18C45.44 122.607 44.5013 122.82 43.52 122.82L7.67999 122.82ZM15.36 107.46L35.84 107.46L35.84 81.86L15.36 81.86L15.36 107.46ZM-7.16167e-06 163.84L10.24 157.696L10.24 148.48L25.6 148.48L25.6 168.96L35.84 168.96L35.84 143.36L-6.26646e-06 143.36L-5.59506e-06 128L51.2 128L51.2 176.64C51.2 177.109 51.0933 177.771 50.88 178.624C50.7093 179.477 50.368 180.331 49.856 181.184C49.344 182.037 48.6613 182.763 47.808 183.36C46.9547 184 45.8667 184.32 44.544 184.32L18.752 184.32C17.728 184.32 16.7253 184.235 15.744 184.064C14.8053 183.936 13.952 183.637 13.184 183.168C12.416 182.741 11.776 182.123 11.264 181.312C10.7947 180.501 10.496 179.435 10.368 178.112L-8.05688e-06 184.32L-7.16167e-06 163.84ZM8.51199 250.877C7.40266 250.877 6.33599 250.685 5.31199 250.301C4.28799 249.917 3.37066 249.384 2.55999 248.701C1.79199 248.019 1.17332 247.208 0.703989 246.269C0.234656 245.331 -1.0679e-05 244.307 -1.06305e-05 243.197L-8.28058e-06 189.437L15.36 189.437L15.36 235.517L17.92 235.517L17.92 189.437L33.28 189.437L33.28 235.517L35.84 235.517L35.84 189.437L51.2 189.437L51.2 243.197C51.2 244.307 50.944 245.331 50.432 246.27C49.9627 247.208 49.3227 248.019 48.512 248.702C47.744 249.384 46.848 249.917 45.824 250.301C44.8 250.685 43.7547 250.877 42.688 250.877L8.51199 250.877ZM51.2 317.44L-1.23091e-05 281.6L-1.14139e-05 261.12L35.84 286.208L35.84 256L51.2 256L51.2 317.44ZM-1.80393e-05 412.69L-1.53536e-05 351.25L24.768 351.25C25.8347 351.25 26.88 351.442 27.904 351.826C28.928 352.21 29.824 352.743 30.592 353.426C31.4027 354.109 32.0427 354.919 32.512 355.858C33.024 356.797 33.28 357.821 33.28 358.93L33.28 397.33L35.84 397.33L35.84 351.25L51.2 351.25L51.2 405.01C51.2 406.119 50.944 407.143 50.432 408.082C49.9627 409.021 49.3226 409.831 48.512 410.514C47.744 411.197 46.848 411.73 45.824 412.114C44.8 412.498 43.7547 412.69 42.688 412.69L26.432 412.69C25.3227 412.69 24.256 412.498 23.232 412.114C22.208 411.73 21.2906 411.197 20.48 410.514C19.712 409.831 19.0933 409.021 18.624 408.082C18.1546 407.143 17.92 406.119 17.92 405.01L17.92 366.61L15.36 366.61L15.36 412.69L-1.80393e-05 412.69ZM-2.07359e-05 474.382L-2.00645e-05 459.022L20.48 459.022L20.48 426.574C20.48 425.465 20.672 424.398 21.056 423.374C21.44 422.35 21.9733 421.433 22.656 420.622C23.3386 419.854 24.1493 419.236 25.088 418.766C26.0267 418.297 27.0507 418.062 28.16 418.062L51.2 418.062L51.2 433.422L35.84 433.422L35.84 459.022L51.2 459.023L51.2 474.383L-2.07359e-05 474.382ZM-2.34242e-05 535.882L-2.27528e-05 520.522L20.48 520.522L20.48 488.074C20.48 486.965 20.672 485.898 21.056 484.874C21.44 483.85 21.9733 482.933 22.656 482.122C23.3386 481.354 24.1493 480.736 25.088 480.266C26.0266 479.797 27.0506 479.562 28.16 479.562L51.2 479.562L51.2 494.922L35.84 494.922L35.84 520.522L51.2 520.523L51.2 535.883L-2.34242e-05 535.882ZM8.51197 602.502C7.40264 602.502 6.33597 602.31 5.31197 601.926C4.28797 601.542 3.37064 601.009 2.55997 600.326C1.79197 599.644 1.17331 598.833 0.703974 597.894C0.234641 596.956 -2.6049e-05 595.932 -2.60005e-05 594.822L-2.36506e-05 541.062L15.36 541.062L15.36 587.142L17.92 587.142L17.92 541.062L51.2 541.062L51.2 602.502L35.84 602.502L35.84 556.422L33.28 556.422L33.28 594.822C33.28 595.932 33.024 596.956 32.512 597.895C32.0426 598.833 31.4026 599.644 30.592 600.327C29.824 601.009 28.928 601.542 27.904 601.926C26.88 602.31 25.8346 602.502 24.768 602.502L8.51197 602.502ZM8.51197 668.94C7.40264 668.94 6.33597 668.748 5.31197 668.364C4.28797 667.98 3.37064 667.447 2.55997 666.764C1.79197 666.081 1.1733 665.271 0.703971 664.332C0.234638 663.393 -2.89531e-05 662.369 -2.89046e-05 661.26L-2.65547e-05 607.5L15.36 607.5L15.36 653.58L17.92 653.58L17.92 607.5L51.2 607.5L51.2 668.94L35.84 668.94L35.84 622.86L33.28 622.86L33.28 661.26C33.28 662.369 33.024 663.393 32.512 664.332C32.0426 665.271 31.4026 666.081 30.592 666.764C29.824 667.447 28.928 667.98 27.904 668.364C26.88 668.748 25.8346 668.94 24.768 668.94L8.51197 668.94ZM51.2 735.377L-3.05778e-05 699.537L-2.96825e-05 679.057L35.84 704.145L35.84 673.937L51.2 673.937L51.2 735.377Z" fill="white"/>
</svg>
